<svg width="172" height="70" viewBox="0 0 172 70" fill="none" xmlns="http://www.w3.org/2000/svg">
<g clip-path="url(#clip0_1116_397)">
<path d="M25.4062 17.1523H10.5625V24.4375C11.6432 23.0964 12.9323 21.9375 14.4297 20.9609C15.4453 20.2969 16.4609 19.9648 17.4766 19.9648C19.5339 19.9648 21.2656 20.7526 22.6719 22.3281C23.9609 23.7734 24.6055 25.3424 24.6055 27.0352C24.6055 28.9883 23.6615 30.974 21.7734 32.9922C19.8854 34.9974 17.9714 36 16.0312 36C15.0417 36 14 35.5573 12.9062 34.6719C12.5677 34.3984 11.7344 33.5846 10.4062 32.2305V36.2344L7.00781 34.7695V17.1523H3.80469V14.8086H7.00781C7.00781 11.7096 6.14193 8.66927 4.41016 5.6875C3.04297 3.33073 1.73438 1.60547 0.484375 0.511719H4.76172C6.05078 1.60547 7.17708 2.99219 8.14062 4.67188C9.75521 7.4974 10.5625 10.8763 10.5625 14.8086H25.4062V17.1523ZM22.4375 29.0469C22.4375 27.8359 21.7604 26.5273 20.4062 25.1211C18.8958 23.5456 17.1445 22.7578 15.1523 22.7578C13.9023 22.7578 12.7305 23.3763 11.6367 24.6133C11.207 25.1081 10.9922 25.4792 10.9922 25.7266C10.9922 26.8073 11.474 28.0573 12.4375 29.4766C14.4688 32.4714 16.5651 33.9688 18.7266 33.9688C20.0938 33.9688 21.1615 33.0898 21.9297 31.332C22.2682 30.5638 22.4375 29.8021 22.4375 29.0469ZM44.332 17.1523H31.3242V20.2773C31.3763 20.2773 31.4284 20.3034 31.4805 20.3555C31.5326 20.4076 31.5781 20.4336 31.6172 20.4336C31.513 20.4336 31.4544 20.4271 31.4414 20.4141C31.4414 20.349 32.4115 20.1406 34.3516 19.7891C35.0677 19.6589 35.7773 19.5938 36.4805 19.5938C39.4102 19.5938 41.2917 20.4141 42.125 22.0547C42.6849 23.1484 42.9648 25.3555 42.9648 28.6758V36.1953C42.6914 36.0911 41.6562 35.668 39.8594 34.9258C39.8594 34.5091 39.7747 34.2422 39.6055 34.125C38.9154 34.5286 38.349 34.8346 37.9062 35.043C36.5 35.707 34.8659 36.0391 33.0039 36.0391C30.4388 36.0391 28.4596 35.2318 27.0664 33.6172C26.3893 32.8359 26.0508 31.9635 26.0508 31C26.0508 29.9193 26.5846 28.8451 27.6523 27.7773C29.7227 25.707 32.2943 24.6719 35.3672 24.6719C37.2292 24.6719 38.7266 25.1016 39.8594 25.9609V24.1641C39.2865 23.4349 38.7266 22.9466 38.1797 22.6992C37.6458 22.4518 36.9102 22.3411 35.9727 22.3672C33.8763 22.4062 31.9557 22.7904 30.2109 23.5195C29.4297 23.8451 28.668 24.138 27.9258 24.3984V22.9531C28.0951 22.8099 28.3424 22.5951 28.668 22.3086C28.7201 22.2435 28.7526 22.2044 28.7656 22.1914V17.1523H24.7617V14.8086H44.332V17.1523ZM39.8594 29.5156C39.8594 28.9427 39.1758 28.4284 37.8086 27.9727C36.6758 27.5951 35.7318 27.4062 34.9766 27.4062C32.2292 27.4062 30.0286 28.3958 28.375 30.375C27.7109 31.1693 27.3789 31.8203 27.3789 32.3281C27.6523 33.2786 28.7266 33.7539 30.6016 33.7539C33.0234 33.7539 35.237 33.1484 37.2422 31.9375C38.987 30.8828 39.8594 30.0755 39.8594 29.5156ZM65.0742 17.1523H44.0781V14.8086H65.0742V17.1523ZM60.875 25.7266C60.875 22.6016 59.3971 21.0391 56.4414 21.0391C54.2539 21.0391 52.4245 22.1849 50.9531 24.4766C49.651 26.5078 49 28.6693 49 30.9609V36.6445L45.7969 34.9648V20.2773H49.1562V22.6016L50.8945 21.293C52.431 20.1341 54.0521 19.5547 55.7578 19.5547C58.0755 19.5547 59.9961 20.4531 61.5195 22.25C62.9518 23.9427 63.668 25.9674 63.668 28.3242C63.668 31.2799 62.418 34.1185 59.918 36.8398L56.1484 34.4766C57.3203 33.3177 58.3164 32.25 59.1367 31.2734C60.2956 29.8932 60.875 28.0443 60.875 25.7266ZM85.0938 39.1641C85.0938 41.5859 83.9219 42.7969 81.5781 42.7969C80.5365 42.7969 79.026 42.3021 77.0469 41.3125C74.8594 40.2188 73.0234 39.6719 71.5391 39.6719C68.349 39.6719 65.3411 40.9284 62.5156 43.4414C61.1615 44.6523 60.1003 46.0781 59.332 47.7188C59.2799 47.5104 59.2539 47.1784 59.2539 46.7227C59.2539 45.1602 59.7227 43.6042 60.6602 42.0547C61.5195 40.6224 62.6328 39.4245 64 38.4609C65.5365 37.3802 67.2878 36.8398 69.2539 36.8398C70.6081 36.8398 71.7865 37.0677 72.7891 37.5234C73.3229 37.7708 74.3516 38.4089 75.875 39.4375C77.1771 40.3229 78.1732 40.7656 78.8633 40.7656C80.582 40.7656 81.9492 40.056 82.9648 38.6367C83.4076 38.0247 83.6289 37.4258 83.6289 36.8398C83.6289 35.8112 83.3164 34.9518 82.6914 34.2617C82.0664 33.5586 81.2461 33.207 80.2305 33.207C79.293 33.207 77.75 33.6823 75.6016 34.6328C73.4531 35.5703 71.9102 36.0391 70.9727 36.0391C70.2826 36.0391 69.4492 35.694 68.4727 35.0039C66.4414 33.5586 65.4258 32.2109 65.4258 30.9609C65.4258 30.2708 65.8099 29.6393 66.5781 29.0664C67.2682 28.5326 67.9779 28.2331 68.707 28.168L68.7461 27.9531L67.7891 26.6055C67.2552 25.8503 66.9883 25.0365 66.9883 24.1641C66.9883 21.1693 69.4362 19.6719 74.332 19.6719C74.4753 19.6458 74.5729 19.5286 74.625 19.3203V17.1523H64.5078V14.8086H84.5859V17.1523H77.6523V20.4336C77.6523 21.0456 77.8281 21.4232 78.1797 21.5664C78.401 21.5664 78.681 21.3646 79.0195 20.9609L79.7617 20.0625C79.957 19.8672 80.3086 19.737 80.8164 19.6719C81.6367 19.6719 82.418 20.1406 83.1602 21.0781C83.4987 21.5078 83.7201 21.9375 83.8242 22.3672L81.7734 24.7109C81.7474 24.112 81.6237 23.5651 81.4023 23.0703C81.1029 22.4062 80.7122 22.0742 80.2305 22.0742C80.0482 22.0742 79.8333 22.1589 79.5859 22.3281C79.3385 22.4974 79.2148 22.6667 79.2148 22.8359C79.2148 23.0312 79.2995 23.2656 79.4688 23.5391C79.6641 23.8646 79.7747 24.0664 79.8008 24.1445C79.8919 24.444 79.9375 24.8216 79.9375 25.2773C79.9375 27.0352 79.2214 28.2266 77.7891 28.8516C76.8385 29.2682 75.3411 29.4766 73.2969 29.4766C70.6927 29.4766 68.9154 30.056 67.9648 31.2148C67.5872 31.6706 67.4049 32.0417 67.418 32.3281C67.431 32.7188 67.6263 33.0638 68.0039 33.3633C68.3815 33.6497 68.7721 33.793 69.1758 33.793C69.918 33.793 71.3438 33.2786 73.4531 32.25C75.9401 31.0391 77.9453 30.4206 79.4688 30.3945C80.862 30.3685 82.0339 30.987 82.9844 32.25C83.7526 33.2526 84.306 34.5286 84.6445 36.0781C84.944 37.4453 85.0938 38.474 85.0938 39.1641ZM77.4961 23.4805C77.4961 21.9049 76.6562 21.1172 74.9766 21.1172C73.6224 21.1172 72.3398 21.5924 71.1289 22.543C69.8268 23.5586 69.1758 24.724 69.1758 26.0391C69.1758 26.7552 69.4492 27.3672 69.9961 27.875C70.556 28.3828 71.194 28.6367 71.9102 28.6367C72.6523 28.6497 73.4922 28.3828 74.4297 27.8359C75.263 27.3542 75.9531 26.7943 76.5 26.1562C77.1641 25.375 77.4961 24.4831 77.4961 23.4805ZM103.355 17.1523H90.3477V20.2773C90.3997 20.2773 90.4518 20.3034 90.5039 20.3555C90.556 20.4076 90.6016 20.4336 90.6406 20.4336C90.5365 20.4336 90.4779 20.4271 90.4648 20.4141C90.4648 20.349 91.4349 20.1406 93.375 19.7891C94.0911 19.6589 94.8008 19.5938 95.5039 19.5938C98.4336 19.5938 100.315 20.4141 101.148 22.0547C101.708 23.1484 101.988 25.3555 101.988 28.6758V36.1953C101.715 36.0911 100.68 35.668 98.8828 34.9258C98.8828 34.5091 98.7982 34.2422 98.6289 34.125C97.9388 34.5286 97.3724 34.8346 96.9297 35.043C95.5234 35.707 93.8893 36.0391 92.0273 36.0391C89.4622 36.0391 87.4831 35.2318 86.0898 33.6172C85.4128 32.8359 85.0742 31.9635 85.0742 31C85.0742 29.9193 85.6081 28.8451 86.6758 27.7773C88.7461 25.707 91.3177 24.6719 94.3906 24.6719C96.2526 24.6719 97.75 25.1016 98.8828 25.9609V24.1641C98.3099 23.4349 97.75 22.9466 97.2031 22.6992C96.6693 22.4518 95.9336 22.3411 94.9961 22.3672C92.8997 22.4062 90.9792 22.7904 89.2344 23.5195C88.4531 23.8451 87.6914 24.138 86.9492 24.3984V22.9531C87.1185 22.8099 87.3659 22.5951 87.6914 22.3086C87.7435 22.2435 87.776 22.2044 87.7891 22.1914V17.1523H83.7852V14.8086H103.355V17.1523ZM98.8828 29.5156C98.8828 28.9427 98.1992 28.4284 96.832 27.9727C95.6992 27.5951 94.7552 27.4062 94 27.4062C91.2526 27.4062 89.0521 28.3958 87.3984 30.375C86.7344 31.1693 86.4023 31.8203 86.4023 32.3281C86.6758 33.2786 87.75 33.7539 89.625 33.7539C92.0469 33.7539 94.2604 33.1484 96.2656 31.9375C98.0104 30.8828 98.8828 30.0755 98.8828 29.5156ZM111.93 17.1523H109.859V14.8086H111.93V17.1523ZM105.25 17.1523H103.023V14.8086H105.25V17.1523ZM109.215 12.4453V36.4883C109.085 36.4492 108.915 36.3776 108.707 36.2734L107.691 35.7461C106.533 35.1471 105.921 34.8477 105.855 34.8477V12.4844C105.855 11.1172 105.589 9.66536 105.055 8.12891C104.312 5.98047 103.16 4.02734 101.598 2.26953L100.367 0.882812H104.527C106.689 3.04427 108.108 5.69401 108.785 8.83203C109.072 10.1602 109.215 11.3646 109.215 12.4453ZM132.457 17.1523H128.062V22.5234C128.062 22.6406 128.583 23.2201 129.625 24.2617C130.419 25.2253 130.816 26.6055 130.816 28.4023C130.816 31.3841 129.495 33.5911 126.852 35.0234C125.602 35.7005 124.241 36.0391 122.77 36.0391C120.634 36.0391 118.434 35.0951 116.168 33.207C113.798 31.2279 112.613 29.0794 112.613 26.7617C112.613 25.694 112.997 24.5872 113.766 23.4414C114.456 22.4128 115.289 21.5599 116.266 20.8828C117.438 20.0755 118.85 19.6719 120.504 19.6719C121.415 19.6719 122.763 19.9128 124.547 20.3945C124.625 20.3945 124.664 20.3424 124.664 20.2383V17.1523H111.266V14.8086H132.457V17.1523ZM127.945 25.8047C127.945 23.9688 127.138 22.7383 125.523 22.1133C124.924 21.8789 124.41 21.7617 123.98 21.7617C122.366 21.7617 120.628 22.4844 118.766 23.9297C116.591 25.6224 115.504 27.7773 115.504 30.3945C115.504 31.6185 116.207 32.6211 117.613 33.4023C118.251 33.7539 118.896 33.9297 119.547 33.9297C121.161 33.9297 122.932 33.1484 124.859 31.5859C126.917 29.9193 127.945 27.9922 127.945 25.8047ZM151.676 17.1523H131.93V14.8086H151.676V17.1523ZM150.055 24.1641C150.055 24.9323 149.592 25.7982 148.668 26.7617C147.887 27.582 147.066 28.194 146.207 28.5977L143.277 25.2773C144.163 25.1992 145.003 24.8737 145.797 24.3008C146.708 23.6497 147.164 22.9076 147.164 22.0742C147.164 21.6315 146.878 21.2539 146.305 20.9414C145.81 20.6549 145.322 20.5117 144.84 20.5117C143.837 20.5117 142.763 20.9935 141.617 21.957C139.286 23.9102 138.121 26.0716 138.121 28.4414V36.7227L134.371 34.7695V20.3164H138.16V21.8008C138.72 21.2409 139.879 20.6549 141.637 20.043C142.496 19.7435 143.382 19.5938 144.293 19.5938C146.181 19.5938 147.783 20.3164 149.098 21.7617C149.736 22.4648 150.055 23.2656 150.055 24.1641ZM171.91 17.1523H166.578V21C167.19 21.1432 167.633 21.319 167.906 21.5273V23.832C166.357 23.2982 164.742 23.0312 163.062 23.0312C161.852 23.0312 160.68 23.2331 159.547 23.6367C158.036 24.1706 157.275 24.9323 157.262 25.9219C157.236 26.9635 158.714 27.4844 161.695 27.4844C161.76 27.4844 162.184 27.4648 162.965 27.4258L164.137 27.3672V29.1641C162.366 29.2161 161.259 29.2617 160.816 29.3008C157.704 29.5742 156.148 30.4727 156.148 31.9961C156.148 32.8424 156.689 33.5065 157.77 33.9883C158.616 34.3659 159.527 34.5547 160.504 34.5547C164.736 34.5547 168.16 32.6797 170.777 28.9297V33.8711C168.538 35.2904 165.888 36 162.828 36C159.482 36 156.591 35.2253 154.156 33.6758C152.971 32.9206 152.379 32.0547 152.379 31.0781C152.379 30.1276 152.796 29.3008 153.629 28.5977C154.137 28.168 154.977 27.6732 156.148 27.1133L154.859 26.3711C154.091 25.9284 153.707 25.3359 153.707 24.5938C153.707 22.9792 154.924 21.8203 157.359 21.1172C159.208 20.5833 161.285 20.3164 163.59 20.3164V17.1523H151.07V14.8086H171.91V17.1523Z" fill="#BE0E20"/>
<path d="M39.7177 58.2C40.3177 59.4667 41.0777 60.5733 41.9977 61.52C42.9177 62.4667 43.8311 63.08 44.7377 63.36C44.7377 63.92 44.5911 64.3533 44.2977 64.66C44.0044 64.9667 43.5844 65.12 43.0377 65.12C42.3311 65.12 41.5244 64.6667 40.6177 63.76C39.7111 62.84 38.9177 61.76 38.2377 60.52C37.5711 59.2667 37.1777 58.1667 37.0577 57.22C38.0177 57.22 38.8044 56.9667 39.4177 56.46C40.0444 55.94 40.3577 55.2067 40.3577 54.26C40.3577 53.06 39.6111 52.46 38.1177 52.46C37.6377 52.46 37.0511 52.54 36.3577 52.7C36.2644 54.5 36.2177 55.9533 36.2177 57.06C36.2177 60.6067 36.3577 63.1733 36.6377 64.76C36.2111 64.92 35.7577 65 35.2777 65C34.7977 65 34.3777 64.8467 34.0177 64.54C33.6711 64.2333 33.4977 63.8267 33.4977 63.32C33.4977 62.8133 33.5644 61.9333 33.6977 60.68C33.8311 59.4133 33.8977 58.4 33.8977 57.64C33.8977 55.3067 33.7311 53.2333 33.3977 51.42C35.1977 50.9267 36.9111 50.68 38.5377 50.68C41.5111 50.68 42.9977 51.74 42.9977 53.86C42.9977 54.7933 42.6777 55.6733 42.0377 56.5C41.4111 57.3133 40.6377 57.88 39.7177 58.2ZM47.7716 60.46C47.7716 61.42 47.925 62.18 48.2316 62.74C48.5383 63.2867 49.0516 63.56 49.7716 63.56C50.4916 63.56 51.0516 63.32 51.4516 62.84C51.865 62.3467 52.0716 61.7533 52.0716 61.06C52.525 61.06 52.9183 61.1733 53.2516 61.4C53.585 61.6267 53.7516 61.94 53.7516 62.34C53.7516 63.1667 53.3116 63.86 52.4316 64.42C51.5516 64.9667 50.625 65.24 49.6516 65.24C48.1316 65.24 47.0316 64.8333 46.3516 64.02C45.6716 63.1933 45.3316 61.9733 45.3316 60.36C45.3316 58.7467 45.785 57.3933 46.6916 56.3C47.6116 55.1933 48.8316 54.64 50.3516 54.64C51.3916 54.64 52.225 54.88 52.8516 55.36C53.4916 55.8267 53.8116 56.56 53.8116 57.56C53.8116 58.5467 53.3583 59.2933 52.4516 59.8C51.5583 60.2933 50.465 60.54 49.1716 60.54C48.7183 60.54 48.2516 60.5133 47.7716 60.46ZM47.7916 58.88C48.1916 58.96 48.6116 59 49.0516 59C50.0116 59 50.8183 58.82 51.4716 58.46C51.5516 58.14 51.5916 57.8867 51.5916 57.7C51.5916 57.2333 51.425 56.88 51.0916 56.64C50.7583 56.4 50.2983 56.28 49.7116 56.28C49.1383 56.28 48.6183 56.4667 48.1516 56.84C47.9116 57.5333 47.7916 58.2133 47.7916 58.88ZM62.4982 56.78C61.7915 56.5667 61.0915 56.46 60.3982 56.46C59.7049 56.46 59.0515 56.6667 58.4382 57.08C57.9582 58.04 57.7182 59.06 57.7182 60.14C57.7182 60.7667 57.8049 61.38 57.9782 61.98C58.1515 62.5667 58.4382 62.86 58.8382 62.86C59.2915 62.86 59.8982 62.2133 60.6582 60.92C61.4182 59.6267 62.0315 58.2467 62.4982 56.78ZM59.4982 68.28C60.3515 68.28 61.0182 67.9867 61.4982 67.4C61.9782 66.8133 62.2182 66.06 62.2182 65.14C62.2182 64.6867 62.1849 64.0267 62.1182 63.16C62.0649 62.2933 62.0315 61.68 62.0182 61.32C61.0715 62.9733 60.2449 63.9867 59.5382 64.36C59.1782 64.5467 58.7982 64.64 58.3982 64.64C57.3982 64.64 56.6249 64.2467 56.0782 63.46C55.5315 62.6733 55.2582 61.7133 55.2582 60.58C55.2582 59.0333 55.7382 57.68 56.6982 56.52C57.6715 55.3467 58.8982 54.76 60.3782 54.76C61.8715 54.76 63.3782 55.02 64.8982 55.54C64.4982 56.9667 64.2982 58.3667 64.2982 59.74C64.2982 60.3933 64.3449 61.2067 64.4382 62.18C64.5315 63.14 64.5782 63.8533 64.5782 64.32C64.5782 65.96 64.0582 67.3133 63.0182 68.38C61.9782 69.46 60.6449 70 59.0182 70C58.0582 70 57.2315 69.8133 56.5382 69.44C55.8582 69.08 55.5182 68.5133 55.5182 67.74C55.5182 67.26 55.6982 66.8533 56.0582 66.52C56.4182 66.1867 56.8449 66.02 57.3382 66.02C57.4449 66.02 57.5782 66.0333 57.7382 66.06C57.6982 66.2333 57.6782 66.3867 57.6782 66.52C57.6782 67 57.8582 67.4133 58.2182 67.76C58.5782 68.1067 59.0049 68.28 59.4982 68.28ZM66.8134 55.06C67.24 54.94 67.6667 54.88 68.0934 54.88C68.5334 54.88 68.9067 55.0133 69.2134 55.28C69.52 55.5467 69.6734 55.8933 69.6734 56.32C69.6734 56.7333 69.6 57.46 69.4534 58.5C69.32 59.5267 69.2534 60.3267 69.2534 60.9C69.2534 62.3933 69.3934 63.68 69.6734 64.76C69.26 64.92 68.8134 65 68.3334 65C67.8534 65 67.4734 64.8933 67.1934 64.68C66.9134 64.4533 66.7734 64.1333 66.7734 63.72C66.7734 63.2933 66.8534 62.6 67.0134 61.64C67.1734 60.68 67.2534 59.8867 67.2534 59.26C67.2534 57.5933 67.1067 56.1933 66.8134 55.06ZM67.0734 50.54C67.54 50.3267 68 50.22 68.4534 50.22C68.9067 50.22 69.24 50.34 69.4534 50.58C69.68 50.8067 69.7934 51.1467 69.7934 51.6C69.7934 52.0533 69.64 52.4533 69.3334 52.8C69.04 53.1467 68.6534 53.32 68.1734 53.32C67.1867 53.32 66.6934 52.8067 66.6934 51.78C66.6934 51.3267 66.82 50.9133 67.0734 50.54ZM73.611 61.36C73.571 61.5467 73.551 61.7 73.551 61.82C73.551 62.3667 73.711 62.7867 74.031 63.08C74.3643 63.3733 74.8043 63.52 75.351 63.52C75.911 63.52 76.371 63.42 76.731 63.22C77.1043 63.0067 77.291 62.6933 77.291 62.28C77.291 61.8667 77.091 61.54 76.691 61.3C76.3043 61.0467 75.831 60.8467 75.271 60.7C74.7243 60.5533 74.171 60.3933 73.611 60.22C73.051 60.0333 72.571 59.7467 72.171 59.36C71.7843 58.9733 71.591 58.4867 71.591 57.9C71.591 56.98 72.0777 56.2067 73.051 55.58C74.0243 54.9533 75.0443 54.64 76.111 54.64C77.2843 54.64 78.1777 54.88 78.791 55.36C79.151 55.64 79.331 56.0133 79.331 56.48C79.331 56.9333 79.151 57.3067 78.791 57.6C78.4443 57.88 78.0177 58.02 77.511 58.02C77.4043 58.02 77.271 58.0067 77.111 57.98C77.151 57.8067 77.171 57.6533 77.171 57.52C77.171 57.1333 77.0243 56.84 76.731 56.64C76.4377 56.44 76.0377 56.34 75.531 56.34C75.0377 56.34 74.5843 56.44 74.171 56.64C74.011 56.8533 73.931 57.1267 73.931 57.46C73.931 57.7933 74.1243 58.0667 74.511 58.28C74.8977 58.48 75.3643 58.66 75.911 58.82C76.471 58.9667 77.031 59.14 77.591 59.34C78.151 59.5267 78.6243 59.8267 79.011 60.24C79.3977 60.64 79.591 61.1467 79.591 61.76C79.591 62.76 79.091 63.5933 78.091 64.26C77.1043 64.9133 76.0843 65.24 75.031 65.24C73.9777 65.24 73.1043 65.0533 72.411 64.68C71.731 64.2933 71.391 63.7133 71.391 62.94C71.391 62.46 71.5643 62.0733 71.911 61.78C72.271 61.4733 72.7043 61.32 73.211 61.32C73.3177 61.32 73.451 61.3333 73.611 61.36ZM81.7126 51.94C82.1392 51.7267 82.5726 51.62 83.0126 51.62C83.4526 51.62 83.8059 51.76 84.0726 52.04C84.3526 52.32 84.4926 52.7333 84.4926 53.28C84.4926 53.8267 84.4592 54.4467 84.3926 55.14C85.3926 55.14 86.3459 55 87.2526 54.72C87.4126 54.9867 87.4926 55.3 87.4926 55.66C87.4926 56.0067 87.3326 56.2933 87.0126 56.52C86.7059 56.7333 86.3926 56.84 86.0726 56.84C85.7526 56.84 85.3926 56.8 84.9926 56.72C84.5926 56.64 84.3326 56.5933 84.2126 56.58C84.1992 56.7 84.1592 56.94 84.0926 57.3C84.0392 57.66 83.9926 57.9733 83.9526 58.24C83.8459 58.9733 83.7926 59.76 83.7926 60.6C83.7926 62.4267 84.3859 63.34 85.5726 63.34C86.0126 63.34 86.5192 63.1867 87.0926 62.88C87.2659 63.1333 87.3526 63.46 87.3526 63.86C87.3526 64.26 87.1326 64.5733 86.6926 64.8C86.2659 65.0133 85.7526 65.12 85.1526 65.12C82.8059 65.12 81.6326 63.7867 81.6326 61.12C81.6326 60.7333 81.6859 60.0333 81.7926 59.02C81.9126 58.0067 81.9726 57.1867 81.9726 56.56C81.3326 56.6 80.8192 56.7133 80.4326 56.9C80.2726 56.66 80.1926 56.3867 80.1926 56.08C80.1926 55.76 80.3059 55.5 80.5326 55.3C80.7592 55.0867 81.0392 54.98 81.3726 54.98C81.7059 54.98 81.9259 54.9867 82.0326 55C82.0459 54.8933 82.0526 54.7533 82.0526 54.58C82.0526 53.58 81.9392 52.7 81.7126 51.94ZM91.7632 64.76C91.3499 64.92 90.9099 65 90.4432 65C89.9765 65 89.5965 64.8933 89.3032 64.68C89.0232 64.4533 88.8832 64.1467 88.8832 63.76C88.8832 63.36 88.9432 62.64 89.0632 61.6C89.1832 60.56 89.2432 59.5533 89.2432 58.58C89.2432 57.5933 89.0899 56.44 88.7832 55.12C89.2099 54.96 89.6299 54.88 90.0432 54.88C90.4565 54.88 90.8099 55.02 91.1032 55.3C91.4099 55.58 91.5632 55.9533 91.5632 56.42C91.5632 56.66 91.5232 57.02 91.4432 57.5C91.3632 57.9667 91.3165 58.32 91.3032 58.56C91.8232 57.3733 92.4365 56.4467 93.1432 55.78C93.8632 55.1 94.5765 54.76 95.2832 54.76C95.7765 54.76 96.1699 54.9333 96.4632 55.28C96.7565 55.6267 96.9032 56.0667 96.9032 56.6C96.9032 57.12 96.7699 57.5467 96.5032 57.88C96.2365 58.2 95.9032 58.36 95.5032 58.36C95.1165 58.36 94.8032 58.32 94.5632 58.24C94.6032 58.08 94.6232 57.9333 94.6232 57.8C94.6232 57.2533 94.4299 56.98 94.0432 56.98C93.4565 56.98 92.9032 57.5733 92.3832 58.76C91.8765 59.9333 91.5365 61.0333 91.3632 62.06C91.4299 63.06 91.5632 63.96 91.7632 64.76ZM107.104 55.58C106.744 57.1133 106.564 58.6533 106.564 60.2C106.564 61.7333 106.737 63.2533 107.084 64.76C106.604 64.92 106.11 65 105.604 65C105.097 65 104.744 64.8533 104.544 64.56C104.344 64.2533 104.244 63.82 104.244 63.26C104.244 62.6867 104.33 61.9067 104.504 60.92C103.557 62.9467 102.644 64.2267 101.764 64.76C101.364 65 100.95 65.12 100.524 65.12C99.5105 65.12 98.7238 64.7467 98.1638 64C97.6038 63.24 97.3238 62.3 97.3238 61.18C97.3238 59.4733 97.7972 57.98 98.7438 56.7C99.6905 55.4067 100.917 54.76 102.424 54.76C103.944 54.76 105.504 55.0333 107.104 55.58ZM104.484 56.78C103.777 56.5667 103.177 56.46 102.684 56.46C101.684 56.46 100.937 56.68 100.444 57.12C99.9905 58.24 99.7638 59.38 99.7638 60.54C99.7638 61.1533 99.8572 61.7733 100.044 62.4C100.244 63.0267 100.544 63.34 100.944 63.34C101.41 63.34 102.01 62.6533 102.744 61.28C103.477 59.9067 104.057 58.4067 104.484 56.78ZM109.642 51.94C110.069 51.7267 110.502 51.62 110.942 51.62C111.382 51.62 111.736 51.76 112.002 52.04C112.282 52.32 112.422 52.7333 112.422 53.28C112.422 53.8267 112.389 54.4467 112.322 55.14C113.322 55.14 114.276 55 115.182 54.72C115.342 54.9867 115.422 55.3 115.422 55.66C115.422 56.0067 115.262 56.2933 114.942 56.52C114.636 56.7333 114.322 56.84 114.002 56.84C113.682 56.84 113.322 56.8 112.922 56.72C112.522 56.64 112.262 56.5933 112.142 56.58C112.129 56.7 112.089 56.94 112.022 57.3C111.969 57.66 111.922 57.9733 111.882 58.24C111.776 58.9733 111.722 59.76 111.722 60.6C111.722 62.4267 112.316 63.34 113.502 63.34C113.942 63.34 114.449 63.1867 115.022 62.88C115.196 63.1333 115.282 63.46 115.282 63.86C115.282 64.26 115.062 64.5733 114.622 64.8C114.196 65.0133 113.682 65.12 113.082 65.12C110.736 65.12 109.562 63.7867 109.562 61.12C109.562 60.7333 109.616 60.0333 109.722 59.02C109.842 58.0067 109.902 57.1867 109.902 56.56C109.262 56.6 108.749 56.7133 108.362 56.9C108.202 56.66 108.122 56.3867 108.122 56.08C108.122 55.76 108.236 55.5 108.462 55.3C108.689 55.0867 108.969 54.98 109.302 54.98C109.636 54.98 109.856 54.9867 109.962 55C109.976 54.8933 109.982 54.7533 109.982 54.58C109.982 53.58 109.869 52.7 109.642 51.94ZM116.833 55.06C117.26 54.94 117.686 54.88 118.113 54.88C118.553 54.88 118.926 55.0133 119.233 55.28C119.54 55.5467 119.693 55.8933 119.693 56.32C119.693 56.7333 119.62 57.46 119.473 58.5C119.34 59.5267 119.273 60.3267 119.273 60.9C119.273 62.3933 119.413 63.68 119.693 64.76C119.28 64.92 118.833 65 118.353 65C117.873 65 117.493 64.8933 117.213 64.68C116.933 64.4533 116.793 64.1333 116.793 63.72C116.793 63.2933 116.873 62.6 117.033 61.64C117.193 60.68 117.273 59.8867 117.273 59.26C117.273 57.5933 117.126 56.1933 116.833 55.06ZM117.093 50.54C117.56 50.3267 118.02 50.22 118.473 50.22C118.926 50.22 119.26 50.34 119.473 50.58C119.7 50.8067 119.813 51.1467 119.813 51.6C119.813 52.0533 119.66 52.4533 119.353 52.8C119.06 53.1467 118.673 53.32 118.193 53.32C117.206 53.32 116.713 52.8067 116.713 51.78C116.713 51.3267 116.84 50.9133 117.093 50.54ZM125.491 65.24C124.024 65.24 122.944 64.8133 122.251 63.96C121.557 63.0933 121.211 61.8933 121.211 60.36C121.211 58.8133 121.671 57.4733 122.591 56.34C123.511 55.2067 124.691 54.64 126.131 54.64C129.091 54.64 130.571 56.3067 130.571 59.64C130.571 61.2 130.091 62.5267 129.131 63.62C128.171 64.7 126.957 65.24 125.491 65.24ZM124.051 56.84C123.811 57.6133 123.691 58.3867 123.691 59.16C123.691 59.9333 123.717 60.5333 123.771 60.96C123.824 61.3867 123.924 61.8133 124.071 62.24C124.377 63.1067 124.977 63.54 125.871 63.54C126.777 63.54 127.371 63.3 127.651 62.82C127.944 62.34 128.091 61.6 128.091 60.6C128.091 57.76 127.417 56.34 126.071 56.34C125.297 56.34 124.624 56.5067 124.051 56.84ZM141.464 56.92L141.264 61.32C141.264 62.5333 141.45 63.72 141.824 64.88C141.45 65.04 141.024 65.12 140.544 65.12C139.41 65.12 138.844 64.4867 138.844 63.22C138.844 62.6467 138.917 61.6867 139.064 60.34C139.21 58.98 139.284 58.1267 139.284 57.78C139.284 57.1133 138.984 56.78 138.384 56.78C137.944 56.78 137.444 57.1 136.884 57.74C136.337 58.3667 135.864 59.0733 135.464 59.86C135.077 60.6333 134.85 61.2733 134.784 61.78C134.837 62.82 134.97 63.8133 135.184 64.76C134.757 64.92 134.31 65 133.844 65C133.39 65 133.017 64.8933 132.724 64.68C132.444 64.4533 132.304 64.1467 132.304 63.76C132.304 63.36 132.364 62.6533 132.484 61.64C132.604 60.6133 132.664 59.6 132.664 58.6C132.664 57.5867 132.51 56.4267 132.204 55.12C132.63 54.96 133.084 54.88 133.564 54.88C134.044 54.88 134.43 55.02 134.724 55.3C135.03 55.58 135.184 55.9267 135.184 56.34C135.184 56.7533 135.13 57.4133 135.024 58.32C135.53 57.3733 136.19 56.5467 137.004 55.84C137.817 55.12 138.63 54.76 139.444 54.76C140.79 54.76 141.464 55.48 141.464 56.92Z" fill="#BE0E20"/>
</g>
<defs>
<clipPath id="clip0_1116_397">
<rect width="172" height="70" fill="white"/>
</clipPath>
</defs>
</svg>
