<svg width="323" height="102" viewBox="0 0 323 102" fill="none" xmlns="http://www.w3.org/2000/svg">
<path d="M46.2138 31.4733H19.0217V44.8188C21.0015 42.362 23.3629 40.2391 26.106 38.4502C27.9665 37.2337 29.827 36.6255 31.6875 36.6255C35.4562 36.6255 38.6286 38.0685 41.2047 40.9547C43.5661 43.6024 44.7468 46.4766 44.7468 49.5774C44.7468 53.1553 43.0175 56.7929 39.5589 60.49C36.1002 64.1633 32.5939 66 29.0399 66C27.2271 66 25.3188 65.189 23.3152 63.567C22.695 63.0661 21.1685 61.5753 18.7355 59.0947V66.4293L12.51 63.7459V31.4733H6.64221V27.1798H12.51C12.51 21.5029 10.9238 15.9333 7.75136 10.471C5.24683 6.15369 2.84964 2.99321 0.559783 0.989585H8.39538C10.7568 2.99321 12.82 5.53352 14.5851 8.61051C17.5429 13.7865 19.0217 19.9763 19.0217 27.1798H46.2138V31.4733ZM40.7754 53.2627C40.7754 51.0444 39.535 48.6472 37.0543 46.0711C34.2874 43.1849 31.0793 41.7418 27.4298 41.7418C25.1399 41.7418 22.9932 42.8748 20.9896 45.1409C20.2024 46.0473 19.8089 46.7271 19.8089 47.1803C19.8089 49.16 20.6914 51.4499 22.4565 54.0498C26.1775 59.5359 30.0178 62.279 33.9774 62.279C36.4819 62.279 38.4378 60.6689 39.8451 57.4488C40.4653 56.0415 40.7754 54.6461 40.7754 53.2627ZM80.8836 31.4733H57.0548V37.1979C57.1502 37.1979 57.2456 37.2456 57.341 37.341C57.4364 37.4364 57.5199 37.4841 57.5915 37.4841C57.4007 37.4841 57.2933 37.4722 57.2695 37.4484C57.2695 37.3291 59.0465 36.9475 62.6005 36.3034C63.9124 36.0649 65.2124 35.9457 66.5005 35.9457C71.8673 35.9457 75.314 37.4484 76.8406 40.4538C77.8662 42.4574 78.3791 46.5005 78.3791 52.5829V66.3578C77.8782 66.167 75.9819 65.3918 72.6902 64.0322C72.6902 63.2689 72.5352 62.7799 72.2251 62.5652C70.9609 63.3046 69.9233 63.8652 69.1123 64.2468C66.5362 65.4633 63.5427 66.0716 60.1318 66.0716C55.4328 66.0716 51.8072 64.5927 49.255 61.635C48.0146 60.2038 47.3945 58.6057 47.3945 56.8406C47.3945 54.8608 48.3724 52.893 50.3284 50.937C54.1209 47.1445 58.8318 45.2482 64.461 45.2482C67.872 45.2482 70.615 46.0353 72.6902 47.6096V44.3179C71.6407 42.9822 70.615 42.0877 69.6132 41.6345C68.6353 41.1813 67.2876 40.9786 65.5702 41.0263C61.7299 41.0978 58.2117 41.8015 55.0154 43.1372C53.5842 43.7335 52.1889 44.2702 50.8293 44.7473V42.0996C51.1393 41.8373 51.5925 41.4437 52.1889 40.9189C52.2843 40.7997 52.3439 40.7281 52.3678 40.7043V31.4733H45.0331V27.1798H80.8836V31.4733ZM72.6902 54.1214C72.6902 53.0719 71.438 52.1297 68.9334 51.2948C66.8582 50.6031 65.1289 50.2572 63.7455 50.2572C58.7126 50.2572 54.6815 52.07 51.6522 55.6957C50.4357 57.1507 49.8274 58.3433 49.8274 59.2736C50.3284 61.0148 52.2962 61.8854 55.731 61.8854C60.1676 61.8854 64.2225 60.7763 67.8958 58.558C71.0921 56.6259 72.6902 55.147 72.6902 54.1214ZM118.881 31.4733H80.4185V27.1798H118.881V31.4733ZM111.188 47.1803C111.188 41.4556 108.481 38.5933 103.067 38.5933C99.0593 38.5933 95.708 40.6923 93.0127 44.8904C90.6274 48.6114 89.4348 52.571 89.4348 56.769V67.1807L83.567 64.1037V37.1979H89.721V41.4556L92.9053 39.0584C95.72 36.9355 98.6896 35.8741 101.814 35.8741C106.06 35.8741 109.578 37.5199 112.369 40.8116C114.993 43.9124 116.305 47.6215 116.305 51.9389C116.305 57.3534 114.015 62.5533 109.435 67.5385L102.53 63.2092C104.677 61.0864 106.501 59.1304 108.004 57.3415C110.127 54.8131 111.188 51.426 111.188 47.1803ZM155.554 71.7962C155.554 76.2328 153.408 78.4511 149.114 78.4511C147.206 78.4511 144.439 77.5447 140.813 75.7319C136.806 73.7283 133.443 72.7264 130.724 72.7264C124.88 72.7264 119.37 75.0282 114.194 79.6318C111.713 81.8501 109.769 84.462 108.362 87.4674C108.266 87.0857 108.219 86.4775 108.219 85.6427C108.219 82.7803 109.077 79.93 110.795 77.0915C112.369 74.4677 114.409 72.2732 116.913 70.5082C119.728 68.5284 122.936 67.5385 126.538 67.5385C129.018 67.5385 131.177 67.9559 133.014 68.7908C133.992 69.244 135.876 70.4127 138.667 72.2971C141.052 73.9191 142.877 74.7301 144.141 74.7301C147.289 74.7301 149.794 73.4301 151.654 70.8302C152.465 69.7091 152.871 68.6119 152.871 67.5385C152.871 65.6541 152.298 64.0799 151.154 62.8157C150.009 61.5276 148.506 60.8836 146.645 60.8836C144.928 60.8836 142.101 61.7542 138.166 63.4955C134.23 65.2129 131.404 66.0716 129.686 66.0716C128.422 66.0716 126.895 65.4395 125.106 64.1753C121.385 61.5276 119.525 59.0589 119.525 56.769C119.525 55.5048 120.229 54.348 121.636 53.2985C122.9 52.3205 124.2 51.7719 125.536 51.6526L125.607 51.2591L123.854 48.7903C122.876 47.4069 122.387 45.9161 122.387 44.3179C122.387 38.8318 126.872 36.0888 135.84 36.0888C136.103 36.0411 136.281 35.8264 136.377 35.4447V31.4733H117.843V27.1798H154.624V31.4733H141.923V37.4841C141.923 38.6052 142.245 39.297 142.889 39.5593C143.294 39.5593 143.807 39.1896 144.427 38.4502L145.787 36.8043C146.144 36.4466 146.788 36.208 147.719 36.0888C149.221 36.0888 150.653 36.9475 152.012 38.6649C152.632 39.452 153.038 40.2391 153.229 41.0263L149.472 45.3197C149.424 44.2225 149.198 43.2207 148.792 42.3143C148.244 41.0978 147.528 40.4896 146.645 40.4896C146.311 40.4896 145.918 40.6446 145.465 40.9547C145.011 41.2648 144.785 41.5749 144.785 41.885C144.785 42.2428 144.94 42.6721 145.25 43.173C145.608 43.7693 145.811 44.139 145.858 44.2822C146.025 44.8308 146.109 45.5225 146.109 46.3573C146.109 49.5774 144.797 51.76 142.173 52.9049C140.432 53.6682 137.689 54.0498 133.944 54.0498C129.173 54.0498 125.917 55.1113 124.176 57.2341C123.484 58.069 123.151 58.7488 123.174 59.2736C123.198 59.9891 123.556 60.6212 124.248 61.1698C124.939 61.6946 125.655 61.957 126.394 61.957C127.754 61.957 130.366 61.0148 134.23 59.1304C138.786 56.9121 142.459 55.7791 145.25 55.7314C147.802 55.6837 149.949 56.8167 151.69 59.1304C153.098 60.9671 154.111 63.3046 154.731 66.1431C155.28 68.6476 155.554 70.532 155.554 71.7962ZM141.636 43.0657C141.636 40.1795 140.098 38.7364 137.021 38.7364C134.54 38.7364 132.191 39.607 129.972 41.3483C127.587 43.2088 126.394 45.3436 126.394 47.7527C126.394 49.0646 126.895 50.1857 127.897 51.1159C128.923 52.0462 130.092 52.5113 131.404 52.5113C132.763 52.5352 134.302 52.0462 136.019 51.0444C137.546 50.1618 138.81 49.1362 139.812 47.9674C141.028 46.5362 141.636 44.9023 141.636 43.0657ZM189.008 31.4733H165.179V37.1979C165.274 37.1979 165.37 37.2456 165.465 37.341C165.561 37.4364 165.644 37.4841 165.716 37.4841C165.525 37.4841 165.417 37.4722 165.394 37.4484C165.394 37.3291 167.171 36.9475 170.725 36.3034C172.037 36.0649 173.337 35.9457 174.625 35.9457C179.991 35.9457 183.438 37.4484 184.965 40.4538C185.99 42.4574 186.503 46.5005 186.503 52.5829V66.3578C186.002 66.167 184.106 65.3918 180.814 64.0322C180.814 63.2689 180.659 62.7799 180.349 62.5652C179.085 63.3046 178.047 63.8652 177.236 64.2468C174.66 65.4633 171.667 66.0716 168.256 66.0716C163.557 66.0716 159.931 64.5927 157.379 61.635C156.139 60.2038 155.519 58.6057 155.519 56.8406C155.519 54.8608 156.497 52.893 158.452 50.937C162.245 47.1445 166.956 45.2482 172.585 45.2482C175.996 45.2482 178.739 46.0353 180.814 47.6096V44.3179C179.765 42.9822 178.739 42.0877 177.737 41.6345C176.759 41.1813 175.412 40.9786 173.694 41.0263C169.854 41.0978 166.336 41.8015 163.139 43.1372C161.708 43.7335 160.313 44.2702 158.953 44.7473V42.0996C159.263 41.8373 159.717 41.4437 160.313 40.9189C160.408 40.7997 160.468 40.7281 160.492 40.7043V31.4733H153.157V27.1798H189.008V31.4733ZM180.814 54.1214C180.814 53.0719 179.562 52.1297 177.058 51.2948C174.982 50.6031 173.253 50.2572 171.87 50.2572C166.837 50.2572 162.806 52.07 159.776 55.6957C158.56 57.1507 157.952 58.3433 157.952 59.2736C158.452 61.0148 160.42 61.8854 163.855 61.8854C168.292 61.8854 172.347 60.7763 176.02 58.558C179.216 56.6259 180.814 55.147 180.814 54.1214ZM204.715 31.4733H200.922V27.1798H204.715V31.4733ZM192.478 31.4733H188.399V27.1798H192.478V31.4733ZM199.741 22.8505V66.8945C199.503 66.8229 199.193 66.6917 198.811 66.5009L196.951 65.5349C194.828 64.4377 193.707 63.889 193.587 63.889V22.9221C193.587 20.4176 193.098 17.758 192.12 14.9434C190.761 11.0077 188.65 7.4298 185.788 4.20969L183.534 1.66939H191.154C195.114 5.62893 197.714 10.4829 198.954 16.2314C199.479 18.6644 199.741 20.8708 199.741 22.8505ZM242.318 31.4733H234.268V41.3125C234.268 41.5272 235.222 42.5886 237.13 44.4968C238.585 46.2619 239.313 48.7903 239.313 52.082C239.313 57.5442 236.892 61.5873 232.05 64.2111C229.76 65.4514 227.267 66.0716 224.572 66.0716C220.66 66.0716 216.629 64.3422 212.479 60.8836C208.138 57.258 205.967 53.3223 205.967 49.0765C205.967 47.1206 206.671 45.0931 208.078 42.9941C209.342 41.1098 210.869 39.5474 212.658 38.3071C214.804 36.8282 217.392 36.0888 220.422 36.0888C222.091 36.0888 224.56 36.53 227.828 37.4126C227.971 37.4126 228.043 37.3172 228.043 37.1264V31.4733H203.498V27.1798H242.318V31.4733ZM234.053 47.3234C234.053 43.9601 232.575 41.7061 229.617 40.5611C228.52 40.1318 227.577 39.9171 226.79 39.9171C223.833 39.9171 220.648 41.2409 217.237 43.8886C213.254 46.9894 211.262 50.937 211.262 55.7314C211.262 57.9736 212.55 59.8102 215.126 61.2414C216.295 61.8854 217.476 62.2074 218.668 62.2074C221.626 62.2074 224.87 60.7763 228.4 57.9139C232.169 54.8608 234.053 51.3306 234.053 47.3234ZM277.525 31.4733H241.352V27.1798H277.525V31.4733ZM274.555 44.3179C274.555 45.7252 273.708 47.3114 272.015 49.0765C270.584 50.5793 269.081 51.7003 267.507 52.4398L262.14 46.3573C263.762 46.2142 265.3 45.6179 266.755 44.5684C268.425 43.3758 269.26 42.0162 269.26 40.4896C269.26 39.6786 268.735 38.9869 267.686 38.4144C266.779 37.8896 265.885 37.6273 265.002 37.6273C263.166 37.6273 261.198 38.5098 259.099 40.2749C254.829 43.8528 252.694 47.8123 252.694 52.1535V67.3238L245.825 63.7459V37.2695H252.766V39.9887C253.792 38.963 255.914 37.8896 259.135 36.7686C260.709 36.22 262.331 35.9457 264 35.9457C267.459 35.9457 270.393 37.2695 272.802 39.9171C273.971 41.2052 274.555 42.6721 274.555 44.3179ZM314.592 31.4733H304.824V38.5217C305.945 38.7841 306.756 39.1061 307.257 39.4878V43.7097C304.419 42.7317 301.461 42.2428 298.384 42.2428C296.166 42.2428 294.019 42.6125 291.944 43.3519C289.177 44.3299 287.782 45.7252 287.758 47.538C287.71 49.4463 290.417 50.4004 295.88 50.4004C295.999 50.4004 296.774 50.3646 298.205 50.293L300.352 50.1857V53.4774C297.108 53.5728 295.08 53.6563 294.269 53.7278C288.569 54.2287 285.718 55.8745 285.718 58.6653C285.718 60.2157 286.708 61.4322 288.688 62.3148C290.238 63.0065 291.908 63.3524 293.697 63.3524C301.449 63.3524 307.722 59.9176 312.517 53.048V62.1001C308.414 64.7 303.56 66 297.955 66C291.825 66 286.529 64.5808 282.069 61.7423C279.898 60.3588 278.813 58.7726 278.813 56.9837C278.813 55.2425 279.576 53.7278 281.103 52.4398C282.033 51.6526 283.572 50.7462 285.718 49.7206L283.357 48.361C281.95 47.55 281.246 46.4647 281.246 45.1051C281.246 42.1473 283.476 40.0245 287.937 38.7364C291.324 37.7585 295.128 37.2695 299.35 37.2695V31.4733H276.416V27.1798H314.592V31.4733Z" fill="#BE0E20"/>
<path d="M192.048 87.84C192.768 89.36 193.68 90.688 194.784 91.824C195.888 92.96 196.984 93.696 198.072 94.032C198.072 94.704 197.896 95.224 197.544 95.592C197.192 95.96 196.688 96.144 196.032 96.144C195.184 96.144 194.216 95.6 193.128 94.512C192.04 93.408 191.088 92.112 190.272 90.624C189.472 89.12 189 87.8 188.856 86.664C190.008 86.664 190.952 86.36 191.688 85.752C192.44 85.128 192.816 84.248 192.816 83.112C192.816 81.672 191.92 80.952 190.128 80.952C189.552 80.952 188.848 81.048 188.016 81.24C187.904 83.4 187.848 85.144 187.848 86.472C187.848 90.728 188.016 93.808 188.352 95.712C187.84 95.904 187.296 96 186.72 96C186.144 96 185.64 95.816 185.208 95.448C184.792 95.08 184.584 94.592 184.584 93.984C184.584 93.376 184.664 92.32 184.824 90.816C184.984 89.296 185.064 88.08 185.064 87.168C185.064 84.368 184.864 81.88 184.464 79.704C186.624 79.112 188.68 78.816 190.632 78.816C194.2 78.816 195.984 80.088 195.984 82.632C195.984 83.752 195.6 84.808 194.832 85.8C194.08 86.776 193.152 87.456 192.048 87.84ZM201.713 90.552C201.713 91.704 201.897 92.616 202.265 93.288C202.633 93.944 203.249 94.272 204.113 94.272C204.977 94.272 205.649 93.984 206.129 93.408C206.625 92.816 206.873 92.104 206.873 91.272C207.417 91.272 207.889 91.408 208.289 91.68C208.689 91.952 208.889 92.328 208.889 92.808C208.889 93.8 208.361 94.632 207.305 95.304C206.249 95.96 205.137 96.288 203.969 96.288C202.145 96.288 200.825 95.8 200.009 94.824C199.193 93.832 198.785 92.368 198.785 90.432C198.785 88.496 199.329 86.872 200.417 85.56C201.521 84.232 202.985 83.568 204.809 83.568C206.057 83.568 207.057 83.856 207.809 84.432C208.577 84.992 208.961 85.872 208.961 87.072C208.961 88.256 208.417 89.152 207.329 89.76C206.257 90.352 204.945 90.648 203.393 90.648C202.849 90.648 202.289 90.616 201.713 90.552ZM201.737 88.656C202.217 88.752 202.721 88.8 203.249 88.8C204.401 88.8 205.369 88.584 206.153 88.152C206.249 87.768 206.297 87.464 206.297 87.24C206.297 86.68 206.097 86.256 205.697 85.968C205.297 85.68 204.745 85.536 204.041 85.536C203.353 85.536 202.729 85.76 202.169 86.208C201.881 87.04 201.737 87.856 201.737 88.656ZM219.385 86.136C218.537 85.88 217.697 85.752 216.865 85.752C216.033 85.752 215.249 86 214.513 86.496C213.937 87.648 213.649 88.872 213.649 90.168C213.649 90.92 213.753 91.656 213.961 92.376C214.169 93.08 214.513 93.432 214.993 93.432C215.537 93.432 216.265 92.656 217.177 91.104C218.089 89.552 218.825 87.896 219.385 86.136ZM215.785 99.936C216.809 99.936 217.609 99.584 218.185 98.88C218.761 98.176 219.049 97.272 219.049 96.168C219.049 95.624 219.009 94.832 218.929 93.792C218.865 92.752 218.825 92.016 218.809 91.584C217.673 93.568 216.681 94.784 215.833 95.232C215.401 95.456 214.945 95.568 214.465 95.568C213.265 95.568 212.337 95.096 211.681 94.152C211.025 93.208 210.697 92.056 210.697 90.696C210.697 88.84 211.273 87.216 212.425 85.824C213.593 84.416 215.065 83.712 216.841 83.712C218.633 83.712 220.441 84.024 222.265 84.648C221.785 86.36 221.545 88.04 221.545 89.688C221.545 90.472 221.601 91.448 221.713 92.616C221.825 93.768 221.881 94.624 221.881 95.184C221.881 97.152 221.257 98.776 220.009 100.056C218.761 101.352 217.161 102 215.209 102C214.057 102 213.065 101.776 212.233 101.328C211.417 100.896 211.009 100.216 211.009 99.288C211.009 98.712 211.225 98.224 211.657 97.824C212.089 97.424 212.601 97.224 213.193 97.224C213.321 97.224 213.481 97.24 213.673 97.272C213.625 97.48 213.601 97.664 213.601 97.824C213.601 98.4 213.817 98.896 214.249 99.312C214.681 99.728 215.193 99.936 215.785 99.936ZM224.563 84.072C225.075 83.928 225.587 83.856 226.099 83.856C226.627 83.856 227.075 84.016 227.443 84.336C227.811 84.656 227.995 85.072 227.995 85.584C227.995 86.08 227.907 86.952 227.731 88.2C227.571 89.432 227.491 90.392 227.491 91.08C227.491 92.872 227.659 94.416 227.995 95.712C227.499 95.904 226.963 96 226.387 96C225.811 96 225.355 95.872 225.019 95.616C224.683 95.344 224.515 94.96 224.515 94.464C224.515 93.952 224.611 93.12 224.803 91.968C224.995 90.816 225.091 89.864 225.091 89.112C225.091 87.112 224.915 85.432 224.563 84.072ZM224.875 78.648C225.435 78.392 225.987 78.264 226.531 78.264C227.075 78.264 227.475 78.408 227.731 78.696C228.003 78.968 228.139 79.376 228.139 79.92C228.139 80.464 227.955 80.944 227.587 81.36C227.235 81.776 226.771 81.984 226.195 81.984C225.011 81.984 224.419 81.368 224.419 80.136C224.419 79.592 224.571 79.096 224.875 78.648ZM232.72 91.632C232.672 91.856 232.648 92.04 232.648 92.184C232.648 92.84 232.84 93.344 233.224 93.696C233.624 94.048 234.152 94.224 234.808 94.224C235.48 94.224 236.032 94.104 236.464 93.864C236.912 93.608 237.136 93.232 237.136 92.736C237.136 92.24 236.896 91.848 236.416 91.56C235.952 91.256 235.384 91.016 234.712 90.84C234.056 90.664 233.392 90.472 232.72 90.264C232.048 90.04 231.472 89.696 230.992 89.232C230.528 88.768 230.296 88.184 230.296 87.48C230.296 86.376 230.88 85.448 232.048 84.696C233.216 83.944 234.44 83.568 235.72 83.568C237.128 83.568 238.2 83.856 238.936 84.432C239.368 84.768 239.584 85.216 239.584 85.776C239.584 86.32 239.368 86.768 238.936 87.12C238.52 87.456 238.008 87.624 237.4 87.624C237.272 87.624 237.112 87.608 236.92 87.576C236.968 87.368 236.992 87.184 236.992 87.024C236.992 86.56 236.816 86.208 236.464 85.968C236.112 85.728 235.632 85.608 235.024 85.608C234.432 85.608 233.888 85.728 233.392 85.968C233.2 86.224 233.104 86.552 233.104 86.952C233.104 87.352 233.336 87.68 233.8 87.936C234.264 88.176 234.824 88.392 235.48 88.584C236.152 88.76 236.824 88.968 237.496 89.208C238.168 89.432 238.736 89.792 239.2 90.288C239.664 90.768 239.896 91.376 239.896 92.112C239.896 93.312 239.296 94.312 238.096 95.112C236.912 95.896 235.688 96.288 234.424 96.288C233.16 96.288 232.112 96.064 231.28 95.616C230.464 95.152 230.056 94.456 230.056 93.528C230.056 92.952 230.264 92.488 230.68 92.136C231.112 91.768 231.632 91.584 232.24 91.584C232.368 91.584 232.528 91.6 232.72 91.632ZM242.442 80.328C242.954 80.072 243.474 79.944 244.002 79.944C244.53 79.944 244.954 80.112 245.274 80.448C245.61 80.784 245.778 81.28 245.778 81.936C245.778 82.592 245.738 83.336 245.658 84.168C246.858 84.168 248.002 84 249.09 83.664C249.282 83.984 249.378 84.36 249.378 84.792C249.378 85.208 249.186 85.552 248.802 85.824C248.434 86.08 248.058 86.208 247.674 86.208C247.29 86.208 246.858 86.16 246.378 86.064C245.898 85.968 245.586 85.912 245.442 85.896C245.426 86.04 245.378 86.328 245.298 86.76C245.234 87.192 245.178 87.568 245.13 87.888C245.002 88.768 244.938 89.712 244.938 90.72C244.938 92.912 245.65 94.008 247.074 94.008C247.602 94.008 248.21 93.824 248.898 93.456C249.106 93.76 249.21 94.152 249.21 94.632C249.21 95.112 248.946 95.488 248.418 95.76C247.906 96.016 247.29 96.144 246.57 96.144C243.754 96.144 242.346 94.544 242.346 91.344C242.346 90.88 242.41 90.04 242.538 88.824C242.682 87.608 242.754 86.624 242.754 85.872C241.986 85.92 241.37 86.056 240.906 86.28C240.714 85.992 240.618 85.664 240.618 85.296C240.618 84.912 240.754 84.6 241.026 84.36C241.298 84.104 241.634 83.976 242.034 83.976C242.434 83.976 242.698 83.984 242.826 84C242.842 83.872 242.85 83.704 242.85 83.496C242.85 82.296 242.714 81.24 242.442 80.328ZM254.503 95.712C254.007 95.904 253.479 96 252.919 96C252.359 96 251.903 95.872 251.551 95.616C251.215 95.344 251.047 94.976 251.047 94.512C251.047 94.032 251.119 93.168 251.263 91.92C251.407 90.672 251.479 89.464 251.479 88.296C251.479 87.112 251.295 85.728 250.927 84.144C251.439 83.952 251.943 83.856 252.439 83.856C252.935 83.856 253.359 84.024 253.711 84.36C254.079 84.696 254.263 85.144 254.263 85.704C254.263 85.992 254.215 86.424 254.119 87C254.023 87.56 253.967 87.984 253.951 88.272C254.575 86.848 255.311 85.736 256.159 84.936C257.023 84.12 257.879 83.712 258.727 83.712C259.319 83.712 259.791 83.92 260.143 84.336C260.495 84.752 260.671 85.28 260.671 85.92C260.671 86.544 260.511 87.056 260.191 87.456C259.871 87.84 259.471 88.032 258.991 88.032C258.527 88.032 258.151 87.984 257.863 87.888C257.911 87.696 257.935 87.52 257.935 87.36C257.935 86.704 257.703 86.376 257.239 86.376C256.535 86.376 255.871 87.088 255.247 88.512C254.639 89.92 254.231 91.24 254.023 92.472C254.103 93.672 254.263 94.752 254.503 95.712ZM272.911 84.696C272.479 86.536 272.263 88.384 272.263 90.24C272.263 92.08 272.471 93.904 272.887 95.712C272.311 95.904 271.719 96 271.111 96C270.503 96 270.079 95.824 269.839 95.472C269.599 95.104 269.479 94.584 269.479 93.912C269.479 93.224 269.583 92.288 269.791 91.104C268.655 93.536 267.559 95.072 266.503 95.712C266.023 96 265.527 96.144 265.015 96.144C263.799 96.144 262.855 95.696 262.183 94.8C261.511 93.888 261.175 92.76 261.175 91.416C261.175 89.368 261.743 87.576 262.879 86.04C264.015 84.488 265.487 83.712 267.295 83.712C269.119 83.712 270.991 84.04 272.911 84.696ZM269.767 86.136C268.919 85.88 268.199 85.752 267.607 85.752C266.407 85.752 265.511 86.016 264.919 86.544C264.375 87.888 264.103 89.256 264.103 90.648C264.103 91.384 264.215 92.128 264.439 92.88C264.679 93.632 265.039 94.008 265.519 94.008C266.079 94.008 266.799 93.184 267.679 91.536C268.559 89.888 269.255 88.088 269.767 86.136ZM275.957 80.328C276.469 80.072 276.989 79.944 277.517 79.944C278.045 79.944 278.469 80.112 278.789 80.448C279.125 80.784 279.293 81.28 279.293 81.936C279.293 82.592 279.253 83.336 279.173 84.168C280.373 84.168 281.517 84 282.605 83.664C282.797 83.984 282.893 84.36 282.893 84.792C282.893 85.208 282.701 85.552 282.317 85.824C281.949 86.08 281.573 86.208 281.189 86.208C280.805 86.208 280.373 86.16 279.893 86.064C279.413 85.968 279.101 85.912 278.957 85.896C278.941 86.04 278.893 86.328 278.813 86.76C278.749 87.192 278.693 87.568 278.645 87.888C278.517 88.768 278.453 89.712 278.453 90.72C278.453 92.912 279.165 94.008 280.589 94.008C281.117 94.008 281.725 93.824 282.413 93.456C282.621 93.76 282.725 94.152 282.725 94.632C282.725 95.112 282.461 95.488 281.933 95.76C281.421 96.016 280.805 96.144 280.085 96.144C277.269 96.144 275.861 94.544 275.861 91.344C275.861 90.88 275.925 90.04 276.053 88.824C276.197 87.608 276.269 86.624 276.269 85.872C275.501 85.92 274.885 86.056 274.421 86.28C274.229 85.992 274.133 85.664 274.133 85.296C274.133 84.912 274.269 84.6 274.541 84.36C274.813 84.104 275.149 83.976 275.549 83.976C275.949 83.976 276.213 83.984 276.341 84C276.357 83.872 276.365 83.704 276.365 83.496C276.365 82.296 276.229 81.24 275.957 80.328ZM284.586 84.072C285.098 83.928 285.61 83.856 286.122 83.856C286.65 83.856 287.098 84.016 287.466 84.336C287.834 84.656 288.018 85.072 288.018 85.584C288.018 86.08 287.93 86.952 287.754 88.2C287.594 89.432 287.514 90.392 287.514 91.08C287.514 92.872 287.682 94.416 288.018 95.712C287.522 95.904 286.986 96 286.41 96C285.834 96 285.378 95.872 285.042 95.616C284.706 95.344 284.538 94.96 284.538 94.464C284.538 93.952 284.634 93.12 284.826 91.968C285.018 90.816 285.114 89.864 285.114 89.112C285.114 87.112 284.938 85.432 284.586 84.072ZM284.898 78.648C285.458 78.392 286.01 78.264 286.554 78.264C287.098 78.264 287.498 78.408 287.754 78.696C288.026 78.968 288.162 79.376 288.162 79.92C288.162 80.464 287.978 80.944 287.61 81.36C287.258 81.776 286.794 81.984 286.218 81.984C285.034 81.984 284.442 81.368 284.442 80.136C284.442 79.592 284.594 79.096 284.898 78.648ZM294.975 96.288C293.215 96.288 291.919 95.776 291.087 94.752C290.255 93.712 289.839 92.272 289.839 90.432C289.839 88.576 290.391 86.968 291.495 85.608C292.599 84.248 294.015 83.568 295.743 83.568C299.295 83.568 301.071 85.568 301.071 89.568C301.071 91.44 300.495 93.032 299.343 94.344C298.191 95.64 296.735 96.288 294.975 96.288ZM293.247 86.208C292.959 87.136 292.815 88.064 292.815 88.992C292.815 89.92 292.847 90.64 292.911 91.152C292.975 91.664 293.095 92.176 293.271 92.688C293.639 93.728 294.359 94.248 295.431 94.248C296.519 94.248 297.231 93.96 297.567 93.384C297.919 92.808 298.095 91.92 298.095 90.72C298.095 87.312 297.287 85.608 295.671 85.608C294.743 85.608 293.935 85.808 293.247 86.208ZM314.143 86.304L313.903 91.584C313.903 93.04 314.127 94.464 314.575 95.856C314.127 96.048 313.615 96.144 313.039 96.144C311.679 96.144 310.999 95.384 310.999 93.864C310.999 93.176 311.087 92.024 311.263 90.408C311.439 88.776 311.527 87.752 311.527 87.336C311.527 86.536 311.167 86.136 310.447 86.136C309.919 86.136 309.319 86.52 308.647 87.288C307.991 88.04 307.423 88.888 306.943 89.832C306.479 90.76 306.207 91.528 306.127 92.136C306.191 93.384 306.351 94.576 306.607 95.712C306.095 95.904 305.559 96 304.999 96C304.455 96 304.007 95.872 303.655 95.616C303.319 95.344 303.151 94.976 303.151 94.512C303.151 94.032 303.223 93.184 303.367 91.968C303.511 90.736 303.583 89.52 303.583 88.32C303.583 87.104 303.399 85.712 303.031 84.144C303.543 83.952 304.087 83.856 304.663 83.856C305.239 83.856 305.703 84.024 306.055 84.36C306.423 84.696 306.607 85.112 306.607 85.608C306.607 86.104 306.543 86.896 306.415 87.984C307.023 86.848 307.815 85.856 308.791 85.008C309.767 84.144 310.743 83.712 311.719 83.712C313.335 83.712 314.143 84.576 314.143 86.304Z" fill="#BE0E20"/>
</svg>
