<svg width="458" height="130" viewBox="0 0 458 130" fill="none" xmlns="http://www.w3.org/2000/svg">
<path d="M50.6406 41.7656H40.8438V54.8438C42.9062 56.75 44.1562 57.9844 44.5938 58.5469C45.375 59.5469 46.1719 61.0938 46.9844 63.1875H40.75C40.75 59.7812 39.7812 57.125 37.8438 55.2188C35.9375 53.3125 33.2812 52.3594 29.875 52.3594C26.3125 52.3594 22.9844 53.3438 19.8906 55.3125C16.9219 57.1875 14.5312 59.7188 12.7188 62.9062C11 65.9375 10.1406 68.875 10.1406 71.7188C10.1406 75.0625 11.3438 77.6094 13.75 79.3594C15.875 80.9219 18.6719 81.7031 22.1406 81.7031C27.9219 81.7031 31.9531 80.1094 34.2344 76.9219H44.2188C43.375 80.2969 40.2656 83.1406 34.8906 85.4531C32.4844 86.4844 30.25 87 28.1875 87C24.1562 87 20.0938 85.8594 16 83.5781C12.0938 81.4219 8.875 78.6562 6.34375 75.2812C3.8125 71.875 2.54688 68.5156 2.54688 65.2031C2.54688 62.7031 3.65625 59.875 5.875 56.7188C10.5312 50.0938 16.2031 46.7812 22.8906 46.7812C27.2969 46.7812 30.7812 47.7031 33.3438 49.5469V41.7656H0.25V36.1406H50.6406V41.7656ZM101.406 41.7656H63.5781V55.875C66.9844 52.1562 70.1406 49.7656 73.0469 48.7031C74.6719 48.1094 76.5 47.8125 78.5312 47.8125C86.1562 47.8125 91.8594 51.5625 95.6406 59.0625C97.2969 62.3438 98.125 65.5781 98.125 68.7656C98.125 74.5781 95.7344 79.8281 90.9531 84.5156C89.3594 86.0781 88.1719 87.1562 87.3906 87.75L79.7031 83.1562C81.6406 81.125 83.8438 78.625 86.3125 75.6562C89.0938 72.3125 90.5 68.0938 90.5312 63C90.5625 59.9688 89.875 57.4375 88.4688 55.4062C86.875 53.0312 84.625 51.875 81.7188 51.9375C79.0312 52 76.1562 53.0156 73.0938 54.9844C70.3438 56.7344 68.0625 58.8281 66.25 61.2656C64.2812 63.8906 63.2969 66.4219 63.2969 68.8594V87.4688L54.5312 82.7812V41.7656H49.375V36.1406H54.5312C54.5312 26.9531 52.1406 19.1094 47.3594 12.6094C44.4844 8.70313 41.8281 5.95312 39.3906 4.35938L48.8594 4.26562C54.1094 7.14062 58.2812 13.3438 61.375 22.875C62.8438 27.4063 63.5781 31.8281 63.5781 36.1406H101.406V41.7656ZM146.734 41.7656H115.516V49.2656C115.641 49.2656 115.766 49.3281 115.891 49.4531C116.016 49.5781 116.125 49.6406 116.219 49.6406C115.969 49.6406 115.828 49.625 115.797 49.5938C115.797 49.4375 118.125 48.9375 122.781 48.0938C124.5 47.7812 126.203 47.625 127.891 47.625C134.922 47.625 139.438 49.5938 141.438 53.5312C142.781 56.1562 143.453 61.4531 143.453 69.4219V87.4688C142.797 87.2188 140.312 86.2031 136 84.4219C136 83.4219 135.797 82.7812 135.391 82.5C133.734 83.4688 132.375 84.2031 131.312 84.7031C127.938 86.2969 124.016 87.0938 119.547 87.0938C113.391 87.0938 108.641 85.1562 105.297 81.2812C103.672 79.4062 102.859 77.3125 102.859 75C102.859 72.4062 104.141 69.8281 106.703 67.2656C111.672 62.2969 117.844 59.8125 125.219 59.8125C129.688 59.8125 133.281 60.8438 136 62.9062V58.5938C134.625 56.8438 133.281 55.6719 131.969 55.0781C130.688 54.4844 128.922 54.2188 126.672 54.2812C121.641 54.375 117.031 55.2969 112.844 57.0469C110.969 57.8281 109.141 58.5312 107.359 59.1562V55.6875C107.766 55.3438 108.359 54.8281 109.141 54.1406C109.266 53.9844 109.344 53.8906 109.375 53.8594V41.7656H99.7656V36.1406H146.734V41.7656ZM136 71.4375C136 70.0625 134.359 68.8281 131.078 67.7344C128.359 66.8281 126.094 66.375 124.281 66.375C117.688 66.375 112.406 68.75 108.438 73.5C106.844 75.4062 106.047 76.9688 106.047 78.1875C106.703 80.4688 109.281 81.6094 113.781 81.6094C119.594 81.6094 124.906 80.1562 129.719 77.25C133.906 74.7188 136 72.7812 136 71.4375ZM196.516 41.7656H146.125V36.1406H196.516V41.7656ZM186.438 62.3438C186.438 54.8438 182.891 51.0938 175.797 51.0938C170.547 51.0938 166.156 53.8438 162.625 59.3438C159.5 64.2188 157.938 69.4062 157.938 74.9062V88.5469L150.25 84.5156V49.2656H158.312V54.8438L162.484 51.7031C166.172 48.9219 170.062 47.5312 174.156 47.5312C179.719 47.5312 184.328 49.6875 187.984 54C191.422 58.0625 193.141 62.9219 193.141 68.5781C193.141 75.6719 190.141 82.4844 184.141 89.0156L175.094 83.3438C177.906 80.5625 180.297 78 182.266 75.6562C185.047 72.3438 186.438 67.9062 186.438 62.3438ZM249.766 41.7656H243.625L243.531 87.5625L235 83.9062V77.2031C229.938 83.7344 224.969 87 220.094 87C217 87 213.625 85.7031 209.969 83.1094C206.844 80.8906 204.25 78.2969 202.188 75.3281C199.75 71.8281 198.547 68.4219 198.578 65.1094C198.609 62.0781 200.281 58.5625 203.594 54.5625C207.312 50.0625 211.797 47.8125 217.047 47.8125C220.391 47.8125 223.75 49.2344 227.125 52.0781C228.156 52.9219 230.781 55.6406 235 60.2344V41.7656H194.875V36.1406H235C235 29.6719 234.453 24.6094 233.359 20.9531C231.734 15.5156 228.109 9.04688 222.484 1.54688C222.359 1.48438 222.297 1.23437 222.297 0.796875C222.297 0.421875 222.391 0.171875 222.578 0.046875H231.531C239.594 8.95312 243.625 20.9844 243.625 36.1406H249.766V41.7656ZM232.75 63.0938C232.75 60.6562 231.422 58.5625 228.766 56.8125C226.391 55.25 223.922 54.4688 221.359 54.4688C219.484 54.4688 217.141 55.3438 214.328 57.0938C208.203 60.9062 205.141 65.4062 205.141 70.5938C205.141 73.4375 205.906 75.9062 207.438 78C209.125 80.3438 211.328 81.5156 214.047 81.5156C216.859 81.5156 219.859 80.2344 223.047 77.6719C225.266 75.8906 227.328 73.7031 229.234 71.1094C231.578 67.9219 232.75 65.25 232.75 63.0938ZM264.906 31.2188C264.781 31.3438 264.422 31.4062 263.828 31.4062C263.328 31.4062 262.891 31.3438 262.516 31.2188L259.469 24.9844C258.219 23.0156 256.516 21.6875 254.359 21C252.234 20.2813 250.922 19.5 250.422 18.6562C249.953 17.2187 249.047 15.0156 247.703 12.0469V10.9688H249.531C251.938 11.7188 253.891 12.4219 255.391 13.0781C257.859 14.1719 259.516 15.4375 260.359 16.875C260.828 17.6563 261.547 19.6562 262.516 22.875C263.422 25.9063 264.188 28.0156 264.812 29.2031C264.875 29.7656 264.906 30.4375 264.906 31.2188ZM267.672 41.7656H248.594V36.1406H267.672V41.7656ZM262.328 88.0781L254.453 83.7188V47.5312H262.328V88.0781ZM316.094 94.5938C316.094 100.406 313.281 103.312 307.656 103.312C305.156 103.312 301.531 102.125 296.781 99.75C291.531 97.125 287.125 95.8125 283.562 95.8125C275.906 95.8125 268.688 98.8281 261.906 104.859C258.656 107.766 256.109 111.188 254.266 115.125C254.141 114.625 254.078 113.828 254.078 112.734C254.078 108.984 255.203 105.25 257.453 101.531C259.516 98.0938 262.188 95.2188 265.469 92.9062C269.156 90.3125 273.359 89.0156 278.078 89.0156C281.328 89.0156 284.156 89.5625 286.562 90.6562C287.844 91.25 290.312 92.7812 293.969 95.25C297.094 97.375 299.484 98.4375 301.141 98.4375C305.266 98.4375 308.547 96.7344 310.984 93.3281C312.047 91.8594 312.578 90.4219 312.578 89.0156C312.578 86.5469 311.828 84.4844 310.328 82.8281C308.828 81.1406 306.859 80.2969 304.422 80.2969C302.172 80.2969 298.469 81.4375 293.312 83.7188C288.156 85.9688 284.453 87.0938 282.203 87.0938C280.547 87.0938 278.547 86.2656 276.203 84.6094C271.328 81.1406 268.891 77.9062 268.891 74.9062C268.891 73.25 269.812 71.7344 271.656 70.3594C273.312 69.0781 275.016 68.3594 276.766 68.2031L276.859 67.6875L274.562 64.4531C273.281 62.6406 272.641 60.6875 272.641 58.5938C272.641 51.4062 278.516 47.8125 290.266 47.8125C290.609 47.75 290.844 47.4688 290.969 46.9688V41.7656H266.688V36.1406H314.875V41.7656H298.234V49.6406C298.234 51.1094 298.656 52.0156 299.5 52.3594C300.031 52.3594 300.703 51.875 301.516 50.9062L303.297 48.75C303.766 48.2812 304.609 47.9688 305.828 47.8125C307.797 47.8125 309.672 48.9375 311.453 51.1875C312.266 52.2188 312.797 53.25 313.047 54.2812L308.125 59.9062C308.062 58.4688 307.766 57.1562 307.234 55.9688C306.516 54.375 305.578 53.5781 304.422 53.5781C303.984 53.5781 303.469 53.7812 302.875 54.1875C302.281 54.5938 301.984 55 301.984 55.4062C301.984 55.875 302.188 56.4375 302.594 57.0938C303.062 57.875 303.328 58.3594 303.391 58.5469C303.609 59.2656 303.719 60.1719 303.719 61.2656C303.719 65.4844 302 68.3438 298.562 69.8438C296.281 70.8438 292.688 71.3438 287.781 71.3438C281.531 71.3438 277.266 72.7344 274.984 75.5156C274.078 76.6094 273.641 77.5 273.672 78.1875C273.703 79.125 274.172 79.9531 275.078 80.6719C275.984 81.3594 276.922 81.7031 277.891 81.7031C279.672 81.7031 283.094 80.4688 288.156 78C294.125 75.0938 298.938 73.6094 302.594 73.5469C305.938 73.4844 308.75 74.9688 311.031 78C312.875 80.4062 314.203 83.4688 315.016 87.1875C315.734 90.4688 316.094 92.9375 316.094 94.5938ZM297.859 56.9531C297.859 53.1719 295.844 51.2812 291.812 51.2812C288.562 51.2812 285.484 52.4219 282.578 54.7031C279.453 57.1406 277.891 59.9375 277.891 63.0938C277.891 64.8125 278.547 66.2812 279.859 67.5C281.203 68.7188 282.734 69.3281 284.453 69.3281C286.234 69.3594 288.25 68.7188 290.5 67.4062C292.5 66.25 294.156 64.9062 295.469 63.375C297.062 61.5 297.859 59.3594 297.859 56.9531ZM359.922 41.7656H328.703V49.2656C328.828 49.2656 328.953 49.3281 329.078 49.4531C329.203 49.5781 329.312 49.6406 329.406 49.6406C329.156 49.6406 329.016 49.625 328.984 49.5938C328.984 49.4375 331.312 48.9375 335.969 48.0938C337.688 47.7812 339.391 47.625 341.078 47.625C348.109 47.625 352.625 49.5938 354.625 53.5312C355.969 56.1562 356.641 61.4531 356.641 69.4219V87.4688C355.984 87.2188 353.5 86.2031 349.188 84.4219C349.188 83.4219 348.984 82.7812 348.578 82.5C346.922 83.4688 345.562 84.2031 344.5 84.7031C341.125 86.2969 337.203 87.0938 332.734 87.0938C326.578 87.0938 321.828 85.1562 318.484 81.2812C316.859 79.4062 316.047 77.3125 316.047 75C316.047 72.4062 317.328 69.8281 319.891 67.2656C324.859 62.2969 331.031 59.8125 338.406 59.8125C342.875 59.8125 346.469 60.8438 349.188 62.9062V58.5938C347.812 56.8438 346.469 55.6719 345.156 55.0781C343.875 54.4844 342.109 54.2188 339.859 54.2812C334.828 54.375 330.219 55.2969 326.031 57.0469C324.156 57.8281 322.328 58.5312 320.547 59.1562V55.6875C320.953 55.3438 321.547 54.8281 322.328 54.1406C322.453 53.9844 322.531 53.8906 322.562 53.8594V41.7656H312.953V36.1406H359.922V41.7656ZM349.188 71.4375C349.188 70.0625 347.547 68.8281 344.266 67.7344C341.547 66.8281 339.281 66.375 337.469 66.375C330.875 66.375 325.594 68.75 321.625 73.5C320.031 75.4062 319.234 76.9688 319.234 78.1875C319.891 80.4688 322.469 81.6094 326.969 81.6094C332.781 81.6094 338.094 80.1562 342.906 77.25C347.094 74.7188 349.188 72.7812 349.188 71.4375ZM406.703 41.7656H359.312V36.1406H406.703V41.7656ZM402.812 58.5938C402.812 60.4375 401.703 62.5156 399.484 64.8281C397.609 66.7969 395.641 68.2656 393.578 69.2344L386.547 61.2656C388.672 61.0781 390.688 60.2969 392.594 58.9219C394.781 57.3594 395.875 55.5781 395.875 53.5781C395.875 52.5156 395.188 51.6094 393.812 50.8594C392.625 50.1719 391.453 49.8281 390.297 49.8281C387.891 49.8281 385.312 50.9844 382.562 53.2969C376.969 57.9844 374.172 63.1719 374.172 68.8594V88.7344L365.172 84.0469V49.3594H374.266V52.9219C375.609 51.5781 378.391 50.1719 382.609 48.7031C384.672 47.9844 386.797 47.625 388.984 47.625C393.516 47.625 397.359 49.3594 400.516 52.8281C402.047 54.5156 402.812 56.4375 402.812 58.5938ZM457.375 41.7656H419.547V55.875C422.953 52.1562 426.109 49.7656 429.016 48.7031C430.641 48.1094 432.469 47.8125 434.5 47.8125C442.125 47.8125 447.828 51.5625 451.609 59.0625C453.266 62.3438 454.094 65.5781 454.094 68.7656C454.094 74.5781 451.703 79.8281 446.922 84.5156C445.328 86.0781 444.141 87.1562 443.359 87.75L435.672 83.1562C437.609 81.125 439.812 78.625 442.281 75.6562C445.062 72.3125 446.469 68.0938 446.5 63C446.531 59.9688 445.844 57.4375 444.438 55.4062C442.844 53.0312 440.594 51.875 437.688 51.9375C435 52 432.125 53.0156 429.062 54.9844C426.312 56.7344 424.031 58.8281 422.219 61.2656C420.25 63.8906 419.266 66.4219 419.266 68.8594V87.4688L410.5 82.7812V41.7656H405.344V36.1406H410.5C410.5 26.9531 408.109 19.1094 403.328 12.6094C400.453 8.70313 397.797 5.95312 395.359 4.35938L404.828 4.26562C410.078 7.14062 414.25 13.3438 417.344 22.875C418.812 27.4063 419.547 31.8281 419.547 36.1406H457.375V41.7656Z" fill="white"/>
<path d="M334.048 115.84C334.768 117.36 335.68 118.688 336.784 119.824C337.888 120.96 338.984 121.696 340.072 122.032C340.072 122.704 339.896 123.224 339.544 123.592C339.192 123.96 338.688 124.144 338.032 124.144C337.184 124.144 336.216 123.6 335.128 122.512C334.04 121.408 333.088 120.112 332.272 118.624C331.472 117.12 331 115.8 330.856 114.664C332.008 114.664 332.952 114.36 333.688 113.752C334.44 113.128 334.816 112.248 334.816 111.112C334.816 109.672 333.92 108.952 332.128 108.952C331.552 108.952 330.848 109.048 330.016 109.24C329.904 111.4 329.848 113.144 329.848 114.472C329.848 118.728 330.016 121.808 330.352 123.712C329.84 123.904 329.296 124 328.72 124C328.144 124 327.64 123.816 327.208 123.448C326.792 123.08 326.584 122.592 326.584 121.984C326.584 121.376 326.664 120.32 326.824 118.816C326.984 117.296 327.064 116.08 327.064 115.168C327.064 112.368 326.864 109.88 326.464 107.704C328.624 107.112 330.68 106.816 332.632 106.816C336.2 106.816 337.984 108.088 337.984 110.632C337.984 111.752 337.6 112.808 336.832 113.8C336.08 114.776 335.152 115.456 334.048 115.84ZM343.713 118.552C343.713 119.704 343.897 120.616 344.265 121.288C344.633 121.944 345.249 122.272 346.113 122.272C346.977 122.272 347.649 121.984 348.129 121.408C348.625 120.816 348.873 120.104 348.873 119.272C349.417 119.272 349.889 119.408 350.289 119.68C350.689 119.952 350.889 120.328 350.889 120.808C350.889 121.8 350.361 122.632 349.305 123.304C348.249 123.96 347.137 124.288 345.969 124.288C344.145 124.288 342.825 123.8 342.009 122.824C341.193 121.832 340.785 120.368 340.785 118.432C340.785 116.496 341.329 114.872 342.417 113.56C343.521 112.232 344.985 111.568 346.809 111.568C348.057 111.568 349.057 111.856 349.809 112.432C350.577 112.992 350.961 113.872 350.961 115.072C350.961 116.256 350.417 117.152 349.329 117.76C348.257 118.352 346.945 118.648 345.393 118.648C344.849 118.648 344.289 118.616 343.713 118.552ZM343.737 116.656C344.217 116.752 344.721 116.8 345.249 116.8C346.401 116.8 347.369 116.584 348.153 116.152C348.249 115.768 348.297 115.464 348.297 115.24C348.297 114.68 348.097 114.256 347.697 113.968C347.297 113.68 346.745 113.536 346.041 113.536C345.353 113.536 344.729 113.76 344.169 114.208C343.881 115.04 343.737 115.856 343.737 116.656ZM361.385 114.136C360.537 113.88 359.697 113.752 358.865 113.752C358.033 113.752 357.249 114 356.513 114.496C355.937 115.648 355.649 116.872 355.649 118.168C355.649 118.92 355.753 119.656 355.961 120.376C356.169 121.08 356.513 121.432 356.993 121.432C357.537 121.432 358.265 120.656 359.177 119.104C360.089 117.552 360.825 115.896 361.385 114.136ZM357.785 127.936C358.809 127.936 359.609 127.584 360.185 126.88C360.761 126.176 361.049 125.272 361.049 124.168C361.049 123.624 361.009 122.832 360.929 121.792C360.865 120.752 360.825 120.016 360.809 119.584C359.673 121.568 358.681 122.784 357.833 123.232C357.401 123.456 356.945 123.568 356.465 123.568C355.265 123.568 354.337 123.096 353.681 122.152C353.025 121.208 352.697 120.056 352.697 118.696C352.697 116.84 353.273 115.216 354.425 113.824C355.593 112.416 357.065 111.712 358.841 111.712C360.633 111.712 362.441 112.024 364.265 112.648C363.785 114.36 363.545 116.04 363.545 117.688C363.545 118.472 363.601 119.448 363.713 120.616C363.825 121.768 363.881 122.624 363.881 123.184C363.881 125.152 363.257 126.776 362.009 128.056C360.761 129.352 359.161 130 357.209 130C356.057 130 355.065 129.776 354.233 129.328C353.417 128.896 353.009 128.216 353.009 127.288C353.009 126.712 353.225 126.224 353.657 125.824C354.089 125.424 354.601 125.224 355.193 125.224C355.321 125.224 355.481 125.24 355.673 125.272C355.625 125.48 355.601 125.664 355.601 125.824C355.601 126.4 355.817 126.896 356.249 127.312C356.681 127.728 357.193 127.936 357.785 127.936ZM366.563 112.072C367.075 111.928 367.587 111.856 368.099 111.856C368.627 111.856 369.075 112.016 369.443 112.336C369.811 112.656 369.995 113.072 369.995 113.584C369.995 114.08 369.907 114.952 369.731 116.2C369.571 117.432 369.491 118.392 369.491 119.08C369.491 120.872 369.659 122.416 369.995 123.712C369.499 123.904 368.963 124 368.387 124C367.811 124 367.355 123.872 367.019 123.616C366.683 123.344 366.515 122.96 366.515 122.464C366.515 121.952 366.611 121.12 366.803 119.968C366.995 118.816 367.091 117.864 367.091 117.112C367.091 115.112 366.915 113.432 366.563 112.072ZM366.875 106.648C367.435 106.392 367.987 106.264 368.531 106.264C369.075 106.264 369.475 106.408 369.731 106.696C370.003 106.968 370.139 107.376 370.139 107.92C370.139 108.464 369.955 108.944 369.587 109.36C369.235 109.776 368.771 109.984 368.195 109.984C367.011 109.984 366.419 109.368 366.419 108.136C366.419 107.592 366.571 107.096 366.875 106.648ZM374.72 119.632C374.672 119.856 374.648 120.04 374.648 120.184C374.648 120.84 374.84 121.344 375.224 121.696C375.624 122.048 376.152 122.224 376.808 122.224C377.48 122.224 378.032 122.104 378.464 121.864C378.912 121.608 379.136 121.232 379.136 120.736C379.136 120.24 378.896 119.848 378.416 119.56C377.952 119.256 377.384 119.016 376.712 118.84C376.056 118.664 375.392 118.472 374.72 118.264C374.048 118.04 373.472 117.696 372.992 117.232C372.528 116.768 372.296 116.184 372.296 115.48C372.296 114.376 372.88 113.448 374.048 112.696C375.216 111.944 376.44 111.568 377.72 111.568C379.128 111.568 380.2 111.856 380.936 112.432C381.368 112.768 381.584 113.216 381.584 113.776C381.584 114.32 381.368 114.768 380.936 115.12C380.52 115.456 380.008 115.624 379.4 115.624C379.272 115.624 379.112 115.608 378.92 115.576C378.968 115.368 378.992 115.184 378.992 115.024C378.992 114.56 378.816 114.208 378.464 113.968C378.112 113.728 377.632 113.608 377.024 113.608C376.432 113.608 375.888 113.728 375.392 113.968C375.2 114.224 375.104 114.552 375.104 114.952C375.104 115.352 375.336 115.68 375.8 115.936C376.264 116.176 376.824 116.392 377.48 116.584C378.152 116.76 378.824 116.968 379.496 117.208C380.168 117.432 380.736 117.792 381.2 118.288C381.664 118.768 381.896 119.376 381.896 120.112C381.896 121.312 381.296 122.312 380.096 123.112C378.912 123.896 377.688 124.288 376.424 124.288C375.16 124.288 374.112 124.064 373.28 123.616C372.464 123.152 372.056 122.456 372.056 121.528C372.056 120.952 372.264 120.488 372.68 120.136C373.112 119.768 373.632 119.584 374.24 119.584C374.368 119.584 374.528 119.6 374.72 119.632ZM384.442 108.328C384.954 108.072 385.474 107.944 386.002 107.944C386.53 107.944 386.954 108.112 387.274 108.448C387.61 108.784 387.778 109.28 387.778 109.936C387.778 110.592 387.738 111.336 387.658 112.168C388.858 112.168 390.002 112 391.09 111.664C391.282 111.984 391.378 112.36 391.378 112.792C391.378 113.208 391.186 113.552 390.802 113.824C390.434 114.08 390.058 114.208 389.674 114.208C389.29 114.208 388.858 114.16 388.378 114.064C387.898 113.968 387.586 113.912 387.442 113.896C387.426 114.04 387.378 114.328 387.298 114.76C387.234 115.192 387.178 115.568 387.13 115.888C387.002 116.768 386.938 117.712 386.938 118.72C386.938 120.912 387.65 122.008 389.074 122.008C389.602 122.008 390.21 121.824 390.898 121.456C391.106 121.76 391.21 122.152 391.21 122.632C391.21 123.112 390.946 123.488 390.418 123.76C389.906 124.016 389.29 124.144 388.57 124.144C385.754 124.144 384.346 122.544 384.346 119.344C384.346 118.88 384.41 118.04 384.538 116.824C384.682 115.608 384.754 114.624 384.754 113.872C383.986 113.92 383.37 114.056 382.906 114.28C382.714 113.992 382.618 113.664 382.618 113.296C382.618 112.912 382.754 112.6 383.026 112.36C383.298 112.104 383.634 111.976 384.034 111.976C384.434 111.976 384.698 111.984 384.826 112C384.842 111.872 384.85 111.704 384.85 111.496C384.85 110.296 384.714 109.24 384.442 108.328ZM396.503 123.712C396.007 123.904 395.479 124 394.919 124C394.359 124 393.903 123.872 393.551 123.616C393.215 123.344 393.047 122.976 393.047 122.512C393.047 122.032 393.119 121.168 393.263 119.92C393.407 118.672 393.479 117.464 393.479 116.296C393.479 115.112 393.295 113.728 392.927 112.144C393.439 111.952 393.943 111.856 394.439 111.856C394.935 111.856 395.359 112.024 395.711 112.36C396.079 112.696 396.263 113.144 396.263 113.704C396.263 113.992 396.215 114.424 396.119 115C396.023 115.56 395.967 115.984 395.951 116.272C396.575 114.848 397.311 113.736 398.159 112.936C399.023 112.12 399.879 111.712 400.727 111.712C401.319 111.712 401.791 111.92 402.143 112.336C402.495 112.752 402.671 113.28 402.671 113.92C402.671 114.544 402.511 115.056 402.191 115.456C401.871 115.84 401.471 116.032 400.991 116.032C400.527 116.032 400.151 115.984 399.863 115.888C399.911 115.696 399.935 115.52 399.935 115.36C399.935 114.704 399.703 114.376 399.239 114.376C398.535 114.376 397.871 115.088 397.247 116.512C396.639 117.92 396.231 119.24 396.023 120.472C396.103 121.672 396.263 122.752 396.503 123.712ZM414.911 112.696C414.479 114.536 414.263 116.384 414.263 118.24C414.263 120.08 414.471 121.904 414.887 123.712C414.311 123.904 413.719 124 413.111 124C412.503 124 412.079 123.824 411.839 123.472C411.599 123.104 411.479 122.584 411.479 121.912C411.479 121.224 411.583 120.288 411.791 119.104C410.655 121.536 409.559 123.072 408.503 123.712C408.023 124 407.527 124.144 407.015 124.144C405.799 124.144 404.855 123.696 404.183 122.8C403.511 121.888 403.175 120.76 403.175 119.416C403.175 117.368 403.743 115.576 404.879 114.04C406.015 112.488 407.487 111.712 409.295 111.712C411.119 111.712 412.991 112.04 414.911 112.696ZM411.767 114.136C410.919 113.88 410.199 113.752 409.607 113.752C408.407 113.752 407.511 114.016 406.919 114.544C406.375 115.888 406.103 117.256 406.103 118.648C406.103 119.384 406.215 120.128 406.439 120.88C406.679 121.632 407.039 122.008 407.519 122.008C408.079 122.008 408.799 121.184 409.679 119.536C410.559 117.888 411.255 116.088 411.767 114.136ZM417.957 108.328C418.469 108.072 418.989 107.944 419.517 107.944C420.045 107.944 420.469 108.112 420.789 108.448C421.125 108.784 421.293 109.28 421.293 109.936C421.293 110.592 421.253 111.336 421.173 112.168C422.373 112.168 423.517 112 424.605 111.664C424.797 111.984 424.893 112.36 424.893 112.792C424.893 113.208 424.701 113.552 424.317 113.824C423.949 114.08 423.573 114.208 423.189 114.208C422.805 114.208 422.373 114.16 421.893 114.064C421.413 113.968 421.101 113.912 420.957 113.896C420.941 114.04 420.893 114.328 420.813 114.76C420.749 115.192 420.693 115.568 420.645 115.888C420.517 116.768 420.453 117.712 420.453 118.72C420.453 120.912 421.165 122.008 422.589 122.008C423.117 122.008 423.725 121.824 424.413 121.456C424.621 121.76 424.725 122.152 424.725 122.632C424.725 123.112 424.461 123.488 423.933 123.76C423.421 124.016 422.805 124.144 422.085 124.144C419.269 124.144 417.861 122.544 417.861 119.344C417.861 118.88 417.925 118.04 418.053 116.824C418.197 115.608 418.269 114.624 418.269 113.872C417.501 113.92 416.885 114.056 416.421 114.28C416.229 113.992 416.133 113.664 416.133 113.296C416.133 112.912 416.269 112.6 416.541 112.36C416.813 112.104 417.149 111.976 417.549 111.976C417.949 111.976 418.213 111.984 418.341 112C418.357 111.872 418.365 111.704 418.365 111.496C418.365 110.296 418.229 109.24 417.957 108.328ZM426.586 112.072C427.098 111.928 427.61 111.856 428.122 111.856C428.65 111.856 429.098 112.016 429.466 112.336C429.834 112.656 430.018 113.072 430.018 113.584C430.018 114.08 429.93 114.952 429.754 116.2C429.594 117.432 429.514 118.392 429.514 119.08C429.514 120.872 429.682 122.416 430.018 123.712C429.522 123.904 428.986 124 428.41 124C427.834 124 427.378 123.872 427.042 123.616C426.706 123.344 426.538 122.96 426.538 122.464C426.538 121.952 426.634 121.12 426.826 119.968C427.018 118.816 427.114 117.864 427.114 117.112C427.114 115.112 426.938 113.432 426.586 112.072ZM426.898 106.648C427.458 106.392 428.01 106.264 428.554 106.264C429.098 106.264 429.498 106.408 429.754 106.696C430.026 106.968 430.162 107.376 430.162 107.92C430.162 108.464 429.978 108.944 429.61 109.36C429.258 109.776 428.794 109.984 428.218 109.984C427.034 109.984 426.442 109.368 426.442 108.136C426.442 107.592 426.594 107.096 426.898 106.648ZM436.975 124.288C435.215 124.288 433.919 123.776 433.087 122.752C432.255 121.712 431.839 120.272 431.839 118.432C431.839 116.576 432.391 114.968 433.495 113.608C434.599 112.248 436.015 111.568 437.743 111.568C441.295 111.568 443.071 113.568 443.071 117.568C443.071 119.44 442.495 121.032 441.343 122.344C440.191 123.64 438.735 124.288 436.975 124.288ZM435.247 114.208C434.959 115.136 434.815 116.064 434.815 116.992C434.815 117.92 434.847 118.64 434.911 119.152C434.975 119.664 435.095 120.176 435.271 120.688C435.639 121.728 436.359 122.248 437.431 122.248C438.519 122.248 439.231 121.96 439.567 121.384C439.919 120.808 440.095 119.92 440.095 118.72C440.095 115.312 439.287 113.608 437.671 113.608C436.743 113.608 435.935 113.808 435.247 114.208ZM456.143 114.304L455.903 119.584C455.903 121.04 456.127 122.464 456.575 123.856C456.127 124.048 455.615 124.144 455.039 124.144C453.679 124.144 452.999 123.384 452.999 121.864C452.999 121.176 453.087 120.024 453.263 118.408C453.439 116.776 453.527 115.752 453.527 115.336C453.527 114.536 453.167 114.136 452.447 114.136C451.919 114.136 451.319 114.52 450.647 115.288C449.991 116.04 449.423 116.888 448.943 117.832C448.479 118.76 448.207 119.528 448.127 120.136C448.191 121.384 448.351 122.576 448.607 123.712C448.095 123.904 447.559 124 446.999 124C446.455 124 446.007 123.872 445.655 123.616C445.319 123.344 445.151 122.976 445.151 122.512C445.151 122.032 445.223 121.184 445.367 119.968C445.511 118.736 445.583 117.52 445.583 116.32C445.583 115.104 445.399 113.712 445.031 112.144C445.543 111.952 446.087 111.856 446.663 111.856C447.239 111.856 447.703 112.024 448.055 112.36C448.423 112.696 448.607 113.112 448.607 113.608C448.607 114.104 448.543 114.896 448.415 115.984C449.023 114.848 449.815 113.856 450.791 113.008C451.767 112.144 452.743 111.712 453.719 111.712C455.335 111.712 456.143 112.576 456.143 114.304Z" fill="white"/>
</svg>
