<svg width="192" height="72" viewBox="0 0 192 72" fill="none" xmlns="http://www.w3.org/2000/svg">
<g clip-path="url(#clip0_1116_403)">
<path d="M21.6836 18.1523H17.6016V23.6016C18.4609 24.3958 18.9818 24.9102 19.1641 25.1445C19.4896 25.5612 19.8216 26.2057 20.1602 27.0781H17.5625C17.5625 25.6589 17.1589 24.5521 16.3516 23.7578C15.5573 22.9635 14.4505 22.5664 13.0312 22.5664C11.5469 22.5664 10.1602 22.9766 8.87109 23.7969C7.63411 24.5781 6.63802 25.6328 5.88281 26.9609C5.16667 28.224 4.80859 29.4479 4.80859 30.6328C4.80859 32.026 5.3099 33.0872 6.3125 33.8164C7.19792 34.4674 8.36328 34.793 9.80859 34.793C12.2174 34.793 13.8971 34.1289 14.8477 32.8008H19.0078C18.6562 34.207 17.3607 35.3919 15.1211 36.3555C14.1185 36.7852 13.1875 37 12.3281 37C10.6484 37 8.95573 36.5247 7.25 35.5742C5.6224 34.6758 4.28125 33.5234 3.22656 32.1172C2.17188 30.6979 1.64453 29.2982 1.64453 27.918C1.64453 26.8763 2.10677 25.6979 3.03125 24.3828C4.97135 21.6224 7.33464 20.2422 10.1211 20.2422C11.957 20.2422 13.4089 20.6263 14.4766 21.3945V18.1523H0.6875V15.8086H21.6836V18.1523ZM42.8359 18.1523H27.0742V24.0312C28.4935 22.4818 29.8086 21.4857 31.0195 21.043C31.6966 20.7956 32.4583 20.6719 33.3047 20.6719C36.4818 20.6719 38.8581 22.2344 40.4336 25.3594C41.1237 26.7266 41.4688 28.0742 41.4688 29.4023C41.4688 31.8242 40.4727 34.0117 38.4805 35.9648C37.8164 36.6159 37.3216 37.0651 36.9961 37.3125L33.793 35.3984C34.6003 34.5521 35.5182 33.5104 36.5469 32.2734C37.7057 30.8802 38.2917 29.1224 38.3047 27C38.3177 25.737 38.0312 24.6823 37.4453 23.8359C36.7812 22.8464 35.8438 22.3646 34.6328 22.3906C33.513 22.4167 32.3151 22.8398 31.0391 23.6602C29.8932 24.3893 28.9427 25.2617 28.1875 26.2773C27.3672 27.3711 26.957 28.4258 26.957 29.4414V37.1953L23.3047 35.2422V18.1523H21.1562V15.8086H23.3047C23.3047 11.9805 22.3086 8.71224 20.3164 6.00391C19.1185 4.3763 18.0117 3.23047 16.9961 2.56641L20.9414 2.52734C23.1289 3.72526 24.8672 6.3099 26.1562 10.2812C26.7682 12.1693 27.0742 14.0117 27.0742 15.8086H42.8359V18.1523ZM61.7227 18.1523H48.7148V21.2773C48.7669 21.2773 48.819 21.3034 48.8711 21.3555C48.9232 21.4076 48.9688 21.4336 49.0078 21.4336C48.9036 21.4336 48.8451 21.4271 48.832 21.4141C48.832 21.349 49.8021 21.1406 51.7422 20.7891C52.4583 20.6589 53.168 20.5938 53.8711 20.5938C56.8008 20.5938 58.6823 21.4141 59.5156 23.0547C60.0755 24.1484 60.3555 26.3555 60.3555 29.6758V37.1953C60.082 37.0911 59.0469 36.668 57.25 35.9258C57.25 35.5091 57.1654 35.2422 56.9961 35.125C56.306 35.5286 55.7396 35.8346 55.2969 36.043C53.8906 36.707 52.2565 37.0391 50.3945 37.0391C47.8294 37.0391 45.8503 36.2318 44.457 34.6172C43.7799 33.8359 43.4414 32.9635 43.4414 32C43.4414 30.9193 43.9753 29.8451 45.043 28.7773C47.1133 26.707 49.6849 25.6719 52.7578 25.6719C54.6198 25.6719 56.1172 26.1016 57.25 26.9609V25.1641C56.6771 24.4349 56.1172 23.9466 55.5703 23.6992C55.0365 23.4518 54.3008 23.3411 53.3633 23.3672C51.2669 23.4062 49.3464 23.7904 47.6016 24.5195C46.8203 24.8451 46.0586 25.138 45.3164 25.3984V23.9531C45.4857 23.8099 45.7331 23.5951 46.0586 23.3086C46.1107 23.2435 46.1432 23.2044 46.1562 23.1914V18.1523H42.1523V15.8086H61.7227V18.1523ZM57.25 30.5156C57.25 29.9427 56.5664 29.4284 55.1992 28.9727C54.0664 28.5951 53.1224 28.4062 52.3672 28.4062C49.6198 28.4062 47.4193 29.3958 45.7656 31.375C45.1016 32.1693 44.7695 32.8203 44.7695 33.3281C45.043 34.2786 46.1172 34.7539 47.9922 34.7539C50.4141 34.7539 52.6276 34.1484 54.6328 32.9375C56.3776 31.8828 57.25 31.0755 57.25 30.5156ZM82.4648 18.1523H61.4688V15.8086H82.4648V18.1523ZM78.2656 26.7266C78.2656 23.6016 76.7878 22.0391 73.832 22.0391C71.6445 22.0391 69.8151 23.1849 68.3438 25.4766C67.0417 27.5078 66.3906 29.6693 66.3906 31.9609V37.6445L63.1875 35.9648V21.2773H66.5469V23.6016L68.2852 22.293C69.8216 21.1341 71.4427 20.5547 73.1484 20.5547C75.4661 20.5547 77.3867 21.4531 78.9102 23.25C80.3424 24.9427 81.0586 26.9674 81.0586 29.3242C81.0586 32.2799 79.8086 35.1185 77.3086 37.8398L73.5391 35.4766C74.7109 34.3177 75.707 33.25 76.5273 32.2734C77.6862 30.8932 78.2656 29.0443 78.2656 26.7266ZM104.652 18.1523H102.094L102.055 37.2344L98.5 35.7109V32.918C96.3906 35.6393 94.3203 37 92.2891 37C91 37 89.5938 36.4596 88.0703 35.3789C86.7682 34.4544 85.6875 33.3737 84.8281 32.1367C83.8125 30.6784 83.3112 29.2591 83.3242 27.8789C83.3372 26.6159 84.0339 25.151 85.4141 23.4844C86.9635 21.6094 88.832 20.6719 91.0195 20.6719C92.4128 20.6719 93.8125 21.2643 95.2188 22.4492C95.6484 22.8008 96.7422 23.9336 98.5 25.8477V18.1523H81.7812V15.8086H98.5C98.5 13.1133 98.2721 11.0039 97.8164 9.48047C97.1393 7.21484 95.6289 4.51953 93.2852 1.39453C93.2331 1.36849 93.207 1.26432 93.207 1.08203C93.207 0.925781 93.2461 0.821615 93.3242 0.769531H97.0547C100.414 4.48047 102.094 9.49349 102.094 15.8086H104.652V18.1523ZM97.5625 27.0391C97.5625 26.0234 97.0091 25.151 95.9023 24.4219C94.9128 23.7708 93.8841 23.4453 92.8164 23.4453C92.0352 23.4453 91.0586 23.8099 89.8867 24.5391C87.3346 26.1276 86.0586 28.0026 86.0586 30.1641C86.0586 31.349 86.3776 32.3776 87.0156 33.25C87.7188 34.2266 88.6367 34.7148 89.7695 34.7148C90.9414 34.7148 92.1914 34.181 93.5195 33.1133C94.444 32.3711 95.3034 31.4596 96.0977 30.3789C97.0742 29.0508 97.5625 27.9375 97.5625 27.0391ZM110.961 13.7578C110.909 13.8099 110.759 13.8359 110.512 13.8359C110.303 13.8359 110.121 13.8099 109.965 13.7578L108.695 11.1602C108.174 10.3398 107.465 9.78646 106.566 9.5C105.681 9.20052 105.134 8.875 104.926 8.52344C104.73 7.92448 104.353 7.00651 103.793 5.76953V5.32031H104.555C105.557 5.63281 106.371 5.92578 106.996 6.19922C108.025 6.65495 108.715 7.18229 109.066 7.78125C109.262 8.10677 109.561 8.9401 109.965 10.2812C110.342 11.5443 110.661 12.4232 110.922 12.918C110.948 13.1523 110.961 13.4323 110.961 13.7578ZM112.113 18.1523H104.164V15.8086H112.113V18.1523ZM109.887 37.4492L106.605 35.6328V20.5547H109.887V37.4492ZM132.289 40.1641C132.289 42.5859 131.117 43.7969 128.773 43.7969C127.732 43.7969 126.221 43.3021 124.242 42.3125C122.055 41.2188 120.219 40.6719 118.734 40.6719C115.544 40.6719 112.536 41.9284 109.711 44.4414C108.357 45.6523 107.296 47.0781 106.527 48.7188C106.475 48.5104 106.449 48.1784 106.449 47.7227C106.449 46.1602 106.918 44.6042 107.855 43.0547C108.715 41.6224 109.828 40.4245 111.195 39.4609C112.732 38.3802 114.483 37.8398 116.449 37.8398C117.803 37.8398 118.982 38.0677 119.984 38.5234C120.518 38.7708 121.547 39.4089 123.07 40.4375C124.372 41.3229 125.368 41.7656 126.059 41.7656C127.777 41.7656 129.145 41.056 130.16 39.6367C130.603 39.0247 130.824 38.4258 130.824 37.8398C130.824 36.8112 130.512 35.9518 129.887 35.2617C129.262 34.5586 128.441 34.207 127.426 34.207C126.488 34.207 124.945 34.6823 122.797 35.6328C120.648 36.5703 119.105 37.0391 118.168 37.0391C117.478 37.0391 116.645 36.694 115.668 36.0039C113.637 34.5586 112.621 33.2109 112.621 31.9609C112.621 31.2708 113.005 30.6393 113.773 30.0664C114.464 29.5326 115.173 29.2331 115.902 29.168L115.941 28.9531L114.984 27.6055C114.451 26.8503 114.184 26.0365 114.184 25.1641C114.184 22.1693 116.632 20.6719 121.527 20.6719C121.671 20.6458 121.768 20.5286 121.82 20.3203V18.1523H111.703V15.8086H131.781V18.1523H124.848V21.4336C124.848 22.0456 125.023 22.4232 125.375 22.5664C125.596 22.5664 125.876 22.3646 126.215 21.9609L126.957 21.0625C127.152 20.8672 127.504 20.737 128.012 20.6719C128.832 20.6719 129.613 21.1406 130.355 22.0781C130.694 22.5078 130.915 22.9375 131.02 23.3672L128.969 25.7109C128.943 25.112 128.819 24.5651 128.598 24.0703C128.298 23.4062 127.908 23.0742 127.426 23.0742C127.243 23.0742 127.029 23.1589 126.781 23.3281C126.534 23.4974 126.41 23.6667 126.41 23.8359C126.41 24.0312 126.495 24.2656 126.664 24.5391C126.859 24.8646 126.97 25.0664 126.996 25.1445C127.087 25.444 127.133 25.8216 127.133 26.2773C127.133 28.0352 126.417 29.2266 124.984 29.8516C124.034 30.2682 122.536 30.4766 120.492 30.4766C117.888 30.4766 116.111 31.056 115.16 32.2148C114.783 32.6706 114.6 33.0417 114.613 33.3281C114.626 33.7188 114.822 34.0638 115.199 34.3633C115.577 34.6497 115.967 34.793 116.371 34.793C117.113 34.793 118.539 34.2786 120.648 33.25C123.135 32.0391 125.141 31.4206 126.664 31.3945C128.057 31.3685 129.229 31.987 130.18 33.25C130.948 34.2526 131.501 35.5286 131.84 37.0781C132.139 38.4453 132.289 39.474 132.289 40.1641ZM124.691 24.4805C124.691 22.9049 123.852 22.1172 122.172 22.1172C120.818 22.1172 119.535 22.5924 118.324 23.543C117.022 24.5586 116.371 25.724 116.371 27.0391C116.371 27.7552 116.645 28.3672 117.191 28.875C117.751 29.3828 118.389 29.6367 119.105 29.6367C119.848 29.6497 120.688 29.3828 121.625 28.8359C122.458 28.3542 123.148 27.7943 123.695 27.1562C124.359 26.375 124.691 25.4831 124.691 24.4805ZM150.551 18.1523H137.543V21.2773C137.595 21.2773 137.647 21.3034 137.699 21.3555C137.751 21.4076 137.797 21.4336 137.836 21.4336C137.732 21.4336 137.673 21.4271 137.66 21.4141C137.66 21.349 138.63 21.1406 140.57 20.7891C141.286 20.6589 141.996 20.5938 142.699 20.5938C145.629 20.5938 147.51 21.4141 148.344 23.0547C148.904 24.1484 149.184 26.3555 149.184 29.6758V37.1953C148.91 37.0911 147.875 36.668 146.078 35.9258C146.078 35.5091 145.993 35.2422 145.824 35.125C145.134 35.5286 144.568 35.8346 144.125 36.043C142.719 36.707 141.085 37.0391 139.223 37.0391C136.658 37.0391 134.678 36.2318 133.285 34.6172C132.608 33.8359 132.27 32.9635 132.27 32C132.27 30.9193 132.803 29.8451 133.871 28.7773C135.941 26.707 138.513 25.6719 141.586 25.6719C143.448 25.6719 144.945 26.1016 146.078 26.9609V25.1641C145.505 24.4349 144.945 23.9466 144.398 23.6992C143.865 23.4518 143.129 23.3411 142.191 23.3672C140.095 23.4062 138.174 23.7904 136.43 24.5195C135.648 24.8451 134.887 25.138 134.145 25.3984V23.9531C134.314 23.8099 134.561 23.5951 134.887 23.3086C134.939 23.2435 134.971 23.2044 134.984 23.1914V18.1523H130.98V15.8086H150.551V18.1523ZM146.078 30.5156C146.078 29.9427 145.395 29.4284 144.027 28.9727C142.895 28.5951 141.951 28.4062 141.195 28.4062C138.448 28.4062 136.247 29.3958 134.594 31.375C133.93 32.1693 133.598 32.8203 133.598 33.3281C133.871 34.2786 134.945 34.7539 136.82 34.7539C139.242 34.7539 141.456 34.1484 143.461 32.9375C145.206 31.8828 146.078 31.0755 146.078 30.5156ZM170.043 18.1523H150.297V15.8086H170.043V18.1523ZM168.422 25.1641C168.422 25.9323 167.96 26.7982 167.035 27.7617C166.254 28.582 165.434 29.194 164.574 29.5977L161.645 26.2773C162.53 26.1992 163.37 25.8737 164.164 25.3008C165.076 24.6497 165.531 23.9076 165.531 23.0742C165.531 22.6315 165.245 22.2539 164.672 21.9414C164.177 21.6549 163.689 21.5117 163.207 21.5117C162.204 21.5117 161.13 21.9935 159.984 22.957C157.654 24.9102 156.488 27.0716 156.488 29.4414V37.7227L152.738 35.7695V21.3164H156.527V22.8008C157.087 22.2409 158.246 21.6549 160.004 21.043C160.863 20.7435 161.749 20.5938 162.66 20.5938C164.548 20.5938 166.15 21.3164 167.465 22.7617C168.103 23.4648 168.422 24.2656 168.422 25.1641ZM191.156 18.1523H175.395V24.0312C176.814 22.4818 178.129 21.4857 179.34 21.043C180.017 20.7956 180.779 20.6719 181.625 20.6719C184.802 20.6719 187.178 22.2344 188.754 25.3594C189.444 26.7266 189.789 28.0742 189.789 29.4023C189.789 31.8242 188.793 34.0117 186.801 35.9648C186.137 36.6159 185.642 37.0651 185.316 37.3125L182.113 35.3984C182.921 34.5521 183.839 33.5104 184.867 32.2734C186.026 30.8802 186.612 29.1224 186.625 27C186.638 25.737 186.352 24.6823 185.766 23.8359C185.102 22.8464 184.164 22.3646 182.953 22.3906C181.833 22.4167 180.635 22.8398 179.359 23.6602C178.214 24.3893 177.263 25.2617 176.508 26.2773C175.688 27.3711 175.277 28.4258 175.277 29.4414V37.1953L171.625 35.2422V18.1523H169.477V15.8086H171.625C171.625 11.9805 170.629 8.71224 168.637 6.00391C167.439 4.3763 166.332 3.23047 165.316 2.56641L169.262 2.52734C171.449 3.72526 173.188 6.3099 174.477 10.2812C175.089 12.1693 175.395 14.0117 175.395 15.8086H191.156V18.1523Z" fill="white"/>
<path d="M48.7177 60.2002C49.3177 61.4669 50.0777 62.5735 50.9977 63.5202C51.9177 64.4669 52.8311 65.0802 53.7377 65.3602C53.7377 65.9202 53.5911 66.3535 53.2977 66.6602C53.0044 66.9669 52.5844 67.1202 52.0377 67.1202C51.3311 67.1202 50.5244 66.6669 49.6177 65.7602C48.7111 64.8402 47.9177 63.7602 47.2377 62.5202C46.5711 61.2669 46.1777 60.1669 46.0577 59.2202C47.0177 59.2202 47.8044 58.9669 48.4177 58.4602C49.0444 57.9402 49.3577 57.2069 49.3577 56.2602C49.3577 55.0602 48.6111 54.4602 47.1177 54.4602C46.6377 54.4602 46.0511 54.5402 45.3577 54.7002C45.2644 56.5002 45.2177 57.9535 45.2177 59.0602C45.2177 62.6069 45.3577 65.1735 45.6377 66.7602C45.2111 66.9202 44.7577 67.0002 44.2777 67.0002C43.7977 67.0002 43.3777 66.8469 43.0177 66.5402C42.6711 66.2335 42.4977 65.8269 42.4977 65.3202C42.4977 64.8135 42.5644 63.9335 42.6977 62.6802C42.8311 61.4135 42.8977 60.4002 42.8977 59.6402C42.8977 57.3069 42.7311 55.2335 42.3977 53.4202C44.1977 52.9269 45.9111 52.6802 47.5377 52.6802C50.5111 52.6802 51.9977 53.7402 51.9977 55.8602C51.9977 56.7935 51.6777 57.6735 51.0377 58.5002C50.4111 59.3135 49.6377 59.8802 48.7177 60.2002ZM56.7716 62.4602C56.7716 63.4202 56.925 64.1802 57.2316 64.7402C57.5383 65.2869 58.0516 65.5602 58.7716 65.5602C59.4916 65.5602 60.0516 65.3202 60.4516 64.8402C60.865 64.3469 61.0716 63.7535 61.0716 63.0602C61.525 63.0602 61.9183 63.1735 62.2516 63.4002C62.585 63.6269 62.7516 63.9402 62.7516 64.3402C62.7516 65.1669 62.3116 65.8602 61.4316 66.4202C60.5516 66.9669 59.625 67.2402 58.6516 67.2402C57.1316 67.2402 56.0316 66.8335 55.3516 66.0202C54.6716 65.1935 54.3316 63.9735 54.3316 62.3602C54.3316 60.7469 54.785 59.3935 55.6916 58.3002C56.6116 57.1935 57.8316 56.6402 59.3516 56.6402C60.3916 56.6402 61.225 56.8802 61.8516 57.3602C62.4916 57.8269 62.8116 58.5602 62.8116 59.5602C62.8116 60.5469 62.3583 61.2935 61.4516 61.8002C60.5583 62.2935 59.465 62.5402 58.1716 62.5402C57.7183 62.5402 57.2516 62.5135 56.7716 62.4602ZM56.7916 60.8802C57.1916 60.9602 57.6116 61.0002 58.0516 61.0002C59.0116 61.0002 59.8183 60.8202 60.4716 60.4602C60.5516 60.1402 60.5916 59.8869 60.5916 59.7002C60.5916 59.2335 60.425 58.8802 60.0916 58.6402C59.7583 58.4002 59.2983 58.2802 58.7116 58.2802C58.1383 58.2802 57.6183 58.4669 57.1516 58.8402C56.9116 59.5335 56.7916 60.2135 56.7916 60.8802ZM71.4982 58.7802C70.7915 58.5669 70.0915 58.4602 69.3982 58.4602C68.7049 58.4602 68.0515 58.6669 67.4382 59.0802C66.9582 60.0402 66.7182 61.0602 66.7182 62.1402C66.7182 62.7669 66.8049 63.3802 66.9782 63.9802C67.1515 64.5669 67.4382 64.8602 67.8382 64.8602C68.2915 64.8602 68.8982 64.2135 69.6582 62.9202C70.4182 61.6269 71.0315 60.2469 71.4982 58.7802ZM68.4982 70.2802C69.3515 70.2802 70.0182 69.9869 70.4982 69.4002C70.9782 68.8135 71.2182 68.0602 71.2182 67.1402C71.2182 66.6869 71.1849 66.0269 71.1182 65.1602C71.0649 64.2935 71.0315 63.6802 71.0182 63.3202C70.0715 64.9735 69.2449 65.9869 68.5382 66.3602C68.1782 66.5469 67.7982 66.6402 67.3982 66.6402C66.3982 66.6402 65.6249 66.2469 65.0782 65.4602C64.5315 64.6735 64.2582 63.7135 64.2582 62.5802C64.2582 61.0335 64.7382 59.6802 65.6982 58.5202C66.6715 57.3469 67.8982 56.7602 69.3782 56.7602C70.8715 56.7602 72.3782 57.0202 73.8982 57.5402C73.4982 58.9669 73.2982 60.3669 73.2982 61.7402C73.2982 62.3935 73.3449 63.2069 73.4382 64.1802C73.5315 65.1402 73.5782 65.8535 73.5782 66.3202C73.5782 67.9602 73.0582 69.3135 72.0182 70.3802C70.9782 71.4602 69.6449 72.0002 68.0182 72.0002C67.0582 72.0002 66.2315 71.8135 65.5382 71.4402C64.8582 71.0802 64.5182 70.5135 64.5182 69.7402C64.5182 69.2602 64.6982 68.8535 65.0582 68.5202C65.4182 68.1869 65.8449 68.0202 66.3382 68.0202C66.4449 68.0202 66.5782 68.0335 66.7382 68.0602C66.6982 68.2335 66.6782 68.3869 66.6782 68.5202C66.6782 69.0002 66.8582 69.4135 67.2182 69.7602C67.5782 70.1069 68.0049 70.2802 68.4982 70.2802ZM75.8134 57.0602C76.24 56.9402 76.6667 56.8802 77.0934 56.8802C77.5334 56.8802 77.9067 57.0135 78.2134 57.2802C78.52 57.5469 78.6734 57.8935 78.6734 58.3202C78.6734 58.7335 78.6 59.4602 78.4534 60.5002C78.32 61.5269 78.2534 62.3269 78.2534 62.9002C78.2534 64.3935 78.3934 65.6802 78.6734 66.7602C78.26 66.9202 77.8134 67.0002 77.3334 67.0002C76.8534 67.0002 76.4734 66.8935 76.1934 66.6802C75.9134 66.4535 75.7734 66.1335 75.7734 65.7202C75.7734 65.2935 75.8534 64.6002 76.0134 63.6402C76.1734 62.6802 76.2534 61.8869 76.2534 61.2602C76.2534 59.5935 76.1067 58.1935 75.8134 57.0602ZM76.0734 52.5402C76.54 52.3269 77 52.2202 77.4534 52.2202C77.9067 52.2202 78.24 52.3402 78.4534 52.5802C78.68 52.8069 78.7934 53.1469 78.7934 53.6002C78.7934 54.0535 78.64 54.4535 78.3334 54.8002C78.04 55.1469 77.6534 55.3202 77.1734 55.3202C76.1867 55.3202 75.6934 54.8069 75.6934 53.7802C75.6934 53.3269 75.82 52.9135 76.0734 52.5402ZM82.611 63.3602C82.571 63.5469 82.551 63.7002 82.551 63.8202C82.551 64.3669 82.711 64.7869 83.031 65.0802C83.3643 65.3735 83.8043 65.5202 84.351 65.5202C84.911 65.5202 85.371 65.4202 85.731 65.2202C86.1043 65.0069 86.291 64.6935 86.291 64.2802C86.291 63.8669 86.091 63.5402 85.691 63.3002C85.3043 63.0469 84.831 62.8469 84.271 62.7002C83.7243 62.5535 83.171 62.3935 82.611 62.2202C82.051 62.0335 81.571 61.7469 81.171 61.3602C80.7843 60.9735 80.591 60.4869 80.591 59.9002C80.591 58.9802 81.0777 58.2069 82.051 57.5802C83.0243 56.9535 84.0443 56.6402 85.111 56.6402C86.2843 56.6402 87.1777 56.8802 87.791 57.3602C88.151 57.6402 88.331 58.0135 88.331 58.4802C88.331 58.9335 88.151 59.3069 87.791 59.6002C87.4443 59.8802 87.0177 60.0202 86.511 60.0202C86.4043 60.0202 86.271 60.0069 86.111 59.9802C86.151 59.8069 86.171 59.6535 86.171 59.5202C86.171 59.1335 86.0243 58.8402 85.731 58.6402C85.4377 58.4402 85.0377 58.3402 84.531 58.3402C84.0377 58.3402 83.5843 58.4402 83.171 58.6402C83.011 58.8535 82.931 59.1269 82.931 59.4602C82.931 59.7935 83.1243 60.0669 83.511 60.2802C83.8977 60.4802 84.3643 60.6602 84.911 60.8202C85.471 60.9669 86.031 61.1402 86.591 61.3402C87.151 61.5269 87.6243 61.8269 88.011 62.2402C88.3977 62.6402 88.591 63.1469 88.591 63.7602C88.591 64.7602 88.091 65.5935 87.091 66.2602C86.1043 66.9135 85.0843 67.2402 84.031 67.2402C82.9777 67.2402 82.1043 67.0535 81.411 66.6802C80.731 66.2935 80.391 65.7135 80.391 64.9402C80.391 64.4602 80.5643 64.0735 80.911 63.7802C81.271 63.4735 81.7043 63.3202 82.211 63.3202C82.3177 63.3202 82.451 63.3335 82.611 63.3602ZM90.7126 53.9402C91.1392 53.7269 91.5726 53.6202 92.0126 53.6202C92.4526 53.6202 92.8059 53.7602 93.0726 54.0402C93.3526 54.3202 93.4926 54.7335 93.4926 55.2802C93.4926 55.8269 93.4592 56.4469 93.3926 57.1402C94.3926 57.1402 95.3459 57.0002 96.2526 56.7202C96.4126 56.9869 96.4926 57.3002 96.4926 57.6602C96.4926 58.0069 96.3326 58.2935 96.0126 58.5202C95.7059 58.7335 95.3926 58.8402 95.0726 58.8402C94.7526 58.8402 94.3926 58.8002 93.9926 58.7202C93.5926 58.6402 93.3326 58.5935 93.2126 58.5802C93.1992 58.7002 93.1592 58.9402 93.0926 59.3002C93.0392 59.6602 92.9926 59.9735 92.9526 60.2402C92.8459 60.9735 92.7926 61.7602 92.7926 62.6002C92.7926 64.4269 93.3859 65.3402 94.5726 65.3402C95.0126 65.3402 95.5192 65.1869 96.0926 64.8802C96.2659 65.1335 96.3526 65.4602 96.3526 65.8602C96.3526 66.2602 96.1326 66.5735 95.6926 66.8002C95.2659 67.0135 94.7526 67.1202 94.1526 67.1202C91.8059 67.1202 90.6326 65.7869 90.6326 63.1202C90.6326 62.7335 90.6859 62.0335 90.7926 61.0202C90.9126 60.0069 90.9726 59.1869 90.9726 58.5602C90.3326 58.6002 89.8192 58.7135 89.4326 58.9002C89.2726 58.6602 89.1926 58.3869 89.1926 58.0802C89.1926 57.7602 89.3059 57.5002 89.5326 57.3002C89.7592 57.0869 90.0392 56.9802 90.3726 56.9802C90.7059 56.9802 90.9259 56.9869 91.0326 57.0002C91.0459 56.8935 91.0526 56.7535 91.0526 56.5802C91.0526 55.5802 90.9392 54.7002 90.7126 53.9402ZM100.763 66.7602C100.35 66.9202 99.9099 67.0002 99.4432 67.0002C98.9765 67.0002 98.5965 66.8935 98.3032 66.6802C98.0232 66.4535 97.8832 66.1469 97.8832 65.7602C97.8832 65.3602 97.9432 64.6402 98.0632 63.6002C98.1832 62.5602 98.2432 61.5535 98.2432 60.5802C98.2432 59.5935 98.0899 58.4402 97.7832 57.1202C98.2099 56.9602 98.6299 56.8802 99.0432 56.8802C99.4565 56.8802 99.8099 57.0202 100.103 57.3002C100.41 57.5802 100.563 57.9535 100.563 58.4202C100.563 58.6602 100.523 59.0202 100.443 59.5002C100.363 59.9669 100.317 60.3202 100.303 60.5602C100.823 59.3735 101.437 58.4469 102.143 57.7802C102.863 57.1002 103.577 56.7602 104.283 56.7602C104.777 56.7602 105.17 56.9335 105.463 57.2802C105.757 57.6269 105.903 58.0669 105.903 58.6002C105.903 59.1202 105.77 59.5469 105.503 59.8802C105.237 60.2002 104.903 60.3602 104.503 60.3602C104.117 60.3602 103.803 60.3202 103.563 60.2402C103.603 60.0802 103.623 59.9335 103.623 59.8002C103.623 59.2535 103.43 58.9802 103.043 58.9802C102.457 58.9802 101.903 59.5735 101.383 60.7602C100.877 61.9335 100.537 63.0335 100.363 64.0602C100.43 65.0602 100.563 65.9602 100.763 66.7602ZM116.104 57.5802C115.744 59.1135 115.564 60.6535 115.564 62.2002C115.564 63.7335 115.737 65.2535 116.084 66.7602C115.604 66.9202 115.11 67.0002 114.604 67.0002C114.097 67.0002 113.744 66.8535 113.544 66.5602C113.344 66.2535 113.244 65.8202 113.244 65.2602C113.244 64.6869 113.33 63.9069 113.504 62.9202C112.557 64.9469 111.644 66.2269 110.764 66.7602C110.364 67.0002 109.95 67.1202 109.524 67.1202C108.51 67.1202 107.724 66.7469 107.164 66.0002C106.604 65.2402 106.324 64.3002 106.324 63.1802C106.324 61.4735 106.797 59.9802 107.744 58.7002C108.69 57.4069 109.917 56.7602 111.424 56.7602C112.944 56.7602 114.504 57.0335 116.104 57.5802ZM113.484 58.7802C112.777 58.5669 112.177 58.4602 111.684 58.4602C110.684 58.4602 109.937 58.6802 109.444 59.1202C108.99 60.2402 108.764 61.3802 108.764 62.5402C108.764 63.1535 108.857 63.7735 109.044 64.4002C109.244 65.0269 109.544 65.3402 109.944 65.3402C110.41 65.3402 111.01 64.6535 111.744 63.2802C112.477 61.9069 113.057 60.4069 113.484 58.7802ZM118.642 53.9402C119.069 53.7269 119.502 53.6202 119.942 53.6202C120.382 53.6202 120.736 53.7602 121.002 54.0402C121.282 54.3202 121.422 54.7335 121.422 55.2802C121.422 55.8269 121.389 56.4469 121.322 57.1402C122.322 57.1402 123.276 57.0002 124.182 56.7202C124.342 56.9869 124.422 57.3002 124.422 57.6602C124.422 58.0069 124.262 58.2935 123.942 58.5202C123.636 58.7335 123.322 58.8402 123.002 58.8402C122.682 58.8402 122.322 58.8002 121.922 58.7202C121.522 58.6402 121.262 58.5935 121.142 58.5802C121.129 58.7002 121.089 58.9402 121.022 59.3002C120.969 59.6602 120.922 59.9735 120.882 60.2402C120.776 60.9735 120.722 61.7602 120.722 62.6002C120.722 64.4269 121.316 65.3402 122.502 65.3402C122.942 65.3402 123.449 65.1869 124.022 64.8802C124.196 65.1335 124.282 65.4602 124.282 65.8602C124.282 66.2602 124.062 66.5735 123.622 66.8002C123.196 67.0135 122.682 67.1202 122.082 67.1202C119.736 67.1202 118.562 65.7869 118.562 63.1202C118.562 62.7335 118.616 62.0335 118.722 61.0202C118.842 60.0069 118.902 59.1869 118.902 58.5602C118.262 58.6002 117.749 58.7135 117.362 58.9002C117.202 58.6602 117.122 58.3869 117.122 58.0802C117.122 57.7602 117.236 57.5002 117.462 57.3002C117.689 57.0869 117.969 56.9802 118.302 56.9802C118.636 56.9802 118.856 56.9869 118.962 57.0002C118.976 56.8935 118.982 56.7535 118.982 56.5802C118.982 55.5802 118.869 54.7002 118.642 53.9402ZM125.833 57.0602C126.26 56.9402 126.686 56.8802 127.113 56.8802C127.553 56.8802 127.926 57.0135 128.233 57.2802C128.54 57.5469 128.693 57.8935 128.693 58.3202C128.693 58.7335 128.62 59.4602 128.473 60.5002C128.34 61.5269 128.273 62.3269 128.273 62.9002C128.273 64.3935 128.413 65.6802 128.693 66.7602C128.28 66.9202 127.833 67.0002 127.353 67.0002C126.873 67.0002 126.493 66.8935 126.213 66.6802C125.933 66.4535 125.793 66.1335 125.793 65.7202C125.793 65.2935 125.873 64.6002 126.033 63.6402C126.193 62.6802 126.273 61.8869 126.273 61.2602C126.273 59.5935 126.126 58.1935 125.833 57.0602ZM126.093 52.5402C126.56 52.3269 127.02 52.2202 127.473 52.2202C127.926 52.2202 128.26 52.3402 128.473 52.5802C128.7 52.8069 128.813 53.1469 128.813 53.6002C128.813 54.0535 128.66 54.4535 128.353 54.8002C128.06 55.1469 127.673 55.3202 127.193 55.3202C126.206 55.3202 125.713 54.8069 125.713 53.7802C125.713 53.3269 125.84 52.9135 126.093 52.5402ZM134.491 67.2402C133.024 67.2402 131.944 66.8135 131.251 65.9602C130.557 65.0935 130.211 63.8935 130.211 62.3602C130.211 60.8135 130.671 59.4735 131.591 58.3402C132.511 57.2069 133.691 56.6402 135.131 56.6402C138.091 56.6402 139.571 58.3069 139.571 61.6402C139.571 63.2002 139.091 64.5269 138.131 65.6202C137.171 66.7002 135.957 67.2402 134.491 67.2402ZM133.051 58.8402C132.811 59.6135 132.691 60.3869 132.691 61.1602C132.691 61.9335 132.717 62.5335 132.771 62.9602C132.824 63.3869 132.924 63.8135 133.071 64.2402C133.377 65.1069 133.977 65.5402 134.871 65.5402C135.777 65.5402 136.371 65.3002 136.651 64.8202C136.944 64.3402 137.091 63.6002 137.091 62.6002C137.091 59.7602 136.417 58.3402 135.071 58.3402C134.297 58.3402 133.624 58.5069 133.051 58.8402ZM150.464 58.9202L150.264 63.3202C150.264 64.5335 150.45 65.7202 150.824 66.8802C150.45 67.0402 150.024 67.1202 149.544 67.1202C148.41 67.1202 147.844 66.4869 147.844 65.2202C147.844 64.6469 147.917 63.6869 148.064 62.3402C148.21 60.9802 148.284 60.1269 148.284 59.7802C148.284 59.1135 147.984 58.7802 147.384 58.7802C146.944 58.7802 146.444 59.1002 145.884 59.7402C145.337 60.3669 144.864 61.0735 144.464 61.8602C144.077 62.6335 143.85 63.2735 143.784 63.7802C143.837 64.8202 143.97 65.8135 144.184 66.7602C143.757 66.9202 143.31 67.0002 142.844 67.0002C142.39 67.0002 142.017 66.8935 141.724 66.6802C141.444 66.4535 141.304 66.1469 141.304 65.7602C141.304 65.3602 141.364 64.6535 141.484 63.6402C141.604 62.6135 141.664 61.6002 141.664 60.6002C141.664 59.5869 141.51 58.4269 141.204 57.1202C141.63 56.9602 142.084 56.8802 142.564 56.8802C143.044 56.8802 143.43 57.0202 143.724 57.3002C144.03 57.5802 144.184 57.9269 144.184 58.3402C144.184 58.7535 144.13 59.4135 144.024 60.3202C144.53 59.3735 145.19 58.5469 146.004 57.8402C146.817 57.1202 147.63 56.7602 148.444 56.7602C149.79 56.7602 150.464 57.4802 150.464 58.9202Z" fill="white"/>
</g>
<defs>
<clipPath id="clip0_1116_403">
<rect width="192" height="72" fill="white"/>
</clipPath>
</defs>
</svg>
