<svg width="109" height="79" viewBox="0 0 109 79" fill="none" xmlns="http://www.w3.org/2000/svg">
<g clip-path="url(#clip0_1116_394)">
<path d="M12.8594 8.75781C12.7812 8.8099 12.6315 8.83594 12.4102 8.83594C12.2148 8.83594 12.013 8.8099 11.8047 8.75781C10.776 6.73958 10.1771 5.61979 10.0078 5.39844C9.72135 5.00781 8.94661 4.63672 7.68359 4.28516C7.29297 4.18099 6.98698 3.92708 6.76562 3.52344C6.66146 3.15885 6.49219 2.625 6.25781 1.92188C6.07552 1.51823 5.8737 1.13411 5.65234 0.769532V0.320312H6.45312C7.53385 0.645833 8.35417 0.938802 8.91406 1.19922C9.8776 1.64193 10.5547 2.1888 10.9453 2.83984C11.1536 3.19141 11.4531 4.01823 11.8438 5.32031C12.013 5.91927 12.319 6.78516 12.7617 7.91797C12.8268 8.30859 12.8594 8.58854 12.8594 8.75781ZM15.6133 13.1523H3.85547V10.8086H15.6133V13.1523ZM12.9375 39.5195C12.9375 40.8086 12.0846 41.9154 10.3789 42.8398C9.58464 43.2695 8.72526 43.4844 7.80078 43.4844C6.73307 43.4844 5.65234 43.1198 4.55859 42.3906C3.46484 41.6615 2.70964 40.8086 2.29297 39.832L5.32031 37.4883C5.56771 40.7956 6.49219 42.4492 8.09375 42.4492C9.01823 42.4492 9.48047 41.9023 9.48047 40.8086V15.5547H12.9375V39.5195ZM33.7773 13.1523H20.7695V16.2773C20.8216 16.2773 20.8737 16.3034 20.9258 16.3555C20.9779 16.4076 21.0234 16.4336 21.0625 16.4336C20.9583 16.4336 20.8997 16.4271 20.8867 16.4141C20.8867 16.349 21.8568 16.1406 23.7969 15.7891C24.513 15.6589 25.2227 15.5938 25.9258 15.5938C28.8555 15.5938 30.737 16.4141 31.5703 18.0547C32.1302 19.1484 32.4102 21.3555 32.4102 24.6758V32.1953C32.1367 32.0911 31.1016 31.668 29.3047 30.9258C29.3047 30.5091 29.2201 30.2422 29.0508 30.125C28.3607 30.5286 27.7943 30.8346 27.3516 31.043C25.9453 31.707 24.3112 32.0391 22.4492 32.0391C19.8841 32.0391 17.9049 31.2318 16.5117 29.6172C15.8346 28.8359 15.4961 27.9635 15.4961 27C15.4961 25.9193 16.0299 24.8451 17.0977 23.7773C19.168 21.707 21.7396 20.6719 24.8125 20.6719C26.6745 20.6719 28.1719 21.1016 29.3047 21.9609V20.1641C28.7318 19.4349 28.1719 18.9466 27.625 18.6992C27.0911 18.4518 26.3555 18.3411 25.418 18.3672C23.3216 18.4062 21.401 18.7904 19.6562 19.5195C18.875 19.8451 18.1133 20.138 17.3711 20.3984V18.9531C17.5404 18.8099 17.7878 18.5951 18.1133 18.3086C18.1654 18.2435 18.1979 18.2044 18.2109 18.1914V13.1523H14.207V10.8086H33.7773V13.1523ZM29.3047 25.5156C29.3047 24.9427 28.6211 24.4284 27.2539 23.9727C26.1211 23.5951 25.1771 23.4062 24.4219 23.4062C21.6745 23.4062 19.474 24.3958 17.8203 26.375C17.1562 27.1693 16.8242 27.8203 16.8242 28.3281C17.0977 29.2786 18.1719 29.7539 20.0469 29.7539C22.4688 29.7539 24.6823 29.1484 26.6875 27.9375C28.4323 26.8828 29.3047 26.0755 29.3047 25.5156ZM40.3203 8.75781C40.2682 8.8099 40.1185 8.83594 39.8711 8.83594C39.6628 8.83594 39.4805 8.8099 39.3242 8.75781L38.0547 6.16016C37.5339 5.33984 36.8242 4.78646 35.9258 4.5C35.0404 4.20052 34.4935 3.875 34.2852 3.52344C34.0898 2.92448 33.7122 2.00651 33.1523 0.769532V0.320312H33.9141C34.9167 0.632812 35.7305 0.925781 36.3555 1.19922C37.3841 1.65495 38.0742 2.18229 38.4258 2.78125C38.6211 3.10677 38.9206 3.9401 39.3242 5.28125C39.7018 6.54427 40.0208 7.42318 40.2812 7.91797C40.3073 8.15234 40.3203 8.43229 40.3203 8.75781ZM41.4727 13.1523H33.5234V10.8086H41.4727V13.1523ZM39.2461 32.4492L35.9648 30.6328V15.5547H39.2461V32.4492ZM63.5039 13.1523H41.1016V10.8086H63.5039V13.1523ZM61.9414 23.9531C61.9414 25.3854 61.5117 26.7396 60.6523 28.0156C59.8581 29.2005 58.8099 30.1706 57.5078 30.9258C56.2057 31.668 55.0013 32.0391 53.8945 32.0391C52.8138 32.0391 51.4661 31.4336 49.8516 30.2227C49.0703 29.6367 47.9245 28.6276 46.4141 27.1953V43.7578L43.2891 42.1172V16.2773H46.3359V21.043L47.5273 19.793C50.2747 16.9154 52.5013 15.4766 54.207 15.4766C56.056 15.4766 57.8203 16.4336 59.5 18.3477C61.1276 20.2096 61.9414 22.0781 61.9414 23.9531ZM60.0078 21.6875C60.0078 20.6979 59.4935 19.7474 58.4648 18.8359C57.957 18.3802 57.3125 18.1523 56.5312 18.1523C54.9948 18.1523 53.0872 19.0833 50.8086 20.9453C48.4648 22.8594 47.293 24.5586 47.293 26.043C47.293 26.9154 48.1068 27.6836 49.7344 28.3477C50.4635 28.6471 51.1732 28.7969 51.8633 28.7969C54.1289 28.7969 56.0951 27.9245 57.7617 26.1797C59.2591 24.6172 60.0078 23.1198 60.0078 21.6875ZM85.0078 13.1523H68.6602V25.6719C68.6602 26.5052 68.8359 27.3646 69.1875 28.25C69.9036 30.0599 71.0885 30.9648 72.7422 30.9648C74.9688 30.9648 76.6615 30.0339 77.8203 28.1719C78.7188 26.7396 79.168 25.3919 79.168 24.1289V16.3555H83.1328V32.9961C82.8203 32.8138 82.2344 32.5339 81.375 32.1562L79.1289 31.1602V29.5977C77.5924 30.7174 76.2773 31.4271 75.1836 31.7266C74.5195 31.9089 73.7318 32 72.8203 32C69.9297 32 67.6706 30.7305 66.043 28.1914C65.3008 27.0326 64.9297 25.7695 64.9297 24.4023V13.1523H62.5664V10.8086H85.0078V13.1523ZM104.402 13.1523H84.6562V10.8086H104.402V13.1523ZM102.781 20.1641C102.781 20.9323 102.319 21.7982 101.395 22.7617C100.613 23.582 99.793 24.194 98.9336 24.5977L96.0039 21.2773C96.8893 21.1992 97.7292 20.8737 98.5234 20.3008C99.4349 19.6497 99.8906 18.9076 99.8906 18.0742C99.8906 17.6315 99.6042 17.2539 99.0312 16.9414C98.5365 16.6549 98.0482 16.5117 97.5664 16.5117C96.5638 16.5117 95.4896 16.9935 94.3438 17.957C92.013 19.9102 90.8477 22.0716 90.8477 24.4414V32.7227L87.0977 30.7695V16.3164H90.8867V17.8008C91.4466 17.2409 92.6055 16.6549 94.3633 16.043C95.2227 15.7435 96.1081 15.5938 97.0195 15.5938C98.9076 15.5938 100.509 16.3164 101.824 17.7617C102.462 18.4648 102.781 19.2656 102.781 20.1641Z" fill="white"/>
<path d="M6.7177 67.2C7.3177 68.4667 8.0777 69.5733 8.9977 70.52C9.9177 71.4667 10.8311 72.08 11.7377 72.36C11.7377 72.92 11.5911 73.3533 11.2977 73.66C11.0044 73.9667 10.5844 74.12 10.0377 74.12C9.33104 74.12 8.52437 73.6667 7.6177 72.76C6.71104 71.84 5.9177 70.76 5.2377 69.52C4.57104 68.2667 4.1777 67.1667 4.0577 66.22C5.0177 66.22 5.80437 65.9667 6.4177 65.46C7.04437 64.94 7.3577 64.2067 7.3577 63.26C7.3577 62.06 6.61104 61.46 5.1177 61.46C4.6377 61.46 4.05104 61.54 3.3577 61.7C3.26437 63.5 3.2177 64.9533 3.2177 66.06C3.2177 69.6067 3.3577 72.1733 3.6377 73.76C3.21104 73.92 2.7577 74 2.2777 74C1.7977 74 1.3777 73.8467 1.0177 73.54C0.671039 73.2333 0.497705 72.8267 0.497705 72.32C0.497705 71.8133 0.564372 70.9333 0.697705 69.68C0.831039 68.4133 0.897705 67.4 0.897705 66.64C0.897705 64.3067 0.731039 62.2333 0.397705 60.42C2.1977 59.9267 3.91104 59.68 5.5377 59.68C8.51104 59.68 9.9977 60.74 9.9977 62.86C9.9977 63.7933 9.6777 64.6733 9.0377 65.5C8.41104 66.3133 7.6377 66.88 6.7177 67.2ZM14.7716 69.46C14.7716 70.42 14.925 71.18 15.2316 71.74C15.5383 72.2867 16.0516 72.56 16.7716 72.56C17.4916 72.56 18.0516 72.32 18.4516 71.84C18.865 71.3467 19.0716 70.7533 19.0716 70.06C19.525 70.06 19.9183 70.1733 20.2516 70.4C20.585 70.6267 20.7516 70.94 20.7516 71.34C20.7516 72.1667 20.3116 72.86 19.4316 73.42C18.5516 73.9667 17.625 74.24 16.6516 74.24C15.1316 74.24 14.0316 73.8333 13.3516 73.02C12.6716 72.1933 12.3316 70.9733 12.3316 69.36C12.3316 67.7467 12.785 66.3933 13.6916 65.3C14.6116 64.1933 15.8316 63.64 17.3516 63.64C18.3916 63.64 19.225 63.88 19.8516 64.36C20.4916 64.8267 20.8116 65.56 20.8116 66.56C20.8116 67.5467 20.3583 68.2933 19.4516 68.8C18.5583 69.2933 17.465 69.54 16.1716 69.54C15.7183 69.54 15.2516 69.5133 14.7716 69.46ZM14.7916 67.88C15.1916 67.96 15.6116 68 16.0516 68C17.0116 68 17.8183 67.82 18.4716 67.46C18.5516 67.14 18.5916 66.8867 18.5916 66.7C18.5916 66.2333 18.425 65.88 18.0916 65.64C17.7583 65.4 17.2983 65.28 16.7116 65.28C16.1383 65.28 15.6183 65.4667 15.1516 65.84C14.9116 66.5333 14.7916 67.2133 14.7916 67.88ZM29.4982 65.78C28.7915 65.5667 28.0915 65.46 27.3982 65.46C26.7049 65.46 26.0515 65.6667 25.4382 66.08C24.9582 67.04 24.7182 68.06 24.7182 69.14C24.7182 69.7667 24.8049 70.38 24.9782 70.98C25.1515 71.5667 25.4382 71.86 25.8382 71.86C26.2915 71.86 26.8982 71.2133 27.6582 69.92C28.4182 68.6267 29.0315 67.2467 29.4982 65.78ZM26.4982 77.28C27.3515 77.28 28.0182 76.9867 28.4982 76.4C28.9782 75.8133 29.2182 75.06 29.2182 74.14C29.2182 73.6867 29.1849 73.0267 29.1182 72.16C29.0649 71.2933 29.0315 70.68 29.0182 70.32C28.0715 71.9733 27.2449 72.9867 26.5382 73.36C26.1782 73.5467 25.7982 73.64 25.3982 73.64C24.3982 73.64 23.6249 73.2467 23.0782 72.46C22.5315 71.6733 22.2582 70.7133 22.2582 69.58C22.2582 68.0333 22.7382 66.68 23.6982 65.52C24.6715 64.3467 25.8982 63.76 27.3782 63.76C28.8715 63.76 30.3782 64.02 31.8982 64.54C31.4982 65.9667 31.2982 67.3667 31.2982 68.74C31.2982 69.3933 31.3449 70.2067 31.4382 71.18C31.5315 72.14 31.5782 72.8533 31.5782 73.32C31.5782 74.96 31.0582 76.3133 30.0182 77.38C28.9782 78.46 27.6449 79 26.0182 79C25.0582 79 24.2315 78.8133 23.5382 78.44C22.8582 78.08 22.5182 77.5133 22.5182 76.74C22.5182 76.26 22.6982 75.8533 23.0582 75.52C23.4182 75.1867 23.8449 75.02 24.3382 75.02C24.4449 75.02 24.5782 75.0333 24.7382 75.06C24.6982 75.2333 24.6782 75.3867 24.6782 75.52C24.6782 76 24.8582 76.4133 25.2182 76.76C25.5782 77.1067 26.0049 77.28 26.4982 77.28ZM33.8134 64.06C34.24 63.94 34.6667 63.88 35.0934 63.88C35.5334 63.88 35.9067 64.0133 36.2134 64.28C36.52 64.5467 36.6734 64.8933 36.6734 65.32C36.6734 65.7333 36.6 66.46 36.4534 67.5C36.32 68.5267 36.2534 69.3267 36.2534 69.9C36.2534 71.3933 36.3934 72.68 36.6734 73.76C36.26 73.92 35.8134 74 35.3334 74C34.8534 74 34.4734 73.8933 34.1934 73.68C33.9134 73.4533 33.7734 73.1333 33.7734 72.72C33.7734 72.2933 33.8534 71.6 34.0134 70.64C34.1734 69.68 34.2534 68.8867 34.2534 68.26C34.2534 66.5933 34.1067 65.1933 33.8134 64.06ZM34.0734 59.54C34.54 59.3267 35 59.22 35.4534 59.22C35.9067 59.22 36.24 59.34 36.4534 59.58C36.68 59.8067 36.7934 60.1467 36.7934 60.6C36.7934 61.0533 36.64 61.4533 36.3334 61.8C36.04 62.1467 35.6534 62.32 35.1734 62.32C34.1867 62.32 33.6934 61.8067 33.6934 60.78C33.6934 60.3267 33.82 59.9133 34.0734 59.54ZM40.611 70.36C40.571 70.5467 40.551 70.7 40.551 70.82C40.551 71.3667 40.711 71.7867 41.031 72.08C41.3643 72.3733 41.8043 72.52 42.351 72.52C42.911 72.52 43.371 72.42 43.731 72.22C44.1043 72.0067 44.291 71.6933 44.291 71.28C44.291 70.8667 44.091 70.54 43.691 70.3C43.3043 70.0467 42.831 69.8467 42.271 69.7C41.7243 69.5533 41.171 69.3933 40.611 69.22C40.051 69.0333 39.571 68.7467 39.171 68.36C38.7843 67.9733 38.591 67.4867 38.591 66.9C38.591 65.98 39.0777 65.2067 40.051 64.58C41.0243 63.9533 42.0443 63.64 43.111 63.64C44.2843 63.64 45.1777 63.88 45.791 64.36C46.151 64.64 46.331 65.0133 46.331 65.48C46.331 65.9333 46.151 66.3067 45.791 66.6C45.4443 66.88 45.0177 67.02 44.511 67.02C44.4043 67.02 44.271 67.0067 44.111 66.98C44.151 66.8067 44.171 66.6533 44.171 66.52C44.171 66.1333 44.0243 65.84 43.731 65.64C43.4377 65.44 43.0377 65.34 42.531 65.34C42.0377 65.34 41.5843 65.44 41.171 65.64C41.011 65.8533 40.931 66.1267 40.931 66.46C40.931 66.7933 41.1243 67.0667 41.511 67.28C41.8977 67.48 42.3643 67.66 42.911 67.82C43.471 67.9667 44.031 68.14 44.591 68.34C45.151 68.5267 45.6243 68.8267 46.011 69.24C46.3977 69.64 46.591 70.1467 46.591 70.76C46.591 71.76 46.091 72.5933 45.091 73.26C44.1043 73.9133 43.0843 74.24 42.031 74.24C40.9777 74.24 40.1043 74.0533 39.411 73.68C38.731 73.2933 38.391 72.7133 38.391 71.94C38.391 71.46 38.5643 71.0733 38.911 70.78C39.271 70.4733 39.7043 70.32 40.211 70.32C40.3177 70.32 40.451 70.3333 40.611 70.36ZM48.7126 60.94C49.1392 60.7267 49.5726 60.62 50.0126 60.62C50.4526 60.62 50.8059 60.76 51.0726 61.04C51.3526 61.32 51.4926 61.7333 51.4926 62.28C51.4926 62.8267 51.4592 63.4467 51.3926 64.14C52.3926 64.14 53.3459 64 54.2526 63.72C54.4126 63.9867 54.4926 64.3 54.4926 64.66C54.4926 65.0067 54.3326 65.2933 54.0126 65.52C53.7059 65.7333 53.3926 65.84 53.0726 65.84C52.7526 65.84 52.3926 65.8 51.9926 65.72C51.5926 65.64 51.3326 65.5933 51.2126 65.58C51.1992 65.7 51.1592 65.94 51.0926 66.3C51.0392 66.66 50.9926 66.9733 50.9526 67.24C50.8459 67.9733 50.7926 68.76 50.7926 69.6C50.7926 71.4267 51.3859 72.34 52.5726 72.34C53.0126 72.34 53.5192 72.1867 54.0926 71.88C54.2659 72.1333 54.3526 72.46 54.3526 72.86C54.3526 73.26 54.1326 73.5733 53.6926 73.8C53.2659 74.0133 52.7526 74.12 52.1526 74.12C49.8059 74.12 48.6326 72.7867 48.6326 70.12C48.6326 69.7333 48.6859 69.0333 48.7926 68.02C48.9126 67.0067 48.9726 66.1867 48.9726 65.56C48.3326 65.6 47.8192 65.7133 47.4326 65.9C47.2726 65.66 47.1926 65.3867 47.1926 65.08C47.1926 64.76 47.3059 64.5 47.5326 64.3C47.7592 64.0867 48.0392 63.98 48.3726 63.98C48.7059 63.98 48.9259 63.9867 49.0326 64C49.0459 63.8933 49.0526 63.7533 49.0526 63.58C49.0526 62.58 48.9392 61.7 48.7126 60.94ZM58.7632 73.76C58.3499 73.92 57.9099 74 57.4432 74C56.9765 74 56.5965 73.8933 56.3032 73.68C56.0232 73.4533 55.8832 73.1467 55.8832 72.76C55.8832 72.36 55.9432 71.64 56.0632 70.6C56.1832 69.56 56.2432 68.5533 56.2432 67.58C56.2432 66.5933 56.0899 65.44 55.7832 64.12C56.2099 63.96 56.6299 63.88 57.0432 63.88C57.4565 63.88 57.8099 64.02 58.1032 64.3C58.4099 64.58 58.5632 64.9533 58.5632 65.42C58.5632 65.66 58.5232 66.02 58.4432 66.5C58.3632 66.9667 58.3165 67.32 58.3032 67.56C58.8232 66.3733 59.4365 65.4467 60.1432 64.78C60.8632 64.1 61.5765 63.76 62.2832 63.76C62.7765 63.76 63.1699 63.9333 63.4632 64.28C63.7565 64.6267 63.9032 65.0667 63.9032 65.6C63.9032 66.12 63.7699 66.5467 63.5032 66.88C63.2365 67.2 62.9032 67.36 62.5032 67.36C62.1165 67.36 61.8032 67.32 61.5632 67.24C61.6032 67.08 61.6232 66.9333 61.6232 66.8C61.6232 66.2533 61.4299 65.98 61.0432 65.98C60.4565 65.98 59.9032 66.5733 59.3832 67.76C58.8765 68.9333 58.5365 70.0333 58.3632 71.06C58.4299 72.06 58.5632 72.96 58.7632 73.76ZM74.1038 64.58C73.7438 66.1133 73.5638 67.6533 73.5638 69.2C73.5638 70.7333 73.7372 72.2533 74.0838 73.76C73.6038 73.92 73.1105 74 72.6038 74C72.0972 74 71.7438 73.8533 71.5438 73.56C71.3438 73.2533 71.2438 72.82 71.2438 72.26C71.2438 71.6867 71.3305 70.9067 71.5038 69.92C70.5572 71.9467 69.6438 73.2267 68.7638 73.76C68.3638 74 67.9505 74.12 67.5238 74.12C66.5105 74.12 65.7238 73.7467 65.1638 73C64.6038 72.24 64.3238 71.3 64.3238 70.18C64.3238 68.4733 64.7972 66.98 65.7438 65.7C66.6905 64.4067 67.9172 63.76 69.4238 63.76C70.9438 63.76 72.5038 64.0333 74.1038 64.58ZM71.4838 65.78C70.7772 65.5667 70.1772 65.46 69.6838 65.46C68.6838 65.46 67.9372 65.68 67.4438 66.12C66.9905 67.24 66.7638 68.38 66.7638 69.54C66.7638 70.1533 66.8572 70.7733 67.0438 71.4C67.2438 72.0267 67.5438 72.34 67.9438 72.34C68.4105 72.34 69.0105 71.6533 69.7438 70.28C70.4772 68.9067 71.0572 67.4067 71.4838 65.78ZM76.6423 60.94C77.0689 60.7267 77.5023 60.62 77.9423 60.62C78.3823 60.62 78.7356 60.76 79.0023 61.04C79.2823 61.32 79.4223 61.7333 79.4223 62.28C79.4223 62.8267 79.3889 63.4467 79.3223 64.14C80.3223 64.14 81.2756 64 82.1823 63.72C82.3423 63.9867 82.4223 64.3 82.4223 64.66C82.4223 65.0067 82.2623 65.2933 81.9423 65.52C81.6356 65.7333 81.3223 65.84 81.0023 65.84C80.6823 65.84 80.3223 65.8 79.9223 65.72C79.5223 65.64 79.2623 65.5933 79.1423 65.58C79.1289 65.7 79.0889 65.94 79.0223 66.3C78.9689 66.66 78.9223 66.9733 78.8823 67.24C78.7756 67.9733 78.7223 68.76 78.7223 69.6C78.7223 71.4267 79.3156 72.34 80.5023 72.34C80.9423 72.34 81.4489 72.1867 82.0223 71.88C82.1956 72.1333 82.2823 72.46 82.2823 72.86C82.2823 73.26 82.0623 73.5733 81.6223 73.8C81.1956 74.0133 80.6823 74.12 80.0823 74.12C77.7356 74.12 76.5623 72.7867 76.5623 70.12C76.5623 69.7333 76.6156 69.0333 76.7223 68.02C76.8423 67.0067 76.9023 66.1867 76.9023 65.56C76.2623 65.6 75.7489 65.7133 75.3623 65.9C75.2023 65.66 75.1223 65.3867 75.1223 65.08C75.1223 64.76 75.2356 64.5 75.4623 64.3C75.6889 64.0867 75.9689 63.98 76.3023 63.98C76.6356 63.98 76.8556 63.9867 76.9623 64C76.9756 63.8933 76.9823 63.7533 76.9823 63.58C76.9823 62.58 76.8689 61.7 76.6423 60.94ZM83.8329 64.06C84.2596 63.94 84.6862 63.88 85.1129 63.88C85.5529 63.88 85.9262 64.0133 86.2329 64.28C86.5396 64.5467 86.6929 64.8933 86.6929 65.32C86.6929 65.7333 86.6196 66.46 86.4729 67.5C86.3396 68.5267 86.2729 69.3267 86.2729 69.9C86.2729 71.3933 86.4129 72.68 86.6929 73.76C86.2796 73.92 85.8329 74 85.3529 74C84.8729 74 84.4929 73.8933 84.2129 73.68C83.9329 73.4533 83.7929 73.1333 83.7929 72.72C83.7929 72.2933 83.8729 71.6 84.0329 70.64C84.1929 69.68 84.2729 68.8867 84.2729 68.26C84.2729 66.5933 84.1262 65.1933 83.8329 64.06ZM84.0929 59.54C84.5596 59.3267 85.0196 59.22 85.4729 59.22C85.9262 59.22 86.2596 59.34 86.4729 59.58C86.6996 59.8067 86.8129 60.1467 86.8129 60.6C86.8129 61.0533 86.6596 61.4533 86.3529 61.8C86.0596 62.1467 85.6729 62.32 85.1929 62.32C84.2062 62.32 83.7129 61.8067 83.7129 60.78C83.7129 60.3267 83.8396 59.9133 84.0929 59.54ZM92.4905 74.24C91.0239 74.24 89.9439 73.8133 89.2505 72.96C88.5572 72.0933 88.2105 70.8933 88.2105 69.36C88.2105 67.8133 88.6705 66.4733 89.5905 65.34C90.5105 64.2067 91.6905 63.64 93.1305 63.64C96.0905 63.64 97.5705 65.3067 97.5705 68.64C97.5705 70.2 97.0905 71.5267 96.1305 72.62C95.1705 73.7 93.9572 74.24 92.4905 74.24ZM91.0505 65.84C90.8105 66.6133 90.6905 67.3867 90.6905 68.16C90.6905 68.9333 90.7172 69.5333 90.7705 69.96C90.8239 70.3867 90.9239 70.8133 91.0705 71.24C91.3772 72.1067 91.9772 72.54 92.8705 72.54C93.7772 72.54 94.3705 72.3 94.6505 71.82C94.9439 71.34 95.0905 70.6 95.0905 69.6C95.0905 66.76 94.4172 65.34 93.0705 65.34C92.2972 65.34 91.6239 65.5067 91.0505 65.84ZM108.464 65.92L108.264 70.32C108.264 71.5333 108.45 72.72 108.824 73.88C108.45 74.04 108.024 74.12 107.544 74.12C106.41 74.12 105.844 73.4867 105.844 72.22C105.844 71.6467 105.917 70.6867 106.064 69.34C106.21 67.98 106.284 67.1267 106.284 66.78C106.284 66.1133 105.984 65.78 105.384 65.78C104.944 65.78 104.444 66.1 103.884 66.74C103.337 67.3667 102.864 68.0733 102.464 68.86C102.077 69.6333 101.85 70.2733 101.784 70.78C101.837 71.82 101.97 72.8133 102.184 73.76C101.757 73.92 101.31 74 100.844 74C100.39 74 100.017 73.8933 99.7235 73.68C99.4435 73.4533 99.3035 73.1467 99.3035 72.76C99.3035 72.36 99.3635 71.6533 99.4835 70.64C99.6035 69.6133 99.6635 68.6 99.6635 67.6C99.6635 66.5867 99.5102 65.4267 99.2035 64.12C99.6302 63.96 100.084 63.88 100.564 63.88C101.044 63.88 101.43 64.02 101.724 64.3C102.03 64.58 102.184 64.9267 102.184 65.34C102.184 65.7533 102.13 66.4133 102.024 67.32C102.53 66.3733 103.19 65.5467 104.004 64.84C104.817 64.12 105.63 63.76 106.444 63.76C107.79 63.76 108.464 64.48 108.464 65.92Z" fill="white"/>
</g>
<defs>
<clipPath id="clip0_1116_394">
<rect width="109" height="79" fill="white"/>
</clipPath>
</defs>
</svg>
