<svg width="257" height="111" viewBox="0 0 257 111" fill="none" xmlns="http://www.w3.org/2000/svg">
<path d="M26.0312 21.2188C25.8438 21.3438 25.4844 21.4062 24.9531 21.4062C24.4844 21.4062 24 21.3438 23.5 21.2188C21.0312 16.375 19.5938 13.6875 19.1875 13.1562C18.5 12.2188 16.6406 11.3281 13.6094 10.4844C12.6719 10.2344 11.9375 9.625 11.4062 8.65625C11.1562 7.78125 10.75 6.5 10.1875 4.8125C9.75 3.84375 9.26562 2.92188 8.73438 2.04688V0.96875H10.6562C13.25 1.75 15.2188 2.45313 16.5625 3.07812C18.875 4.14063 20.5 5.45313 21.4375 7.01562C21.9375 7.85938 22.6562 9.84375 23.5938 12.9688C24 14.4063 24.7344 16.4844 25.7969 19.2031C25.9531 20.1406 26.0312 20.8125 26.0312 21.2188ZM32.6406 31.7656H4.42188V26.1406H32.6406V31.7656ZM26.2188 95.0469C26.2188 98.1406 24.1719 100.797 20.0781 103.016C18.1719 104.047 16.1094 104.562 13.8906 104.562C11.3281 104.562 8.73438 103.688 6.10938 101.938C3.48438 100.188 1.67188 98.1406 0.671875 95.7969L7.9375 90.1719C8.53125 98.1094 10.75 102.078 14.5938 102.078C16.8125 102.078 17.9219 100.766 17.9219 98.1406V37.5312H26.2188V95.0469ZM76.2344 31.7656H45.0156V39.2656C45.1406 39.2656 45.2656 39.3281 45.3906 39.4531C45.5156 39.5781 45.625 39.6406 45.7188 39.6406C45.4688 39.6406 45.3281 39.625 45.2969 39.5938C45.2969 39.4375 47.625 38.9375 52.2812 38.0938C54 37.7812 55.7031 37.625 57.3906 37.625C64.4219 37.625 68.9375 39.5938 70.9375 43.5312C72.2812 46.1562 72.9531 51.4531 72.9531 59.4219V77.4688C72.2969 77.2188 69.8125 76.2031 65.5 74.4219C65.5 73.4219 65.2969 72.7812 64.8906 72.5C63.2344 73.4688 61.875 74.2031 60.8125 74.7031C57.4375 76.2969 53.5156 77.0938 49.0469 77.0938C42.8906 77.0938 38.1406 75.1562 34.7969 71.2812C33.1719 69.4062 32.3594 67.3125 32.3594 65C32.3594 62.4062 33.6406 59.8281 36.2031 57.2656C41.1719 52.2969 47.3438 49.8125 54.7188 49.8125C59.1875 49.8125 62.7812 50.8438 65.5 52.9062V48.5938C64.125 46.8438 62.7812 45.6719 61.4688 45.0781C60.1875 44.4844 58.4219 44.2188 56.1719 44.2812C51.1406 44.375 46.5312 45.2969 42.3438 47.0469C40.4688 47.8281 38.6406 48.5312 36.8594 49.1562V45.6875C37.2656 45.3438 37.8594 44.8281 38.6406 44.1406C38.7656 43.9844 38.8438 43.8906 38.875 43.8594V31.7656H29.2656V26.1406H76.2344V31.7656ZM65.5 61.4375C65.5 60.0625 63.8594 58.8281 60.5781 57.7344C57.8594 56.8281 55.5938 56.375 53.7812 56.375C47.1875 56.375 41.9062 58.75 37.9375 63.5C36.3438 65.4062 35.5469 66.9688 35.5469 68.1875C36.2031 70.4688 38.7812 71.6094 43.2812 71.6094C49.0938 71.6094 54.4062 70.1562 59.2188 67.25C63.4062 64.7188 65.5 62.7812 65.5 61.4375ZM91.9375 21.2188C91.8125 21.3438 91.4531 21.4062 90.8594 21.4062C90.3594 21.4062 89.9219 21.3438 89.5469 21.2188L86.5 14.9844C85.25 13.0156 83.5469 11.6875 81.3906 11C79.2656 10.2813 77.9531 9.5 77.4531 8.65625C76.9844 7.21875 76.0781 5.01562 74.7344 2.04688V0.96875H76.5625C78.9688 1.71875 80.9219 2.42188 82.4219 3.07812C84.8906 4.17187 86.5469 5.4375 87.3906 6.875C87.8594 7.65625 88.5781 9.65625 89.5469 12.875C90.4531 15.9063 91.2188 18.0156 91.8438 19.2031C91.9062 19.7656 91.9375 20.4375 91.9375 21.2188ZM94.7031 31.7656H75.625V26.1406H94.7031V31.7656ZM89.3594 78.0781L81.4844 73.7188V37.5312H89.3594V78.0781ZM147.578 31.7656H93.8125V26.1406H147.578V31.7656ZM143.828 57.6875C143.828 61.125 142.797 64.375 140.734 67.4375C138.828 70.2812 136.312 72.6094 133.188 74.4219C130.062 76.2031 127.172 77.0938 124.516 77.0938C121.922 77.0938 118.688 75.6406 114.812 72.7344C112.938 71.3281 110.188 68.9062 106.562 65.4688V105.219L99.0625 101.281V39.2656H106.375V50.7031L109.234 47.7031C115.828 40.7969 121.172 37.3438 125.266 37.3438C129.703 37.3438 133.938 39.6406 137.969 44.2344C141.875 48.7031 143.828 53.1875 143.828 57.6875ZM139.188 52.25C139.188 49.875 137.953 47.5938 135.484 45.4062C134.266 44.3125 132.719 43.7656 130.844 43.7656C127.156 43.7656 122.578 46 117.109 50.4688C111.484 55.0625 108.672 59.1406 108.672 62.7031C108.672 64.7969 110.625 66.6406 114.531 68.2344C116.281 68.9531 117.984 69.3125 119.641 69.3125C125.078 69.3125 129.797 67.2188 133.797 63.0312C137.391 59.2812 139.188 55.6875 139.188 52.25ZM199.188 31.7656H159.953V61.8125C159.953 63.8125 160.375 65.875 161.219 68C162.938 72.3438 165.781 74.5156 169.75 74.5156C175.094 74.5156 179.156 72.2812 181.938 67.8125C184.094 64.375 185.172 61.1406 185.172 58.1094V39.4531H194.688V79.3906C193.938 78.9531 192.531 78.2812 190.469 77.375L185.078 74.9844V71.2344C181.391 73.9219 178.234 75.625 175.609 76.3438C174.016 76.7812 172.125 77 169.938 77C163 77 157.578 73.9531 153.672 67.8594C151.891 65.0781 151 62.0469 151 58.7656V31.7656H145.328V26.1406H199.188V31.7656ZM245.734 31.7656H198.344V26.1406H245.734V31.7656ZM241.844 48.5938C241.844 50.4375 240.734 52.5156 238.516 54.8281C236.641 56.7969 234.672 58.2656 232.609 59.2344L225.578 51.2656C227.703 51.0781 229.719 50.2969 231.625 48.9219C233.812 47.3594 234.906 45.5781 234.906 43.5781C234.906 42.5156 234.219 41.6094 232.844 40.8594C231.656 40.1719 230.484 39.8281 229.328 39.8281C226.922 39.8281 224.344 40.9844 221.594 43.2969C216 47.9844 213.203 53.1719 213.203 58.8594V78.7344L204.203 74.0469V39.3594H213.297V42.9219C214.641 41.5781 217.422 40.1719 221.641 38.7031C223.703 37.9844 225.828 37.625 228.016 37.625C232.547 37.625 236.391 39.3594 239.547 42.8281C241.078 44.5156 241.844 46.4375 241.844 48.5938Z" fill="white"/>
<path d="M133.048 96.84C133.768 98.36 134.68 99.688 135.784 100.824C136.888 101.96 137.984 102.696 139.072 103.032C139.072 103.704 138.896 104.224 138.544 104.592C138.192 104.96 137.688 105.144 137.032 105.144C136.184 105.144 135.216 104.6 134.128 103.512C133.04 102.408 132.088 101.112 131.272 99.624C130.472 98.12 130 96.8 129.856 95.664C131.008 95.664 131.952 95.36 132.688 94.752C133.44 94.128 133.816 93.248 133.816 92.112C133.816 90.672 132.92 89.952 131.128 89.952C130.552 89.952 129.848 90.048 129.016 90.24C128.904 92.4 128.848 94.144 128.848 95.472C128.848 99.728 129.016 102.808 129.352 104.712C128.84 104.904 128.296 105 127.72 105C127.144 105 126.64 104.816 126.208 104.448C125.792 104.08 125.584 103.592 125.584 102.984C125.584 102.376 125.664 101.32 125.824 99.816C125.984 98.296 126.064 97.08 126.064 96.168C126.064 93.368 125.864 90.88 125.464 88.704C127.624 88.112 129.68 87.816 131.632 87.816C135.2 87.816 136.984 89.088 136.984 91.632C136.984 92.752 136.6 93.808 135.832 94.8C135.08 95.776 134.152 96.456 133.048 96.84ZM142.713 99.552C142.713 100.704 142.897 101.616 143.265 102.288C143.633 102.944 144.249 103.272 145.113 103.272C145.977 103.272 146.649 102.984 147.129 102.408C147.625 101.816 147.873 101.104 147.873 100.272C148.417 100.272 148.889 100.408 149.289 100.68C149.689 100.952 149.889 101.328 149.889 101.808C149.889 102.8 149.361 103.632 148.305 104.304C147.249 104.96 146.137 105.288 144.969 105.288C143.145 105.288 141.825 104.8 141.009 103.824C140.193 102.832 139.785 101.368 139.785 99.432C139.785 97.496 140.329 95.872 141.417 94.56C142.521 93.232 143.985 92.568 145.809 92.568C147.057 92.568 148.057 92.856 148.809 93.432C149.577 93.992 149.961 94.872 149.961 96.072C149.961 97.256 149.417 98.152 148.329 98.76C147.257 99.352 145.945 99.648 144.393 99.648C143.849 99.648 143.289 99.616 142.713 99.552ZM142.737 97.656C143.217 97.752 143.721 97.8 144.249 97.8C145.401 97.8 146.369 97.584 147.153 97.152C147.249 96.768 147.297 96.464 147.297 96.24C147.297 95.68 147.097 95.256 146.697 94.968C146.297 94.68 145.745 94.536 145.041 94.536C144.353 94.536 143.729 94.76 143.169 95.208C142.881 96.04 142.737 96.856 142.737 97.656ZM160.385 95.136C159.537 94.88 158.697 94.752 157.865 94.752C157.033 94.752 156.249 95 155.513 95.496C154.937 96.648 154.649 97.872 154.649 99.168C154.649 99.92 154.753 100.656 154.961 101.376C155.169 102.08 155.513 102.432 155.993 102.432C156.537 102.432 157.265 101.656 158.177 100.104C159.089 98.552 159.825 96.896 160.385 95.136ZM156.785 108.936C157.809 108.936 158.609 108.584 159.185 107.88C159.761 107.176 160.049 106.272 160.049 105.168C160.049 104.624 160.009 103.832 159.929 102.792C159.865 101.752 159.825 101.016 159.809 100.584C158.673 102.568 157.681 103.784 156.833 104.232C156.401 104.456 155.945 104.568 155.465 104.568C154.265 104.568 153.337 104.096 152.681 103.152C152.025 102.208 151.697 101.056 151.697 99.696C151.697 97.84 152.273 96.216 153.425 94.824C154.593 93.416 156.065 92.712 157.841 92.712C159.633 92.712 161.441 93.024 163.265 93.648C162.785 95.36 162.545 97.04 162.545 98.688C162.545 99.472 162.601 100.448 162.713 101.616C162.825 102.768 162.881 103.624 162.881 104.184C162.881 106.152 162.257 107.776 161.009 109.056C159.761 110.352 158.161 111 156.209 111C155.057 111 154.065 110.776 153.233 110.328C152.417 109.896 152.009 109.216 152.009 108.288C152.009 107.712 152.225 107.224 152.657 106.824C153.089 106.424 153.601 106.224 154.193 106.224C154.321 106.224 154.481 106.24 154.673 106.272C154.625 106.48 154.601 106.664 154.601 106.824C154.601 107.4 154.817 107.896 155.249 108.312C155.681 108.728 156.193 108.936 156.785 108.936ZM165.563 93.072C166.075 92.928 166.587 92.856 167.099 92.856C167.627 92.856 168.075 93.016 168.443 93.336C168.811 93.656 168.995 94.072 168.995 94.584C168.995 95.08 168.907 95.952 168.731 97.2C168.571 98.432 168.491 99.392 168.491 100.08C168.491 101.872 168.659 103.416 168.995 104.712C168.499 104.904 167.963 105 167.387 105C166.811 105 166.355 104.872 166.019 104.616C165.683 104.344 165.515 103.96 165.515 103.464C165.515 102.952 165.611 102.12 165.803 100.968C165.995 99.816 166.091 98.864 166.091 98.112C166.091 96.112 165.915 94.432 165.563 93.072ZM165.875 87.648C166.435 87.392 166.987 87.264 167.531 87.264C168.075 87.264 168.475 87.408 168.731 87.696C169.003 87.968 169.139 88.376 169.139 88.92C169.139 89.464 168.955 89.944 168.587 90.36C168.235 90.776 167.771 90.984 167.195 90.984C166.011 90.984 165.419 90.368 165.419 89.136C165.419 88.592 165.571 88.096 165.875 87.648ZM173.72 100.632C173.672 100.856 173.648 101.04 173.648 101.184C173.648 101.84 173.84 102.344 174.224 102.696C174.624 103.048 175.152 103.224 175.808 103.224C176.48 103.224 177.032 103.104 177.464 102.864C177.912 102.608 178.136 102.232 178.136 101.736C178.136 101.24 177.896 100.848 177.416 100.56C176.952 100.256 176.384 100.016 175.712 99.84C175.056 99.664 174.392 99.472 173.72 99.264C173.048 99.04 172.472 98.696 171.992 98.232C171.528 97.768 171.296 97.184 171.296 96.48C171.296 95.376 171.88 94.448 173.048 93.696C174.216 92.944 175.44 92.568 176.72 92.568C178.128 92.568 179.2 92.856 179.936 93.432C180.368 93.768 180.584 94.216 180.584 94.776C180.584 95.32 180.368 95.768 179.936 96.12C179.52 96.456 179.008 96.624 178.4 96.624C178.272 96.624 178.112 96.608 177.92 96.576C177.968 96.368 177.992 96.184 177.992 96.024C177.992 95.56 177.816 95.208 177.464 94.968C177.112 94.728 176.632 94.608 176.024 94.608C175.432 94.608 174.888 94.728 174.392 94.968C174.2 95.224 174.104 95.552 174.104 95.952C174.104 96.352 174.336 96.68 174.8 96.936C175.264 97.176 175.824 97.392 176.48 97.584C177.152 97.76 177.824 97.968 178.496 98.208C179.168 98.432 179.736 98.792 180.2 99.288C180.664 99.768 180.896 100.376 180.896 101.112C180.896 102.312 180.296 103.312 179.096 104.112C177.912 104.896 176.688 105.288 175.424 105.288C174.16 105.288 173.112 105.064 172.28 104.616C171.464 104.152 171.056 103.456 171.056 102.528C171.056 101.952 171.264 101.488 171.68 101.136C172.112 100.768 172.632 100.584 173.24 100.584C173.368 100.584 173.528 100.6 173.72 100.632ZM183.442 89.328C183.954 89.072 184.474 88.944 185.002 88.944C185.53 88.944 185.954 89.112 186.274 89.448C186.61 89.784 186.778 90.28 186.778 90.936C186.778 91.592 186.738 92.336 186.658 93.168C187.858 93.168 189.002 93 190.09 92.664C190.282 92.984 190.378 93.36 190.378 93.792C190.378 94.208 190.186 94.552 189.802 94.824C189.434 95.08 189.058 95.208 188.674 95.208C188.29 95.208 187.858 95.16 187.378 95.064C186.898 94.968 186.586 94.912 186.442 94.896C186.426 95.04 186.378 95.328 186.298 95.76C186.234 96.192 186.178 96.568 186.13 96.888C186.002 97.768 185.938 98.712 185.938 99.72C185.938 101.912 186.65 103.008 188.074 103.008C188.602 103.008 189.21 102.824 189.898 102.456C190.106 102.76 190.21 103.152 190.21 103.632C190.21 104.112 189.946 104.488 189.418 104.76C188.906 105.016 188.29 105.144 187.57 105.144C184.754 105.144 183.346 103.544 183.346 100.344C183.346 99.88 183.41 99.04 183.538 97.824C183.682 96.608 183.754 95.624 183.754 94.872C182.986 94.92 182.37 95.056 181.906 95.28C181.714 94.992 181.618 94.664 181.618 94.296C181.618 93.912 181.754 93.6 182.026 93.36C182.298 93.104 182.634 92.976 183.034 92.976C183.434 92.976 183.698 92.984 183.826 93C183.842 92.872 183.85 92.704 183.85 92.496C183.85 91.296 183.714 90.24 183.442 89.328ZM195.503 104.712C195.007 104.904 194.479 105 193.919 105C193.359 105 192.903 104.872 192.551 104.616C192.215 104.344 192.047 103.976 192.047 103.512C192.047 103.032 192.119 102.168 192.263 100.92C192.407 99.672 192.479 98.464 192.479 97.296C192.479 96.112 192.295 94.728 191.927 93.144C192.439 92.952 192.943 92.856 193.439 92.856C193.935 92.856 194.359 93.024 194.711 93.36C195.079 93.696 195.263 94.144 195.263 94.704C195.263 94.992 195.215 95.424 195.119 96C195.023 96.56 194.967 96.984 194.951 97.272C195.575 95.848 196.311 94.736 197.159 93.936C198.023 93.12 198.879 92.712 199.727 92.712C200.319 92.712 200.791 92.92 201.143 93.336C201.495 93.752 201.671 94.28 201.671 94.92C201.671 95.544 201.511 96.056 201.191 96.456C200.871 96.84 200.471 97.032 199.991 97.032C199.527 97.032 199.151 96.984 198.863 96.888C198.911 96.696 198.935 96.52 198.935 96.36C198.935 95.704 198.703 95.376 198.239 95.376C197.535 95.376 196.871 96.088 196.247 97.512C195.639 98.92 195.231 100.24 195.023 101.472C195.103 102.672 195.263 103.752 195.503 104.712ZM213.911 93.696C213.479 95.536 213.263 97.384 213.263 99.24C213.263 101.08 213.471 102.904 213.887 104.712C213.311 104.904 212.719 105 212.111 105C211.503 105 211.079 104.824 210.839 104.472C210.599 104.104 210.479 103.584 210.479 102.912C210.479 102.224 210.583 101.288 210.791 100.104C209.655 102.536 208.559 104.072 207.503 104.712C207.023 105 206.527 105.144 206.015 105.144C204.799 105.144 203.855 104.696 203.183 103.8C202.511 102.888 202.175 101.76 202.175 100.416C202.175 98.368 202.743 96.576 203.879 95.04C205.015 93.488 206.487 92.712 208.295 92.712C210.119 92.712 211.991 93.04 213.911 93.696ZM210.767 95.136C209.919 94.88 209.199 94.752 208.607 94.752C207.407 94.752 206.511 95.016 205.919 95.544C205.375 96.888 205.103 98.256 205.103 99.648C205.103 100.384 205.215 101.128 205.439 101.88C205.679 102.632 206.039 103.008 206.519 103.008C207.079 103.008 207.799 102.184 208.679 100.536C209.559 98.888 210.255 97.088 210.767 95.136ZM216.957 89.328C217.469 89.072 217.989 88.944 218.517 88.944C219.045 88.944 219.469 89.112 219.789 89.448C220.125 89.784 220.293 90.28 220.293 90.936C220.293 91.592 220.253 92.336 220.173 93.168C221.373 93.168 222.517 93 223.605 92.664C223.797 92.984 223.893 93.36 223.893 93.792C223.893 94.208 223.701 94.552 223.317 94.824C222.949 95.08 222.573 95.208 222.189 95.208C221.805 95.208 221.373 95.16 220.893 95.064C220.413 94.968 220.101 94.912 219.957 94.896C219.941 95.04 219.893 95.328 219.813 95.76C219.749 96.192 219.693 96.568 219.645 96.888C219.517 97.768 219.453 98.712 219.453 99.72C219.453 101.912 220.165 103.008 221.589 103.008C222.117 103.008 222.725 102.824 223.413 102.456C223.621 102.76 223.725 103.152 223.725 103.632C223.725 104.112 223.461 104.488 222.933 104.76C222.421 105.016 221.805 105.144 221.085 105.144C218.269 105.144 216.861 103.544 216.861 100.344C216.861 99.88 216.925 99.04 217.053 97.824C217.197 96.608 217.269 95.624 217.269 94.872C216.501 94.92 215.885 95.056 215.421 95.28C215.229 94.992 215.133 94.664 215.133 94.296C215.133 93.912 215.269 93.6 215.541 93.36C215.813 93.104 216.149 92.976 216.549 92.976C216.949 92.976 217.213 92.984 217.341 93C217.357 92.872 217.365 92.704 217.365 92.496C217.365 91.296 217.229 90.24 216.957 89.328ZM225.586 93.072C226.098 92.928 226.61 92.856 227.122 92.856C227.65 92.856 228.098 93.016 228.466 93.336C228.834 93.656 229.018 94.072 229.018 94.584C229.018 95.08 228.93 95.952 228.754 97.2C228.594 98.432 228.514 99.392 228.514 100.08C228.514 101.872 228.682 103.416 229.018 104.712C228.522 104.904 227.986 105 227.41 105C226.834 105 226.378 104.872 226.042 104.616C225.706 104.344 225.538 103.96 225.538 103.464C225.538 102.952 225.634 102.12 225.826 100.968C226.018 99.816 226.114 98.864 226.114 98.112C226.114 96.112 225.938 94.432 225.586 93.072ZM225.898 87.648C226.458 87.392 227.01 87.264 227.554 87.264C228.098 87.264 228.498 87.408 228.754 87.696C229.026 87.968 229.162 88.376 229.162 88.92C229.162 89.464 228.978 89.944 228.61 90.36C228.258 90.776 227.794 90.984 227.218 90.984C226.034 90.984 225.442 90.368 225.442 89.136C225.442 88.592 225.594 88.096 225.898 87.648ZM235.975 105.288C234.215 105.288 232.919 104.776 232.087 103.752C231.255 102.712 230.839 101.272 230.839 99.432C230.839 97.576 231.391 95.968 232.495 94.608C233.599 93.248 235.015 92.568 236.743 92.568C240.295 92.568 242.071 94.568 242.071 98.568C242.071 100.44 241.495 102.032 240.343 103.344C239.191 104.64 237.735 105.288 235.975 105.288ZM234.247 95.208C233.959 96.136 233.815 97.064 233.815 97.992C233.815 98.92 233.847 99.64 233.911 100.152C233.975 100.664 234.095 101.176 234.271 101.688C234.639 102.728 235.359 103.248 236.431 103.248C237.519 103.248 238.231 102.96 238.567 102.384C238.919 101.808 239.095 100.92 239.095 99.72C239.095 96.312 238.287 94.608 236.671 94.608C235.743 94.608 234.935 94.808 234.247 95.208ZM255.143 95.304L254.903 100.584C254.903 102.04 255.127 103.464 255.575 104.856C255.127 105.048 254.615 105.144 254.039 105.144C252.679 105.144 251.999 104.384 251.999 102.864C251.999 102.176 252.087 101.024 252.263 99.408C252.439 97.776 252.527 96.752 252.527 96.336C252.527 95.536 252.167 95.136 251.447 95.136C250.919 95.136 250.319 95.52 249.647 96.288C248.991 97.04 248.423 97.888 247.943 98.832C247.479 99.76 247.207 100.528 247.127 101.136C247.191 102.384 247.351 103.576 247.607 104.712C247.095 104.904 246.559 105 245.999 105C245.455 105 245.007 104.872 244.655 104.616C244.319 104.344 244.151 103.976 244.151 103.512C244.151 103.032 244.223 102.184 244.367 100.968C244.511 99.736 244.583 98.52 244.583 97.32C244.583 96.104 244.399 94.712 244.031 93.144C244.543 92.952 245.087 92.856 245.663 92.856C246.239 92.856 246.703 93.024 247.055 93.36C247.423 93.696 247.607 94.112 247.607 94.608C247.607 95.104 247.543 95.896 247.415 96.984C248.023 95.848 248.815 94.856 249.791 94.008C250.767 93.144 251.743 92.712 252.719 92.712C254.335 92.712 255.143 93.576 255.143 95.304Z" fill="white"/>
</svg>
