<svg width="345" height="130" viewBox="0 0 345 130" fill="none" xmlns="http://www.w3.org/2000/svg">
<path d="M28.7188 39.7656H23.75V34.1406H28.7188V39.7656ZM12.6875 39.7656H7.34375V34.1406H12.6875V39.7656ZM22.2031 28.4688V86.1719C21.8906 86.0781 21.4844 85.9062 20.9844 85.6562L18.5469 84.3906C15.7656 82.9531 14.2969 82.2344 14.1406 82.2344V28.5625C14.1406 25.2812 13.5 21.7969 12.2188 18.1094C10.4375 12.9531 7.67188 8.26562 3.92188 4.04688L0.96875 0.71875H10.9531C16.1406 5.90625 19.5469 12.2656 21.1719 19.7969C21.8594 22.9844 22.2031 25.875 22.2031 28.4688ZM80.4688 39.7656H41.2344V69.8125C41.2344 71.8125 41.6562 73.875 42.5 76C44.2188 80.3438 47.0625 82.5156 51.0312 82.5156C56.375 82.5156 60.4375 80.2812 63.2188 75.8125C65.375 72.375 66.4531 69.1406 66.4531 66.1094V47.4531H75.9688V87.3906C75.2188 86.9531 73.8125 86.2812 71.75 85.375L66.3594 82.9844V79.2344C62.6719 81.9219 59.5156 83.625 56.8906 84.3438C55.2969 84.7812 53.4062 85 51.2188 85C44.2812 85 38.8594 81.9531 34.9531 75.8594C33.1719 73.0781 32.2812 70.0469 32.2812 66.7656V39.7656H26.6094V34.1406H80.4688V39.7656ZM129.734 39.7656H119.938V52.8438C122 54.75 123.25 55.9844 123.688 56.5469C124.469 57.5469 125.266 59.0938 126.078 61.1875H119.844C119.844 57.7812 118.875 55.125 116.938 53.2188C115.031 51.3125 112.375 50.3594 108.969 50.3594C105.406 50.3594 102.078 51.3438 98.9844 53.3125C96.0156 55.1875 93.625 57.7188 91.8125 60.9062C90.0938 63.9375 89.2344 66.875 89.2344 69.7188C89.2344 73.0625 90.4375 75.6094 92.8438 77.3594C94.9688 78.9219 97.7656 79.7031 101.234 79.7031C107.016 79.7031 111.047 78.1094 113.328 74.9219H123.312C122.469 78.2969 119.359 81.1406 113.984 83.4531C111.578 84.4844 109.344 85 107.281 85C103.25 85 99.1875 83.8594 95.0938 81.5781C91.1875 79.4219 87.9688 76.6562 85.4375 73.2812C82.9062 69.875 81.6406 66.5156 81.6406 63.2031C81.6406 60.7031 82.75 57.875 84.9688 54.7188C89.625 48.0938 95.2969 44.7812 101.984 44.7812C106.391 44.7812 109.875 45.7031 112.438 47.5469V39.7656H79.3438V34.1406H129.734V39.7656ZM172.719 39.7656H141.969V51.8594C143.812 50.7969 146.828 49.4062 151.016 47.6875C152.734 47.2188 154.812 46.9844 157.25 46.9844C160.594 46.9844 163.578 47.9062 166.203 49.75C169.141 51.7812 170.609 54.4062 170.609 57.625C170.609 61.9688 168.125 65.125 163.156 67.0938C161.094 67.9062 159.312 68.3125 157.812 68.3125L168.688 81.5312L162.734 85.8438L146 65.9688L149.094 59.5469C150.75 60.0156 152.484 60.25 154.297 60.25C156.953 60.25 159.125 59.625 160.812 58.375C162.719 57 163.672 55.0312 163.672 52.4688C163.672 49.9688 161.891 48.7188 158.328 48.7188C155.828 48.7188 153.172 49.9219 150.359 52.3281C148.359 54.0469 146.531 56.125 144.875 58.5625C142.875 61.5 141.875 64.0156 141.875 66.1094V85.75L133.812 82.1406V39.7656H127.859V34.1406H133.531C133.531 25.1719 131.906 17.7188 128.656 11.7812C128.031 10.625 126.828 8.89062 125.047 6.57812C123.359 4.35938 122.188 2.59375 121.531 1.28125H131.047C132.891 3 134.797 5.82812 136.766 9.76562C140.109 16.4531 141.781 24.5781 141.781 34.1406H172.719V39.7656ZM222.078 39.7656H171.688V34.1406H222.078V39.7656ZM212 60.3438C212 52.8438 208.453 49.0938 201.359 49.0938C196.109 49.0938 191.719 51.8438 188.188 57.3438C185.062 62.2188 183.5 67.4062 183.5 72.9062V86.5469L175.812 82.5156V47.2656H183.875V52.8438L188.047 49.7031C191.734 46.9219 195.625 45.5312 199.719 45.5312C205.281 45.5312 209.891 47.6875 213.547 52C216.984 56.0625 218.703 60.9219 218.703 66.5781C218.703 73.6719 215.703 80.4844 209.703 87.0156L200.656 81.3438C203.469 78.5625 205.859 76 207.828 73.6562C210.609 70.3438 212 65.9062 212 60.3438ZM271.391 39.7656H260.844V52.6562C260.844 52.9375 262.094 54.3281 264.594 56.8281C266.5 59.1406 267.453 62.4531 267.453 66.7656C267.453 73.9219 264.281 79.2188 257.938 82.6562C254.938 84.2812 251.672 85.0938 248.141 85.0938C243.016 85.0938 237.734 82.8281 232.297 78.2969C226.609 73.5469 223.766 68.3906 223.766 62.8281C223.766 60.2656 224.688 57.6094 226.531 54.8594C228.188 52.3906 230.188 50.3438 232.531 48.7188C235.344 46.7812 238.734 45.8125 242.703 45.8125C244.891 45.8125 248.125 46.3906 252.406 47.5469C252.594 47.5469 252.688 47.4219 252.688 47.1719V39.7656H220.531V34.1406H271.391V39.7656ZM260.562 60.5312C260.562 56.125 258.625 53.1719 254.75 51.6719C253.312 51.1094 252.078 50.8281 251.047 50.8281C247.172 50.8281 243 52.5625 238.531 56.0312C233.312 60.0938 230.703 65.2656 230.703 71.5469C230.703 74.4844 232.391 76.8906 235.766 78.7656C237.297 79.6094 238.844 80.0312 240.406 80.0312C244.281 80.0312 248.531 78.1562 253.156 74.4062C258.094 70.4062 260.562 65.7812 260.562 60.5312ZM344.609 34.1406L344.516 39.7656H340.203V68.5938C340.203 72.8125 338.141 76.6406 334.016 80.0781C330.109 83.3594 326 85 321.688 85C317.5 85 313.047 83.1719 308.328 79.5156C304.297 83.1719 299.438 85 293.75 85C290.906 85 288.031 84.0938 285.125 82.2812C282.438 80.625 280.203 78.5469 278.422 76.0469C276.453 73.2656 275.469 70.2656 275.469 67.0469C275.469 62.7656 276.625 58.625 278.938 54.625C281.156 50.75 284.109 47.5938 287.797 45.1562C289.859 47.4375 292.219 49.9375 294.875 52.6562C292.344 54.8438 289.797 57.1562 287.234 59.5938C283.703 62.9688 281.938 66.7969 281.938 71.0781C281.938 77.6719 284.297 80.9688 289.016 80.9688C292.828 80.9688 296.156 79.7969 299 77.4531C301.75 75.2031 303.688 72.2188 304.812 68.5C305.656 65.7188 306.156 63.6406 306.312 62.2656L315.312 66.8594C315.125 69.2344 314.312 71.6875 312.875 74.2188C312.219 75.375 311.75 76.0938 311.469 76.375C312.375 77.7812 314.438 78.4844 317.656 78.4844C323.219 78.4844 327.406 76.5781 330.219 72.7656C331.5 71.0156 332.141 69.1719 332.141 67.2344L332.047 39.7656H269.938V34.1406H344.609Z" fill="#A9017A"/>
<path d="M220.048 115.84C220.768 117.36 221.68 118.688 222.784 119.824C223.888 120.96 224.984 121.696 226.072 122.032C226.072 122.704 225.896 123.224 225.544 123.592C225.192 123.96 224.688 124.144 224.032 124.144C223.184 124.144 222.216 123.6 221.128 122.512C220.04 121.408 219.088 120.112 218.272 118.624C217.472 117.12 217 115.8 216.856 114.664C218.008 114.664 218.952 114.36 219.688 113.752C220.44 113.128 220.816 112.248 220.816 111.112C220.816 109.672 219.92 108.952 218.128 108.952C217.552 108.952 216.848 109.048 216.016 109.24C215.904 111.4 215.848 113.144 215.848 114.472C215.848 118.728 216.016 121.808 216.352 123.712C215.84 123.904 215.296 124 214.72 124C214.144 124 213.64 123.816 213.208 123.448C212.792 123.08 212.584 122.592 212.584 121.984C212.584 121.376 212.664 120.32 212.824 118.816C212.984 117.296 213.064 116.08 213.064 115.168C213.064 112.368 212.864 109.88 212.464 107.704C214.624 107.112 216.68 106.816 218.632 106.816C222.2 106.816 223.984 108.088 223.984 110.632C223.984 111.752 223.6 112.808 222.832 113.8C222.08 114.776 221.152 115.456 220.048 115.84ZM229.713 118.552C229.713 119.704 229.897 120.616 230.265 121.288C230.633 121.944 231.249 122.272 232.113 122.272C232.977 122.272 233.649 121.984 234.129 121.408C234.625 120.816 234.873 120.104 234.873 119.272C235.417 119.272 235.889 119.408 236.289 119.68C236.689 119.952 236.889 120.328 236.889 120.808C236.889 121.8 236.361 122.632 235.305 123.304C234.249 123.96 233.137 124.288 231.969 124.288C230.145 124.288 228.825 123.8 228.009 122.824C227.193 121.832 226.785 120.368 226.785 118.432C226.785 116.496 227.329 114.872 228.417 113.56C229.521 112.232 230.985 111.568 232.809 111.568C234.057 111.568 235.057 111.856 235.809 112.432C236.577 112.992 236.961 113.872 236.961 115.072C236.961 116.256 236.417 117.152 235.329 117.76C234.257 118.352 232.945 118.648 231.393 118.648C230.849 118.648 230.289 118.616 229.713 118.552ZM229.737 116.656C230.217 116.752 230.721 116.8 231.249 116.8C232.401 116.8 233.369 116.584 234.153 116.152C234.249 115.768 234.297 115.464 234.297 115.24C234.297 114.68 234.097 114.256 233.697 113.968C233.297 113.68 232.745 113.536 232.041 113.536C231.353 113.536 230.729 113.76 230.169 114.208C229.881 115.04 229.737 115.856 229.737 116.656ZM247.385 114.136C246.537 113.88 245.697 113.752 244.865 113.752C244.033 113.752 243.249 114 242.513 114.496C241.937 115.648 241.649 116.872 241.649 118.168C241.649 118.92 241.753 119.656 241.961 120.376C242.169 121.08 242.513 121.432 242.993 121.432C243.537 121.432 244.265 120.656 245.177 119.104C246.089 117.552 246.825 115.896 247.385 114.136ZM243.785 127.936C244.809 127.936 245.609 127.584 246.185 126.88C246.761 126.176 247.049 125.272 247.049 124.168C247.049 123.624 247.009 122.832 246.929 121.792C246.865 120.752 246.825 120.016 246.809 119.584C245.673 121.568 244.681 122.784 243.833 123.232C243.401 123.456 242.945 123.568 242.465 123.568C241.265 123.568 240.337 123.096 239.681 122.152C239.025 121.208 238.697 120.056 238.697 118.696C238.697 116.84 239.273 115.216 240.425 113.824C241.593 112.416 243.065 111.712 244.841 111.712C246.633 111.712 248.441 112.024 250.265 112.648C249.785 114.36 249.545 116.04 249.545 117.688C249.545 118.472 249.601 119.448 249.713 120.616C249.825 121.768 249.881 122.624 249.881 123.184C249.881 125.152 249.257 126.776 248.009 128.056C246.761 129.352 245.161 130 243.209 130C242.057 130 241.065 129.776 240.233 129.328C239.417 128.896 239.009 128.216 239.009 127.288C239.009 126.712 239.225 126.224 239.657 125.824C240.089 125.424 240.601 125.224 241.193 125.224C241.321 125.224 241.481 125.24 241.673 125.272C241.625 125.48 241.601 125.664 241.601 125.824C241.601 126.4 241.817 126.896 242.249 127.312C242.681 127.728 243.193 127.936 243.785 127.936ZM252.563 112.072C253.075 111.928 253.587 111.856 254.099 111.856C254.627 111.856 255.075 112.016 255.443 112.336C255.811 112.656 255.995 113.072 255.995 113.584C255.995 114.08 255.907 114.952 255.731 116.2C255.571 117.432 255.491 118.392 255.491 119.08C255.491 120.872 255.659 122.416 255.995 123.712C255.499 123.904 254.963 124 254.387 124C253.811 124 253.355 123.872 253.019 123.616C252.683 123.344 252.515 122.96 252.515 122.464C252.515 121.952 252.611 121.12 252.803 119.968C252.995 118.816 253.091 117.864 253.091 117.112C253.091 115.112 252.915 113.432 252.563 112.072ZM252.875 106.648C253.435 106.392 253.987 106.264 254.531 106.264C255.075 106.264 255.475 106.408 255.731 106.696C256.003 106.968 256.139 107.376 256.139 107.92C256.139 108.464 255.955 108.944 255.587 109.36C255.235 109.776 254.771 109.984 254.195 109.984C253.011 109.984 252.419 109.368 252.419 108.136C252.419 107.592 252.571 107.096 252.875 106.648ZM260.72 119.632C260.672 119.856 260.648 120.04 260.648 120.184C260.648 120.84 260.84 121.344 261.224 121.696C261.624 122.048 262.152 122.224 262.808 122.224C263.48 122.224 264.032 122.104 264.464 121.864C264.912 121.608 265.136 121.232 265.136 120.736C265.136 120.24 264.896 119.848 264.416 119.56C263.952 119.256 263.384 119.016 262.712 118.84C262.056 118.664 261.392 118.472 260.72 118.264C260.048 118.04 259.472 117.696 258.992 117.232C258.528 116.768 258.296 116.184 258.296 115.48C258.296 114.376 258.88 113.448 260.048 112.696C261.216 111.944 262.44 111.568 263.72 111.568C265.128 111.568 266.2 111.856 266.936 112.432C267.368 112.768 267.584 113.216 267.584 113.776C267.584 114.32 267.368 114.768 266.936 115.12C266.52 115.456 266.008 115.624 265.4 115.624C265.272 115.624 265.112 115.608 264.92 115.576C264.968 115.368 264.992 115.184 264.992 115.024C264.992 114.56 264.816 114.208 264.464 113.968C264.112 113.728 263.632 113.608 263.024 113.608C262.432 113.608 261.888 113.728 261.392 113.968C261.2 114.224 261.104 114.552 261.104 114.952C261.104 115.352 261.336 115.68 261.8 115.936C262.264 116.176 262.824 116.392 263.48 116.584C264.152 116.76 264.824 116.968 265.496 117.208C266.168 117.432 266.736 117.792 267.2 118.288C267.664 118.768 267.896 119.376 267.896 120.112C267.896 121.312 267.296 122.312 266.096 123.112C264.912 123.896 263.688 124.288 262.424 124.288C261.16 124.288 260.112 124.064 259.28 123.616C258.464 123.152 258.056 122.456 258.056 121.528C258.056 120.952 258.264 120.488 258.68 120.136C259.112 119.768 259.632 119.584 260.24 119.584C260.368 119.584 260.528 119.6 260.72 119.632ZM270.442 108.328C270.954 108.072 271.474 107.944 272.002 107.944C272.53 107.944 272.954 108.112 273.274 108.448C273.61 108.784 273.778 109.28 273.778 109.936C273.778 110.592 273.738 111.336 273.658 112.168C274.858 112.168 276.002 112 277.09 111.664C277.282 111.984 277.378 112.36 277.378 112.792C277.378 113.208 277.186 113.552 276.802 113.824C276.434 114.08 276.058 114.208 275.674 114.208C275.29 114.208 274.858 114.16 274.378 114.064C273.898 113.968 273.586 113.912 273.442 113.896C273.426 114.04 273.378 114.328 273.298 114.76C273.234 115.192 273.178 115.568 273.13 115.888C273.002 116.768 272.938 117.712 272.938 118.72C272.938 120.912 273.65 122.008 275.074 122.008C275.602 122.008 276.21 121.824 276.898 121.456C277.106 121.76 277.21 122.152 277.21 122.632C277.21 123.112 276.946 123.488 276.418 123.76C275.906 124.016 275.29 124.144 274.57 124.144C271.754 124.144 270.346 122.544 270.346 119.344C270.346 118.88 270.41 118.04 270.538 116.824C270.682 115.608 270.754 114.624 270.754 113.872C269.986 113.92 269.37 114.056 268.906 114.28C268.714 113.992 268.618 113.664 268.618 113.296C268.618 112.912 268.754 112.6 269.026 112.36C269.298 112.104 269.634 111.976 270.034 111.976C270.434 111.976 270.698 111.984 270.826 112C270.842 111.872 270.85 111.704 270.85 111.496C270.85 110.296 270.714 109.24 270.442 108.328ZM282.503 123.712C282.007 123.904 281.479 124 280.919 124C280.359 124 279.903 123.872 279.551 123.616C279.215 123.344 279.047 122.976 279.047 122.512C279.047 122.032 279.119 121.168 279.263 119.92C279.407 118.672 279.479 117.464 279.479 116.296C279.479 115.112 279.295 113.728 278.927 112.144C279.439 111.952 279.943 111.856 280.439 111.856C280.935 111.856 281.359 112.024 281.711 112.36C282.079 112.696 282.263 113.144 282.263 113.704C282.263 113.992 282.215 114.424 282.119 115C282.023 115.56 281.967 115.984 281.951 116.272C282.575 114.848 283.311 113.736 284.159 112.936C285.023 112.12 285.879 111.712 286.727 111.712C287.319 111.712 287.791 111.92 288.143 112.336C288.495 112.752 288.671 113.28 288.671 113.92C288.671 114.544 288.511 115.056 288.191 115.456C287.871 115.84 287.471 116.032 286.991 116.032C286.527 116.032 286.151 115.984 285.863 115.888C285.911 115.696 285.935 115.52 285.935 115.36C285.935 114.704 285.703 114.376 285.239 114.376C284.535 114.376 283.871 115.088 283.247 116.512C282.639 117.92 282.231 119.24 282.023 120.472C282.103 121.672 282.263 122.752 282.503 123.712ZM300.911 112.696C300.479 114.536 300.263 116.384 300.263 118.24C300.263 120.08 300.471 121.904 300.887 123.712C300.311 123.904 299.719 124 299.111 124C298.503 124 298.079 123.824 297.839 123.472C297.599 123.104 297.479 122.584 297.479 121.912C297.479 121.224 297.583 120.288 297.791 119.104C296.655 121.536 295.559 123.072 294.503 123.712C294.023 124 293.527 124.144 293.015 124.144C291.799 124.144 290.855 123.696 290.183 122.8C289.511 121.888 289.175 120.76 289.175 119.416C289.175 117.368 289.743 115.576 290.879 114.04C292.015 112.488 293.487 111.712 295.295 111.712C297.119 111.712 298.991 112.04 300.911 112.696ZM297.767 114.136C296.919 113.88 296.199 113.752 295.607 113.752C294.407 113.752 293.511 114.016 292.919 114.544C292.375 115.888 292.103 117.256 292.103 118.648C292.103 119.384 292.215 120.128 292.439 120.88C292.679 121.632 293.039 122.008 293.519 122.008C294.079 122.008 294.799 121.184 295.679 119.536C296.559 117.888 297.255 116.088 297.767 114.136ZM303.957 108.328C304.469 108.072 304.989 107.944 305.517 107.944C306.045 107.944 306.469 108.112 306.789 108.448C307.125 108.784 307.293 109.28 307.293 109.936C307.293 110.592 307.253 111.336 307.173 112.168C308.373 112.168 309.517 112 310.605 111.664C310.797 111.984 310.893 112.36 310.893 112.792C310.893 113.208 310.701 113.552 310.317 113.824C309.949 114.08 309.573 114.208 309.189 114.208C308.805 114.208 308.373 114.16 307.893 114.064C307.413 113.968 307.101 113.912 306.957 113.896C306.941 114.04 306.893 114.328 306.813 114.76C306.749 115.192 306.693 115.568 306.645 115.888C306.517 116.768 306.453 117.712 306.453 118.72C306.453 120.912 307.165 122.008 308.589 122.008C309.117 122.008 309.725 121.824 310.413 121.456C310.621 121.76 310.725 122.152 310.725 122.632C310.725 123.112 310.461 123.488 309.933 123.76C309.421 124.016 308.805 124.144 308.085 124.144C305.269 124.144 303.861 122.544 303.861 119.344C303.861 118.88 303.925 118.04 304.053 116.824C304.197 115.608 304.269 114.624 304.269 113.872C303.501 113.92 302.885 114.056 302.421 114.28C302.229 113.992 302.133 113.664 302.133 113.296C302.133 112.912 302.269 112.6 302.541 112.36C302.813 112.104 303.149 111.976 303.549 111.976C303.949 111.976 304.213 111.984 304.341 112C304.357 111.872 304.365 111.704 304.365 111.496C304.365 110.296 304.229 109.24 303.957 108.328ZM312.586 112.072C313.098 111.928 313.61 111.856 314.122 111.856C314.65 111.856 315.098 112.016 315.466 112.336C315.834 112.656 316.018 113.072 316.018 113.584C316.018 114.08 315.93 114.952 315.754 116.2C315.594 117.432 315.514 118.392 315.514 119.08C315.514 120.872 315.682 122.416 316.018 123.712C315.522 123.904 314.986 124 314.41 124C313.834 124 313.378 123.872 313.042 123.616C312.706 123.344 312.538 122.96 312.538 122.464C312.538 121.952 312.634 121.12 312.826 119.968C313.018 118.816 313.114 117.864 313.114 117.112C313.114 115.112 312.938 113.432 312.586 112.072ZM312.898 106.648C313.458 106.392 314.01 106.264 314.554 106.264C315.098 106.264 315.498 106.408 315.754 106.696C316.026 106.968 316.162 107.376 316.162 107.92C316.162 108.464 315.978 108.944 315.61 109.36C315.258 109.776 314.794 109.984 314.218 109.984C313.034 109.984 312.442 109.368 312.442 108.136C312.442 107.592 312.594 107.096 312.898 106.648ZM322.975 124.288C321.215 124.288 319.919 123.776 319.087 122.752C318.255 121.712 317.839 120.272 317.839 118.432C317.839 116.576 318.391 114.968 319.495 113.608C320.599 112.248 322.015 111.568 323.743 111.568C327.295 111.568 329.071 113.568 329.071 117.568C329.071 119.44 328.495 121.032 327.343 122.344C326.191 123.64 324.735 124.288 322.975 124.288ZM321.247 114.208C320.959 115.136 320.815 116.064 320.815 116.992C320.815 117.92 320.847 118.64 320.911 119.152C320.975 119.664 321.095 120.176 321.271 120.688C321.639 121.728 322.359 122.248 323.431 122.248C324.519 122.248 325.231 121.96 325.567 121.384C325.919 120.808 326.095 119.92 326.095 118.72C326.095 115.312 325.287 113.608 323.671 113.608C322.743 113.608 321.935 113.808 321.247 114.208ZM342.143 114.304L341.903 119.584C341.903 121.04 342.127 122.464 342.575 123.856C342.127 124.048 341.615 124.144 341.039 124.144C339.679 124.144 338.999 123.384 338.999 121.864C338.999 121.176 339.087 120.024 339.263 118.408C339.439 116.776 339.527 115.752 339.527 115.336C339.527 114.536 339.167 114.136 338.447 114.136C337.919 114.136 337.319 114.52 336.647 115.288C335.991 116.04 335.423 116.888 334.943 117.832C334.479 118.76 334.207 119.528 334.127 120.136C334.191 121.384 334.351 122.576 334.607 123.712C334.095 123.904 333.559 124 332.999 124C332.455 124 332.007 123.872 331.655 123.616C331.319 123.344 331.151 122.976 331.151 122.512C331.151 122.032 331.223 121.184 331.367 119.968C331.511 118.736 331.583 117.52 331.583 116.32C331.583 115.104 331.399 113.712 331.031 112.144C331.543 111.952 332.087 111.856 332.663 111.856C333.239 111.856 333.703 112.024 334.055 112.36C334.423 112.696 334.607 113.112 334.607 113.608C334.607 114.104 334.543 114.896 334.415 115.984C335.023 114.848 335.815 113.856 336.791 113.008C337.767 112.144 338.743 111.712 339.719 111.712C341.335 111.712 342.143 112.576 342.143 114.304Z" fill="#A9017A"/>
</svg>
