<svg width="144" height="64" viewBox="0 0 144 64" fill="none" xmlns="http://www.w3.org/2000/svg">
<g clip-path="url(#clip0_1116_400)">
<path d="M11.6328 17.1523H9.5625V14.8086H11.6328V17.1523ZM4.95312 17.1523H2.72656V14.8086H4.95312V17.1523ZM8.91797 12.4453V36.4883C8.78776 36.4492 8.61849 36.3776 8.41016 36.2734L7.39453 35.7461C6.23568 35.1471 5.6237 34.8477 5.55859 34.8477V12.4844C5.55859 11.1172 5.29167 9.66536 4.75781 8.12891C4.01562 5.98047 2.86328 4.02734 1.30078 2.26953L0.0703125 0.882812H4.23047C6.39193 3.04427 7.8112 5.69401 8.48828 8.83203C8.77474 10.1602 8.91797 11.3646 8.91797 12.4453ZM33.1953 17.1523H16.8477V29.6719C16.8477 30.5052 17.0234 31.3646 17.375 32.25C18.0911 34.0599 19.276 34.9648 20.9297 34.9648C23.1562 34.9648 24.849 34.0339 26.0078 32.1719C26.9062 30.7396 27.3555 29.3919 27.3555 28.1289V20.3555H31.3203V36.9961C31.0078 36.8138 30.4219 36.5339 29.5625 36.1562L27.3164 35.1602V33.5977C25.7799 34.7174 24.4648 35.4271 23.3711 35.7266C22.707 35.9089 21.9193 36 21.0078 36C18.1172 36 15.8581 34.7305 14.2305 32.1914C13.4883 31.0326 13.1172 29.7695 13.1172 28.4023V17.1523H10.7539V14.8086H33.1953V17.1523ZM53.7227 17.1523H49.6406V22.6016C50.5 23.3958 51.0208 23.9102 51.2031 24.1445C51.5286 24.5612 51.8607 25.2057 52.1992 26.0781H49.6016C49.6016 24.6589 49.1979 23.5521 48.3906 22.7578C47.5964 21.9635 46.4896 21.5664 45.0703 21.5664C43.5859 21.5664 42.1992 21.9766 40.9102 22.7969C39.6732 23.5781 38.6771 24.6328 37.9219 25.9609C37.2057 27.224 36.8477 28.4479 36.8477 29.6328C36.8477 31.026 37.349 32.0872 38.3516 32.8164C39.237 33.4674 40.4023 33.793 41.8477 33.793C44.2565 33.793 45.9362 33.1289 46.8867 31.8008H51.0469C50.6953 33.207 49.3997 34.3919 47.1602 35.3555C46.1576 35.7852 45.2266 36 44.3672 36C42.6875 36 40.9948 35.5247 39.2891 34.5742C37.6615 33.6758 36.3203 32.5234 35.2656 31.1172C34.2109 29.6979 33.6836 28.2982 33.6836 26.918C33.6836 25.8763 34.1458 24.6979 35.0703 23.3828C37.0104 20.6224 39.3737 19.2422 42.1602 19.2422C43.9961 19.2422 45.4479 19.6263 46.5156 20.3945V17.1523H32.7266V14.8086H53.7227V17.1523ZM71.6328 17.1523H58.8203V22.1914C59.5885 21.7487 60.8451 21.1693 62.5898 20.4531C63.306 20.2578 64.1719 20.1602 65.1875 20.1602C66.5807 20.1602 67.8242 20.5443 68.918 21.3125C70.1419 22.1589 70.7539 23.2526 70.7539 24.5938C70.7539 26.4036 69.7188 27.7188 67.6484 28.5391C66.7891 28.8776 66.0469 29.0469 65.4219 29.0469L69.9531 34.5547L67.4727 36.3516L60.5 28.0703L61.7891 25.3945C62.4792 25.5898 63.2018 25.6875 63.957 25.6875C65.0638 25.6875 65.9688 25.4271 66.6719 24.9062C67.4661 24.3333 67.8633 23.513 67.8633 22.4453C67.8633 21.4036 67.1211 20.8828 65.6367 20.8828C64.5951 20.8828 63.4883 21.3841 62.3164 22.3867C61.4831 23.1029 60.7214 23.9688 60.0312 24.9844C59.1979 26.2083 58.7812 27.2565 58.7812 28.1289V36.3125L55.4219 34.8086V17.1523H52.9414V14.8086H55.3047C55.3047 11.0716 54.6276 7.96615 53.2734 5.49219C53.013 5.01042 52.5117 4.28776 51.7695 3.32422C51.0664 2.39974 50.5781 1.66406 50.3047 1.11719H54.2695C55.0378 1.83333 55.832 3.01172 56.6523 4.65234C58.0456 7.4388 58.7422 10.8242 58.7422 14.8086H71.6328V17.1523ZM92.1992 17.1523H71.2031V14.8086H92.1992V17.1523ZM88 25.7266C88 22.6016 86.5221 21.0391 83.5664 21.0391C81.3789 21.0391 79.5495 22.1849 78.0781 24.4766C76.776 26.5078 76.125 28.6693 76.125 30.9609V36.6445L72.9219 34.9648V20.2773H76.2812V22.6016L78.0195 21.293C79.556 20.1341 81.1771 19.5547 82.8828 19.5547C85.2005 19.5547 87.1211 20.4531 88.6445 22.25C90.0768 23.9427 90.793 25.9674 90.793 28.3242C90.793 31.2799 89.543 34.1185 87.043 36.8398L83.2734 34.4766C84.4453 33.3177 85.4414 32.25 86.2617 31.2734C87.4206 29.8932 88 28.0443 88 25.7266ZM112.746 17.1523H108.352V22.5234C108.352 22.6406 108.872 23.2201 109.914 24.2617C110.708 25.2253 111.105 26.6055 111.105 28.4023C111.105 31.3841 109.784 33.5911 107.141 35.0234C105.891 35.7005 104.53 36.0391 103.059 36.0391C100.923 36.0391 98.7227 35.0951 96.457 33.207C94.0872 31.2279 92.9023 29.0794 92.9023 26.7617C92.9023 25.694 93.2865 24.5872 94.0547 23.4414C94.7448 22.4128 95.5781 21.5599 96.5547 20.8828C97.7266 20.0755 99.1393 19.6719 100.793 19.6719C101.704 19.6719 103.052 19.9128 104.836 20.3945C104.914 20.3945 104.953 20.3424 104.953 20.2383V17.1523H91.5547V14.8086H112.746V17.1523ZM108.234 25.8047C108.234 23.9688 107.427 22.7383 105.812 22.1133C105.214 21.8789 104.699 21.7617 104.27 21.7617C102.655 21.7617 100.917 22.4844 99.0547 23.9297C96.8802 25.6224 95.793 27.7773 95.793 30.3945C95.793 31.6185 96.4961 32.6211 97.9023 33.4023C98.5404 33.7539 99.1849 33.9297 99.8359 33.9297C101.451 33.9297 103.221 33.1484 105.148 31.5859C107.206 29.9193 108.234 27.9922 108.234 25.8047ZM143.254 14.8086L143.215 17.1523H141.418V29.1641C141.418 30.9219 140.559 32.5169 138.84 33.9492C137.212 35.3164 135.5 36 133.703 36C131.958 36 130.103 35.2383 128.137 33.7148C126.457 35.2383 124.432 36 122.062 36C120.878 36 119.68 35.6224 118.469 34.8672C117.349 34.1771 116.418 33.3112 115.676 32.2695C114.855 31.1107 114.445 29.8607 114.445 28.5195C114.445 26.7357 114.927 25.0104 115.891 23.3438C116.815 21.7292 118.046 20.4141 119.582 19.3984C120.441 20.349 121.424 21.3906 122.531 22.5234C121.477 23.4349 120.415 24.3984 119.348 25.4141C117.876 26.8203 117.141 28.4154 117.141 30.1992C117.141 32.9466 118.124 34.3203 120.09 34.3203C121.678 34.3203 123.065 33.832 124.25 32.8555C125.396 31.918 126.203 30.6745 126.672 29.125C127.023 27.9661 127.232 27.1003 127.297 26.5273L131.047 28.4414C130.969 29.431 130.63 30.4531 130.031 31.5078C129.758 31.9896 129.562 32.2891 129.445 32.4062C129.823 32.9922 130.682 33.2852 132.023 33.2852C134.341 33.2852 136.086 32.4909 137.258 30.9023C137.792 30.1732 138.059 29.4049 138.059 28.5977L138.02 17.1523H112.141V14.8086H143.254Z" fill="#AC037E"/>
<path d="M25.7177 52.2002C26.3177 53.4669 27.0777 54.5735 27.9977 55.5202C28.9177 56.4669 29.8311 57.0802 30.7377 57.3602C30.7377 57.9202 30.5911 58.3535 30.2977 58.6602C30.0044 58.9669 29.5844 59.1202 29.0377 59.1202C28.3311 59.1202 27.5244 58.6669 26.6177 57.7602C25.7111 56.8402 24.9177 55.7602 24.2377 54.5202C23.5711 53.2669 23.1777 52.1669 23.0577 51.2202C24.0177 51.2202 24.8044 50.9669 25.4177 50.4602C26.0444 49.9402 26.3577 49.2069 26.3577 48.2602C26.3577 47.0602 25.6111 46.4602 24.1177 46.4602C23.6377 46.4602 23.0511 46.5402 22.3577 46.7002C22.2644 48.5002 22.2177 49.9535 22.2177 51.0602C22.2177 54.6069 22.3577 57.1735 22.6377 58.7602C22.2111 58.9202 21.7577 59.0002 21.2777 59.0002C20.7977 59.0002 20.3777 58.8469 20.0177 58.5402C19.6711 58.2335 19.4977 57.8269 19.4977 57.3202C19.4977 56.8135 19.5644 55.9335 19.6977 54.6802C19.8311 53.4135 19.8977 52.4002 19.8977 51.6402C19.8977 49.3069 19.7311 47.2335 19.3977 45.4202C21.1977 44.9269 22.9111 44.6802 24.5377 44.6802C27.5111 44.6802 28.9977 45.7402 28.9977 47.8602C28.9977 48.7935 28.6777 49.6735 28.0377 50.5002C27.4111 51.3135 26.6377 51.8802 25.7177 52.2002ZM33.7716 54.4602C33.7716 55.4202 33.925 56.1802 34.2316 56.7402C34.5383 57.2869 35.0516 57.5602 35.7716 57.5602C36.4916 57.5602 37.0516 57.3202 37.4516 56.8402C37.865 56.3469 38.0716 55.7535 38.0716 55.0602C38.525 55.0602 38.9183 55.1735 39.2516 55.4002C39.585 55.6269 39.7516 55.9402 39.7516 56.3402C39.7516 57.1669 39.3116 57.8602 38.4316 58.4202C37.5516 58.9669 36.625 59.2402 35.6516 59.2402C34.1316 59.2402 33.0316 58.8335 32.3516 58.0202C31.6716 57.1935 31.3316 55.9735 31.3316 54.3602C31.3316 52.7469 31.785 51.3935 32.6916 50.3002C33.6116 49.1935 34.8316 48.6402 36.3516 48.6402C37.3916 48.6402 38.225 48.8802 38.8516 49.3602C39.4916 49.8269 39.8116 50.5602 39.8116 51.5602C39.8116 52.5469 39.3583 53.2935 38.4516 53.8002C37.5583 54.2935 36.465 54.5402 35.1716 54.5402C34.7183 54.5402 34.2516 54.5135 33.7716 54.4602ZM33.7916 52.8802C34.1916 52.9602 34.6116 53.0002 35.0516 53.0002C36.0116 53.0002 36.8183 52.8202 37.4716 52.4602C37.5516 52.1402 37.5916 51.8869 37.5916 51.7002C37.5916 51.2335 37.425 50.8802 37.0916 50.6402C36.7583 50.4002 36.2983 50.2802 35.7116 50.2802C35.1383 50.2802 34.6183 50.4669 34.1516 50.8402C33.9116 51.5335 33.7916 52.2135 33.7916 52.8802ZM48.4982 50.7802C47.7915 50.5669 47.0915 50.4602 46.3982 50.4602C45.7049 50.4602 45.0515 50.6669 44.4382 51.0802C43.9582 52.0402 43.7182 53.0602 43.7182 54.1402C43.7182 54.7669 43.8049 55.3802 43.9782 55.9802C44.1515 56.5669 44.4382 56.8602 44.8382 56.8602C45.2915 56.8602 45.8982 56.2135 46.6582 54.9202C47.4182 53.6269 48.0315 52.2469 48.4982 50.7802ZM45.4982 62.2802C46.3515 62.2802 47.0182 61.9869 47.4982 61.4002C47.9782 60.8135 48.2182 60.0602 48.2182 59.1402C48.2182 58.6869 48.1849 58.0269 48.1182 57.1602C48.0649 56.2935 48.0315 55.6802 48.0182 55.3202C47.0715 56.9735 46.2449 57.9869 45.5382 58.3602C45.1782 58.5469 44.7982 58.6402 44.3982 58.6402C43.3982 58.6402 42.6249 58.2469 42.0782 57.4602C41.5315 56.6735 41.2582 55.7135 41.2582 54.5802C41.2582 53.0335 41.7382 51.6802 42.6982 50.5202C43.6715 49.3469 44.8982 48.7602 46.3782 48.7602C47.8715 48.7602 49.3782 49.0202 50.8982 49.5402C50.4982 50.9669 50.2982 52.3669 50.2982 53.7402C50.2982 54.3935 50.3449 55.2069 50.4382 56.1802C50.5315 57.1402 50.5782 57.8535 50.5782 58.3202C50.5782 59.9602 50.0582 61.3135 49.0182 62.3802C47.9782 63.4602 46.6449 64.0002 45.0182 64.0002C44.0582 64.0002 43.2315 63.8135 42.5382 63.4402C41.8582 63.0802 41.5182 62.5135 41.5182 61.7402C41.5182 61.2602 41.6982 60.8535 42.0582 60.5202C42.4182 60.1869 42.8449 60.0202 43.3382 60.0202C43.4449 60.0202 43.5782 60.0335 43.7382 60.0602C43.6982 60.2335 43.6782 60.3869 43.6782 60.5202C43.6782 61.0002 43.8582 61.4135 44.2182 61.7602C44.5782 62.1069 45.0049 62.2802 45.4982 62.2802ZM52.8134 49.0602C53.24 48.9402 53.6667 48.8802 54.0934 48.8802C54.5334 48.8802 54.9067 49.0135 55.2134 49.2802C55.52 49.5469 55.6734 49.8935 55.6734 50.3202C55.6734 50.7335 55.6 51.4602 55.4534 52.5002C55.32 53.5269 55.2534 54.3269 55.2534 54.9002C55.2534 56.3935 55.3934 57.6802 55.6734 58.7602C55.26 58.9202 54.8134 59.0002 54.3334 59.0002C53.8534 59.0002 53.4734 58.8935 53.1934 58.6802C52.9134 58.4535 52.7734 58.1335 52.7734 57.7202C52.7734 57.2935 52.8534 56.6002 53.0134 55.6402C53.1734 54.6802 53.2534 53.8869 53.2534 53.2602C53.2534 51.5935 53.1067 50.1935 52.8134 49.0602ZM53.0734 44.5402C53.54 44.3269 54 44.2202 54.4534 44.2202C54.9067 44.2202 55.24 44.3402 55.4534 44.5802C55.68 44.8069 55.7934 45.1469 55.7934 45.6002C55.7934 46.0535 55.64 46.4535 55.3334 46.8002C55.04 47.1469 54.6534 47.3202 54.1734 47.3202C53.1867 47.3202 52.6934 46.8069 52.6934 45.7802C52.6934 45.3269 52.82 44.9135 53.0734 44.5402ZM59.611 55.3602C59.571 55.5469 59.551 55.7002 59.551 55.8202C59.551 56.3669 59.711 56.7869 60.031 57.0802C60.3643 57.3735 60.8043 57.5202 61.351 57.5202C61.911 57.5202 62.371 57.4202 62.731 57.2202C63.1043 57.0069 63.291 56.6935 63.291 56.2802C63.291 55.8669 63.091 55.5402 62.691 55.3002C62.3043 55.0469 61.831 54.8469 61.271 54.7002C60.7243 54.5535 60.171 54.3935 59.611 54.2202C59.051 54.0335 58.571 53.7469 58.171 53.3602C57.7843 52.9735 57.591 52.4869 57.591 51.9002C57.591 50.9802 58.0777 50.2069 59.051 49.5802C60.0243 48.9535 61.0443 48.6402 62.111 48.6402C63.2843 48.6402 64.1777 48.8802 64.791 49.3602C65.151 49.6402 65.331 50.0135 65.331 50.4802C65.331 50.9335 65.151 51.3069 64.791 51.6002C64.4443 51.8802 64.0177 52.0202 63.511 52.0202C63.4043 52.0202 63.271 52.0069 63.111 51.9802C63.151 51.8069 63.171 51.6535 63.171 51.5202C63.171 51.1335 63.0243 50.8402 62.731 50.6402C62.4377 50.4402 62.0377 50.3402 61.531 50.3402C61.0377 50.3402 60.5843 50.4402 60.171 50.6402C60.011 50.8535 59.931 51.1269 59.931 51.4602C59.931 51.7935 60.1243 52.0669 60.511 52.2802C60.8977 52.4802 61.3643 52.6602 61.911 52.8202C62.471 52.9669 63.031 53.1402 63.591 53.3402C64.151 53.5269 64.6243 53.8269 65.011 54.2402C65.3977 54.6402 65.591 55.1469 65.591 55.7602C65.591 56.7602 65.091 57.5935 64.091 58.2602C63.1043 58.9135 62.0843 59.2402 61.031 59.2402C59.9777 59.2402 59.1043 59.0535 58.411 58.6802C57.731 58.2935 57.391 57.7135 57.391 56.9402C57.391 56.4602 57.5643 56.0735 57.911 55.7802C58.271 55.4735 58.7043 55.3202 59.211 55.3202C59.3177 55.3202 59.451 55.3335 59.611 55.3602ZM67.7126 45.9402C68.1392 45.7269 68.5726 45.6202 69.0126 45.6202C69.4526 45.6202 69.8059 45.7602 70.0726 46.0402C70.3526 46.3202 70.4926 46.7335 70.4926 47.2802C70.4926 47.8269 70.4592 48.4469 70.3926 49.1402C71.3926 49.1402 72.3459 49.0002 73.2526 48.7202C73.4126 48.9869 73.4926 49.3002 73.4926 49.6602C73.4926 50.0069 73.3326 50.2935 73.0126 50.5202C72.7059 50.7335 72.3926 50.8402 72.0726 50.8402C71.7526 50.8402 71.3926 50.8002 70.9926 50.7202C70.5926 50.6402 70.3326 50.5935 70.2126 50.5802C70.1992 50.7002 70.1592 50.9402 70.0926 51.3002C70.0392 51.6602 69.9926 51.9735 69.9526 52.2402C69.8459 52.9735 69.7926 53.7602 69.7926 54.6002C69.7926 56.4269 70.3859 57.3402 71.5726 57.3402C72.0126 57.3402 72.5192 57.1869 73.0926 56.8802C73.2659 57.1335 73.3526 57.4602 73.3526 57.8602C73.3526 58.2602 73.1326 58.5735 72.6926 58.8002C72.2659 59.0135 71.7526 59.1202 71.1526 59.1202C68.8059 59.1202 67.6326 57.7869 67.6326 55.1202C67.6326 54.7335 67.6859 54.0335 67.7926 53.0202C67.9126 52.0069 67.9726 51.1869 67.9726 50.5602C67.3326 50.6002 66.8192 50.7135 66.4326 50.9002C66.2726 50.6602 66.1926 50.3869 66.1926 50.0802C66.1926 49.7602 66.3059 49.5002 66.5326 49.3002C66.7592 49.0869 67.0392 48.9802 67.3726 48.9802C67.7059 48.9802 67.9259 48.9869 68.0326 49.0002C68.0459 48.8935 68.0526 48.7535 68.0526 48.5802C68.0526 47.5802 67.9392 46.7002 67.7126 45.9402ZM77.7632 58.7602C77.3499 58.9202 76.9099 59.0002 76.4432 59.0002C75.9765 59.0002 75.5965 58.8935 75.3032 58.6802C75.0232 58.4535 74.8832 58.1469 74.8832 57.7602C74.8832 57.3602 74.9432 56.6402 75.0632 55.6002C75.1832 54.5602 75.2432 53.5535 75.2432 52.5802C75.2432 51.5935 75.0899 50.4402 74.7832 49.1202C75.2099 48.9602 75.6299 48.8802 76.0432 48.8802C76.4565 48.8802 76.8099 49.0202 77.1032 49.3002C77.4099 49.5802 77.5632 49.9535 77.5632 50.4202C77.5632 50.6602 77.5232 51.0202 77.4432 51.5002C77.3632 51.9669 77.3165 52.3202 77.3032 52.5602C77.8232 51.3735 78.4365 50.4469 79.1432 49.7802C79.8632 49.1002 80.5765 48.7602 81.2832 48.7602C81.7765 48.7602 82.1699 48.9335 82.4632 49.2802C82.7565 49.6269 82.9032 50.0669 82.9032 50.6002C82.9032 51.1202 82.7699 51.5469 82.5032 51.8802C82.2365 52.2002 81.9032 52.3602 81.5032 52.3602C81.1165 52.3602 80.8032 52.3202 80.5632 52.2402C80.6032 52.0802 80.6232 51.9335 80.6232 51.8002C80.6232 51.2535 80.4299 50.9802 80.0432 50.9802C79.4565 50.9802 78.9032 51.5735 78.3832 52.7602C77.8765 53.9335 77.5365 55.0335 77.3632 56.0602C77.4299 57.0602 77.5632 57.9602 77.7632 58.7602ZM93.1038 49.5802C92.7438 51.1135 92.5638 52.6535 92.5638 54.2002C92.5638 55.7335 92.7372 57.2535 93.0838 58.7602C92.6038 58.9202 92.1105 59.0002 91.6038 59.0002C91.0972 59.0002 90.7438 58.8535 90.5438 58.5602C90.3438 58.2535 90.2438 57.8202 90.2438 57.2602C90.2438 56.6869 90.3305 55.9069 90.5038 54.9202C89.5572 56.9469 88.6438 58.2269 87.7638 58.7602C87.3638 59.0002 86.9505 59.1202 86.5238 59.1202C85.5105 59.1202 84.7238 58.7469 84.1638 58.0002C83.6038 57.2402 83.3238 56.3002 83.3238 55.1802C83.3238 53.4735 83.7972 51.9802 84.7438 50.7002C85.6905 49.4069 86.9172 48.7602 88.4238 48.7602C89.9438 48.7602 91.5038 49.0335 93.1038 49.5802ZM90.4838 50.7802C89.7772 50.5669 89.1772 50.4602 88.6838 50.4602C87.6838 50.4602 86.9372 50.6802 86.4438 51.1202C85.9905 52.2402 85.7638 53.3802 85.7638 54.5402C85.7638 55.1535 85.8572 55.7735 86.0438 56.4002C86.2438 57.0269 86.5438 57.3402 86.9438 57.3402C87.4105 57.3402 88.0105 56.6535 88.7438 55.2802C89.4772 53.9069 90.0572 52.4069 90.4838 50.7802ZM95.6423 45.9402C96.0689 45.7269 96.5023 45.6202 96.9423 45.6202C97.3823 45.6202 97.7356 45.7602 98.0023 46.0402C98.2823 46.3202 98.4223 46.7335 98.4223 47.2802C98.4223 47.8269 98.3889 48.4469 98.3223 49.1402C99.3223 49.1402 100.276 49.0002 101.182 48.7202C101.342 48.9869 101.422 49.3002 101.422 49.6602C101.422 50.0069 101.262 50.2935 100.942 50.5202C100.636 50.7335 100.322 50.8402 100.002 50.8402C99.6823 50.8402 99.3223 50.8002 98.9223 50.7202C98.5223 50.6402 98.2623 50.5935 98.1423 50.5802C98.1289 50.7002 98.0889 50.9402 98.0223 51.3002C97.9689 51.6602 97.9223 51.9735 97.8823 52.2402C97.7756 52.9735 97.7223 53.7602 97.7223 54.6002C97.7223 56.4269 98.3156 57.3402 99.5023 57.3402C99.9423 57.3402 100.449 57.1869 101.022 56.8802C101.196 57.1335 101.282 57.4602 101.282 57.8602C101.282 58.2602 101.062 58.5735 100.622 58.8002C100.196 59.0135 99.6823 59.1202 99.0823 59.1202C96.7356 59.1202 95.5623 57.7869 95.5623 55.1202C95.5623 54.7335 95.6156 54.0335 95.7223 53.0202C95.8423 52.0069 95.9023 51.1869 95.9023 50.5602C95.2623 50.6002 94.7489 50.7135 94.3623 50.9002C94.2023 50.6602 94.1223 50.3869 94.1223 50.0802C94.1223 49.7602 94.2356 49.5002 94.4623 49.3002C94.6889 49.0869 94.9689 48.9802 95.3023 48.9802C95.6356 48.9802 95.8556 48.9869 95.9623 49.0002C95.9756 48.8935 95.9823 48.7535 95.9823 48.5802C95.9823 47.5802 95.8689 46.7002 95.6423 45.9402ZM102.833 49.0602C103.26 48.9402 103.686 48.8802 104.113 48.8802C104.553 48.8802 104.926 49.0135 105.233 49.2802C105.54 49.5469 105.693 49.8935 105.693 50.3202C105.693 50.7335 105.62 51.4602 105.473 52.5002C105.34 53.5269 105.273 54.3269 105.273 54.9002C105.273 56.3935 105.413 57.6802 105.693 58.7602C105.28 58.9202 104.833 59.0002 104.353 59.0002C103.873 59.0002 103.493 58.8935 103.213 58.6802C102.933 58.4535 102.793 58.1335 102.793 57.7202C102.793 57.2935 102.873 56.6002 103.033 55.6402C103.193 54.6802 103.273 53.8869 103.273 53.2602C103.273 51.5935 103.126 50.1935 102.833 49.0602ZM103.093 44.5402C103.56 44.3269 104.02 44.2202 104.473 44.2202C104.926 44.2202 105.26 44.3402 105.473 44.5802C105.7 44.8069 105.813 45.1469 105.813 45.6002C105.813 46.0535 105.66 46.4535 105.353 46.8002C105.06 47.1469 104.673 47.3202 104.193 47.3202C103.206 47.3202 102.713 46.8069 102.713 45.7802C102.713 45.3269 102.84 44.9135 103.093 44.5402ZM111.491 59.2402C110.024 59.2402 108.944 58.8135 108.251 57.9602C107.557 57.0935 107.211 55.8935 107.211 54.3602C107.211 52.8135 107.671 51.4735 108.591 50.3402C109.511 49.2069 110.691 48.6402 112.131 48.6402C115.091 48.6402 116.571 50.3069 116.571 53.6402C116.571 55.2002 116.091 56.5269 115.131 57.6202C114.171 58.7002 112.957 59.2402 111.491 59.2402ZM110.051 50.8402C109.811 51.6135 109.691 52.3869 109.691 53.1602C109.691 53.9335 109.717 54.5335 109.771 54.9602C109.824 55.3869 109.924 55.8135 110.071 56.2402C110.377 57.1069 110.977 57.5402 111.871 57.5402C112.777 57.5402 113.371 57.3002 113.651 56.8202C113.944 56.3402 114.091 55.6002 114.091 54.6002C114.091 51.7602 113.417 50.3402 112.071 50.3402C111.297 50.3402 110.624 50.5069 110.051 50.8402ZM127.464 50.9202L127.264 55.3202C127.264 56.5335 127.45 57.7202 127.824 58.8802C127.45 59.0402 127.024 59.1202 126.544 59.1202C125.41 59.1202 124.844 58.4869 124.844 57.2202C124.844 56.6469 124.917 55.6869 125.064 54.3402C125.21 52.9802 125.284 52.1269 125.284 51.7802C125.284 51.1135 124.984 50.7802 124.384 50.7802C123.944 50.7802 123.444 51.1002 122.884 51.7402C122.337 52.3669 121.864 53.0735 121.464 53.8602C121.077 54.6335 120.85 55.2735 120.784 55.7802C120.837 56.8202 120.97 57.8135 121.184 58.7602C120.757 58.9202 120.31 59.0002 119.844 59.0002C119.39 59.0002 119.017 58.8935 118.724 58.6802C118.444 58.4535 118.304 58.1469 118.304 57.7602C118.304 57.3602 118.364 56.6535 118.484 55.6402C118.604 54.6135 118.664 53.6002 118.664 52.6002C118.664 51.5869 118.51 50.4269 118.204 49.1202C118.63 48.9602 119.084 48.8802 119.564 48.8802C120.044 48.8802 120.43 49.0202 120.724 49.3002C121.03 49.5802 121.184 49.9269 121.184 50.3402C121.184 50.7535 121.13 51.4135 121.024 52.3202C121.53 51.3735 122.19 50.5469 123.004 49.8402C123.817 49.1202 124.63 48.7602 125.444 48.7602C126.79 48.7602 127.464 49.4802 127.464 50.9202Z" fill="#AC037E"/>
</g>
<defs>
<clipPath id="clip0_1116_400">
<rect width="144" height="64" fill="white"/>
</clipPath>
</defs>
</svg>
